{
.appVersion = "3058";
DisplayStrings = (
"/uni2026"
);
copyright = "Copyright 2013 The Antonio Project Authors (https://github.com/googlefonts/antonioFont)";
customParameters = (
{
name = blueFuzz;
value = 1;
},
{
name = blueScale;
value = 0.03963;
},
{
name = blueShift;
value = 7;
},
{
name = "Enforce Compatibility Check";
value = 1;
},
{
name = fsType;
value = (
);
},
{
name = "Use Typo Metrics";
value = 1;
},
{
name = license;
value = "This Font Software is licensed under the SIL Open Font License, Version 1.1. This license is available with a FAQ at: http://scripts.sil.org/OFL";
},
{
name = licenseURL;
value = "http://scripts.sil.org/OFL";
},
{
name = vendorID;
value = newt;
},
{
name = trademark;
value = "Antonio is a trademark of Vernon Adams";
},
{
name = Axes;
value = (
{
Name = Weight;
Tag = wght;
}
);
}
);
date = "2021-03-12 12:23:24 +0000";
designer = "Vernon Adams";
designerURL = "http://newtypography.co.uk";
disablesNiceNames = 1;
familyName = Antonio;
featurePrefixes = (
{
automatic = 1;
code = "languagesystem DFLT dflt;\012\012languagesystem latn dflt;\012languagesystem latn ROM;\012languagesystem latn MOL;\012languagesystem latn CAT;\012";
name = Languagesystems;
}
);
features = (
{
automatic = 1;
code = "feature locl;\012feature frac;\012feature ordn;\012";
name = aalt;
},
{
automatic = 1;
code = "lookup ccmp_Other_1 {\012	@CombiningTopAccents = [acutecomb brevecomb caroncomb circumflexcomb commaturnedabovecomb dieresiscomb dotaccentcomb gravecomb hungarumlautcomb macroncomb ringcomb tildecomb];\012	@CombiningNonTopAccents = [cedillacomb ogonekcomb strokeshortcomb];\012	sub [j]' @CombiningTopAccents by [jdotless];\012	sub [j]' @CombiningNonTopAccents @CombiningTopAccents by [jdotless];\012} ccmp_Other_1;\012";
name = ccmp;
},
{
automatic = 1;

glyphs = (
{
glyphname = A;
lastChange = "2021-03-12 12:16:51 +0000";
layers = (
{
anchors = (
{
name = bottom;
position = "{398, 0}";
},
{
name = ogonek;
position = "{715, 0}";
},
{
name = top;
position = "{398, 1760}";
}
);
layerId = master01;
paths = (
{
closed = 1;
nodes = (
"176 0 LINE",
"229 362 LINE",
"581 362 LINE",
"639 0 LINE",
"783 0 LINE",
"470 1760 LINE",
"318 1760 LINE",
"35 0 LINE"
);
},
{
closed = 1;
nodes = (
"397 1476 LINE",
"399 1476 LINE",
"561 473 LINE",
"248 473 LINE"
);
}
);
userData = {
com.fontlab.hintData = {
hhints = (
{
position = 0;
width = 21;
},
{
position = 362;
width = 111;
},
{
position = 1740;
width = 20;
}
);
};
};
width = 818;
},
{
anchors = (
{
name = bottom;
position = "{444, 0}";
},
{
name = ogonek;
position = "{769, 0}";
},
{
name = top;
position = "{444, 1760}";
}
);
layerId = "5843B4DD-419E-4583-B42F-98D06DF0D314";
paths = (
{
closed = 1;
nodes = (
"247 0 LINE",
"293 336 LINE",
"612 336 LINE",
"662 0 LINE",
"857 0 LINE",
"566 1760 LINE",
"317 1760 LINE",
"50 0 LINE"
);
},
{
closed = 1;
nodes = (
"444 1434 LINE",
"447 1434 LINE",
"586 504 LINE",
"316 504 LINE"
);
}
);
userData = {
com.fontlab.hintData = {
hhints = (
{
position = 0;
width = 21;
},
{
position = 336;
width = 168;
},
{
position = 1740;
width = 20;
}
);
};
};
width = 907;
},
{
anchors = (
{
name = bottom;
position = "{454, 0}";
},
{
name = ogonek;
position = "{778, 0}";
},
{
name = top;
position = "{454, 1760}";
}
);
layerId = "AF5BFB92-B2A0-4267-9185-576C8CF6314E";
paths = (
{
closed = 1;
nodes = (
"285.5 0 LINE",
"323.5 314 LINE",
"607.5 314 LINE",
"649.5 0 LINE",
"899.5 0 LINE",
"632.5 1760 LINE",
"278.5 1760 LINE",
"27.5 0 LINE"
);
},
{
closed = 1;
nodes = (
"457.5 1413 LINE",
"461.5 1413 LINE",
"579.5 529 LINE",
"349.5 529 LINE"
);
}
);
userData = {
com.fontlab.hintData = {
hhints = (
{
position = 0;
width = 21;
},
{
position = 314;
width = 215;
},
{
position = 1740;
width = 20;
}
);
};
};
width = 927;
}
);
leftKerningGroup = A;
rightKerningGroup = A;
unicode = 0041;
},
{
glyphname = AE;
lastChange = "2021-03-12 12:02:11 +0000";
layers = (
{
anchors = (
{
name = bottom;
position = "{537, 0}";
},
{
name = top;
position = "{537, 1760}";
}
);
layerId = master01;
paths = (
{
closed = 1;
nodes = (
"183 0 LINE",
"259 370 LINE",
"551 370 LINE",
"551 0 LINE",
"986 0 LINE",
"986 118 LINE",
"684 118 LINE",
"684 836 LINE",
"970 836 LINE",
"970 956 LINE",
"684 956 LINE",
"684 1644 LINE",
"989 1644 LINE",
"989 1760 LINE",
"433 1760 LINE",
"43 0 LINE"
);
},
{
closed = 1;
nodes = (
"533 1645 LINE",
"551 1646 LINE",
"551 483 LINE",
"288 483 LINE"
);
}
);
userData = {
com.fontlab.hintData = {
hhints = (
{
position = 0;
width = 118;
},
{
position = 370;
width = 113;
},
{
position = 836;
width = 120;
},
{
position = 1644;
width = 116;
}
);
vhints = (
{
position = 551;
width = 133;
}
);
};
};
width = 1074;
},
{
anchors = (
{
name = bottom;
position = "{603, 0}";
},
{
name = top;
position = "{603, 1760}";
}
);
layerId = "5843B4DD-419E-4583-B42F-98D06DF0D314";
paths = (
{
closed = 1;
nodes = (
"264 0 LINE",
"329 336 LINE",
"596 336 LINE",
"596 0 LINE",
"1109 0 LINE",
"1109 172 LINE",
"803 172 LINE",
"803 812 LINE",
"1088 812 LINE",
"1088 986 LINE",
"803 986 LINE",
"803 1588 LINE",
"1105 1588 LINE",
"1105 1760 LINE",
"419 1760 LINE",
"66 0 LINE"
);
},
{
closed = 1;
nodes = (
"570 1589 LINE",
"596 1590 LINE",
"596 497 LINE",
"359 497 LINE"
);
}
);
userData = {
com.fontlab.hintData = {
hhints = (
{
position = 0;
width = 172;
},
{
position = 336;
width = 161;
},
{
position = 812;
width = 174;
},
{
position = 1588;
width = 172;
}
);
vhints = (
{
position = 596;
width = 207;
}
);
};
};
width = 1190;
},
{
anchors = (
{
name = bottom;
position = "{623, 0}";
},
{
name = top;
position = "{623, 1760}";
}
);
layerId = "AF5BFB92-B2A0-4267-9185-576C8CF6314E";
paths = (
{
closed = 1;
nodes = (
"312 0 LINE",
"366 314 LINE",
"606 314 LINE",
"606 0 LINE",
"1164 0 LINE",
"1164 231 LINE",
"874 231 LINE",
"874 785 LINE",
"1136 785 LINE",
"1136 1017 LINE",
"874 1017 LINE",
"874 1529 LINE",
"1152 1529 LINE",
"1152 1760 LINE",
"366 1760 LINE",
"52 0 LINE"
);
},
{
closed = 1;
nodes = (
"571 1529 LINE",
"606 1530 LINE",
"606 512 LINE",
"396 512 LINE"
);
}
);
userData = {
com.fontlab.hintData = {
hhints = (
{
position = 0;
width = 231;
},
{
position = 314;
width = 198;
},
{
position = 785;
width = 232;
},
{
position = 1529;
width = 231;
}
);
vhints = (
{
position = 606;
width = 268;
}
);
};
};
width = 1230;
}
);
leftKerningGroup = AE;
rightKerningGroup = E;
rightMetricsKey = E;
unicode = 00C6;
},
{
glyphname = B;
lastChange = "2021-03-12 11:27:03 +0000";
layers = (
{
anchors = (
{
name = bottom;
position = "{434, 0}";
},
{
name = top;
position = "{434, 1760}";
}
);
layerId = master01;
paths = (
{
closed = 1;
nodes = (
"468 0 LINE SMOOTH",
"712 0 OFFCURVE",
"770 152 OFFCURVE",
"775 487 CURVE",
"775 518 LINE SMOOTH",
"775 712 OFFCURVE",
"751 892 OFFCURVE",
"638 947 CURVE",
"736 1011 OFFCURVE",
"751 1136 OFFCURVE",
"751 1343 CURVE SMOOTH",
"751 1366 LINE",
"748 1647 OFFCURVE",
"697 1760 OFFCURVE",
"423 1760 CURVE SMOOTH",
"166 1760 LINE",
"166 0 LINE"
);
},
{
closed = 1;
nodes = (
"315 884 LINE",
"476 884 LINE SMOOTH",
"599 884 OFFCURVE",
"625 785 OFFCURVE",
"626 536 CURVE",
"625.978 520.332 LINE",
"625.087 211.2 OFFCURVE",
"596.932 128 OFFCURVE",
"473 128 CURVE SMOOTH",
"315 128 LINE"
);
},
{
closed = 1;
nodes = (
"315 1629 LINE",
"427 1629 LINE SMOOTH",
"553 1629 OFFCURVE",
"600 1597 OFFCURVE",
"602 1349 CURVE",
"601.984 1334.98 LINE",
"601.276 1024.39 OFFCURVE",
"576.113 1004 OFFCURVE",
"449 1004 CURVE SMOOTH",
"315 1004 LINE"
);
}
);
userData = {
com.fontlab.hintData = {
hhints = (
{
position = 0;
width = 128;
},
{
position = 884;
width = 120;
},
{
position = 1629;
width = 131;
}
);
vhints = (
{
position = 166;
width = 149;
},
{
position = 602;
width = 149;
},
{
position = 626;
width = 149;
}
);
};
};
width = 868;
},
{
anchors = (
{
name = bottom;
position = "{459, 0}";
},
{
name = top;
position = "{459, 1760}";
}
);
layerId = "5843B4DD-419E-4583-B42F-98D06DF0D314";
paths = (
{
closed = 1;
nodes = (
"488 0 LINE SMOOTH",
"747 0 OFFCURVE",
"831 149 OFFCURVE",
"835 493 CURVE",
"835 530 LINE SMOOTH",
"835 730 OFFCURVE",
"798 902 OFFCURVE",
"673 953 CURVE",
"777 1008 OFFCURVE",
"806 1130 OFFCURVE",
"806 1326 CURVE SMOOTH",
"806 1364 LINE",
"804 1647 OFFCURVE",
"731 1760 OFFCURVE",
"462 1760 CURVE SMOOTH",
"144 1760 LINE",
"144 0 LINE"
);
},
{
closed = 1;
nodes = (
"351 866 LINE",
"489 866 LINE SMOOTH",
"603 866 OFFCURVE",
"627 777 OFFCURVE",
"627 560 CURVE SMOOTH",
"627 499 LINE SMOOTH",
"627 241 OFFCURVE",
"595 167 OFFCURVE",
"478 167 CURVE SMOOTH",
"351 167 LINE"
);
},
{
closed = 1;
nodes = (
"351 1591 LINE",
"453 1591 LINE SMOOTH",
"559 1591 OFFCURVE",
"600 1560 OFFCURVE",
"601 1361 CURVE",
"601 1312 LINE SMOOTH",
"601 1057 OFFCURVE",
"580 1025 OFFCURVE",
"468 1025 CURVE SMOOTH",
"351 1025 LINE"
);
}
);
userData = {
com.fontlab.hintData = {
hhints = (
{
position = 0;
width = 167;
},
{
position = 866;
width = 159;
},
{
position = 1591;
width = 169;
}
);
vhints = (
{
position = 144;
width = 207;
},
{
position = 601;
width = 205;
},
{
position = 627;
width = 208;
}
);
};
};
width = 917;
},
{
anchors = (
{
name = bottom;
position = "{492, 0}";
},
{
name = top;
position = "{492, 1760}";
}
);
layerId = "AF5BFB92-B2A0-4267-9185-576C8CF6314E";
paths = (
{
closed = 1;
nodes = (
"521 0 LINE SMOOTH",
"795 0 OFFCURVE",
"907 146 OFFCURVE",
"909 499 CURVE",
"909 544 LINE SMOOTH",
"909 748 OFFCURVE",
"859 913 OFFCURVE",
"721 959 CURVE",
"832 1005 OFFCURVE",
"875 1125 OFFCURVE",
"875 1308 CURVE SMOOTH",
"875 1362 LINE",
"874 1646 OFFCURVE",
"778 1760 OFFCURVE",
"513 1760 CURVE SMOOTH",
"132 1760 LINE",
"132 0 LINE"
);
},
{
closed = 1;
nodes = (
"400 847 LINE",
"513 847 LINE SMOOTH",
"615 847 OFFCURVE",
"639 773 OFFCURVE",
"639 602 CURVE SMOOTH",
"639 460 LINE SMOOTH",
"639 270 OFFCURVE",
"601 208 OFFCURVE",
"495 208 CURVE SMOOTH",
"400 208 LINE"
);
},
{
closed = 1;
nodes = (
"400 1550 LINE",
"490 1550 LINE SMOOTH",
"574 1550 OFFCURVE",
"610 1521 OFFCURVE",
"611 1379 CURVE",
"611 1273 LINE SMOOTH",
"611 1092 OFFCURVE",
"592 1048 OFFCURVE",
"499 1048 CURVE SMOOTH",
"400 1048 LINE"
);
}
);
userData = {
com.fontlab.hintData = {
hhints = (
{
position = 0;
width = 208;
},
{
position = 847;
width = 201;
},
{
position = 1550;
width = 210;
}
);
vhints = (
{
position = 132;
width = 268;
},
{
position = 611;
width = 264;
},
{
position = 639;
width = 270;
}
);
};
};
width = 984;
}
);
rightKerningGroup = B;
unicode = 0042;
},
{
glyphname = C;
lastChange = "2021-03-12 11:27:14 +0000";
layers = (
{
anchors = (
{
name = bottom;
position = "{434, 0}";
},
{
name = top;
position = "{434, 1760}";
}
);
layerId = master01;
paths = (
{
closed = 1;
nodes = (
"704 -20 OFFCURVE",
"750 183 OFFCURVE",
"750 552 CURVE SMOOTH",
"750 692 LINE",
"600 692 LINE",
"600 551 LINE SMOOTH",
"600 228 OFFCURVE",
"577 102 OFFCURVE",
"447 102 CURVE SMOOTH",
"311 102 OFFCURVE",
"285 227 OFFCURVE",
"285 552 CURVE SMOOTH",
"285 1258 LINE SMOOTH",
"285 1520 OFFCURVE",
"320 1658 OFFCURVE",
"453 1658 CURVE SMOOTH",
"582 1658 OFFCURVE",
"600 1518 OFFCURVE",
"600 1257 CURVE SMOOTH",
"600 1087 LINE",
"751 1087 LINE",
"751 1239 LINE SMOOTH",
"751 1545 OFFCURVE",
"739 1783 OFFCURVE",
"454 1783 CURVE SMOOTH",
"174 1783 OFFCURVE",
"136 1550 OFFCURVE",
"136 1251 CURVE SMOOTH",
"136 550 LINE SMOOTH",
"136 180 OFFCURVE",
"190 -20 OFFCURVE",
"448 -20 CURVE SMOOTH"
);
}
);
userData = {
com.fontlab.hintData = {
hhints = (
{
position = -20;
width = 122;
},
{
position = 1658;
width = 125;
}
);
vhints = (
{
position = 136;
width = 149;
},
{
position = 600;
width = 151;
}
);
};
};
width = 868;
},
{
anchors = (
{
name = bottom;
position = "{459, 0}";
},
{
name = top;
position = "{459, 1760}";
}
);
layerId = "5843B4DD-419E-4583-B42F-98D06DF0D314";
paths = (
{
closed = 1;
nodes = (
"733 -21 OFFCURVE",
"811 165 OFFCURVE",
"811 517 CURVE SMOOTH",
"811 710 LINE",
"606 710 LINE",
"606 515 LINE SMOOTH",
"606 259 OFFCURVE",
"582 155 OFFCURVE",
"471 155 CURVE SMOOTH",
"357 155 OFFCURVE",
"331 257 OFFCURVE",
"331 514 CURVE SMOOTH",
"331 1276 LINE SMOOTH",
"331 1488 OFFCURVE",
"361 1602 OFFCURVE",
"477 1602 CURVE SMOOTH",
"586 1602 OFFCURVE",
"606 1494 OFFCURVE",
"606 1275 CURVE SMOOTH",
"606 1079 LINE",
"809 1079 LINE",
"809 1274 LINE SMOOTH",
"809 1572 OFFCURVE",
"752 1779 OFFCURVE",
"477 1779 CURVE SMOOTH",
"190 1779 OFFCURVE",
"124 1562 OFFCURVE",
"124 1252 CURVE SMOOTH",
"124 519 LINE SMOOTH",
"124 172 OFFCURVE",
"213 -21 OFFCURVE",
"470 -21 CURVE SMOOTH"
);
}
);
userData = {
com.fontlab.hintData = {
hhints = (
{
position = -21;
width = 176;
},
{
position = 1602;
width = 177;
}
);
vhints = (
{
position = 124;
width = 207;
},
{
position = 606;
width = 203;
}
);
};
};
width = 918;
},
{
anchors = (
{
name = bottom;
position = "{485, 0}";
},
{
name = top;
position = "{485, 1760}";
}
);
layerId = "AF5BFB92-B2A0-4267-9185-576C8CF6314E";
paths = (
{
closed = 1;
nodes = (
"763 -20 OFFCURVE",
"875 145 OFFCURVE",
"875 480 CURVE SMOOTH",
"875 729 LINE",
"612 729 LINE",
"612 477 LINE SMOOTH",
"612 292 OFFCURVE",
"586 210 OFFCURVE",
"496 210 CURVE SMOOTH",
"406 210 OFFCURVE",
"380 290 OFFCURVE",
"380 474 CURVE SMOOTH",
"380 1296 LINE SMOOTH",
"380 1454 OFFCURVE",
"404 1548 OFFCURVE",
"502 1548 CURVE SMOOTH",
"590 1548 OFFCURVE",
"612 1468 OFFCURVE",
"612 1295 CURVE SMOOTH",
"612 1070 LINE",
"871 1070 LINE",
"871 1312 LINE SMOOTH",
"871 1601 OFFCURVE",
"766 1780 OFFCURVE",
"500 1780 CURVE SMOOTH",
"206 1780 OFFCURVE",
"110 1575 OFFCURVE",
"110 1253 CURVE SMOOTH",
"110 486 LINE SMOOTH",
"110 163 OFFCURVE",
"237 -20 OFFCURVE",
"493 -20 CURVE SMOOTH"
);
}
);
userData = {
com.fontlab.hintData = {
hhints = (
{
position = -20;
width = 230;
},
{
position = 1548;
width = 232;
}
);
vhints = (
{
position = 110;
width = 270;
},
{
position = 612;
width = 263;
}
);
};
};
width = 969;
}
);
leftKerningGroup = O;
rightKerningGroup = O;
unicode = 0043;
},
{
glyphname = D;
lastChange = "2021-03-12 11:27:19 +0000";
layers = (
{
anchors = (
{
name = bottom;
position = "{457, 0}";
},
{
name = center;
position = "{267, 880}";
},
{
name = top;
position = "{427, 1760}";
}
);
layerId = master01;
paths = (
{
closed = 1;
nodes = (
"431 0 LINE SMOOTH",
"686 0 OFFCURVE",
"778 138 OFFCURVE",
"778 504 CURVE SMOOTH",
"778 1258 LINE SMOOTH",
"778 1564 OFFCURVE",
"722 1760 OFFCURVE",
"437 1760 CURVE SMOOTH",
"166 1760 LINE",
"166 0 LINE"
);
},
{
closed = 1;
nodes = (
"314 1636 LINE",
"446 1636 LINE SMOOTH",
"570 1636 OFFCURVE",
"629 1534 OFFCURVE",
"629 1274 CURVE SMOOTH",
"629 519 LINE SMOOTH",
"629 194 OFFCURVE",
"566 128 OFFCURVE",
"437 128 CURVE SMOOTH",
"314 128 LINE"
);
}
);
userData = {
com.fontlab.hintData = {
hhints = (
{
position = 0;
width = 128;
},
{
position = 1636;
width = 124;
}
);
vhints = (
{
position = 166;
width = 148;
},
{
position = 629;
width = 149;
}
);
};
};
width = 914;
},
{
anchors = (
{
name = bottom;
position = "{477, 0}";
},
{
name = center;
position = "{287, 880}";
},
{
name = top;
position = "{437, 1760}";
}
);
layerId = "5843B4DD-419E-4583-B42F-98D06DF0D314";
paths = (
{
closed = 1;
nodes = (
"468 0 LINE SMOOTH",
"732 0 OFFCURVE",
"830 152 OFFCURVE",
"830 509 CURVE SMOOTH",
"829 1282 LINE SMOOTH",
"829 1579 OFFCURVE",
"751 1760 OFFCURVE",
"475 1760 CURVE SMOOTH",
"144 1760 LINE",
"144 0 LINE"
);
},
{
closed = 1;
nodes = (
"350 1596 LINE",
"456 1596 LINE SMOOTH",
"574 1596 OFFCURVE",
"623 1508 OFFCURVE",
"623 1287 CURVE SMOOTH",
"623 477 LINE SMOOTH",
"623 223 OFFCURVE",
"568 167 OFFCURVE",
"456 167 CURVE SMOOTH",
"350 167 LINE"
);
}
);
userData = {
com.fontlab.hintData = {
hhints = (
{
position = 0;
width = 167;
},
{
position = 1596;
width = 164;
}
);
vhints = (
{
position = 144;
width = 206;
},
{
position = 623;
width = 207;
}
);
};
};
width = 954;
},
{
anchors = (
{
name = bottom;
position = "{504, 0}";
},
{
name = center;
position = "{284, 880}";
},
{
name = top;
position = "{474, 1760}";
}
);
layerId = "AF5BFB92-B2A0-4267-9185-576C8CF6314E";
paths = (
{
closed = 1;
nodes = (
"518 0 LINE SMOOTH",
"794 0 OFFCURVE",
"897 167 OFFCURVE",
"897 514 CURVE SMOOTH",
"896 1308 LINE SMOOTH",
"896 1594 OFFCURVE",
"794 1760 OFFCURVE",
"527 1760 CURVE SMOOTH",
"132 1760 LINE",
"132 0 LINE"
);
},
{
closed = 1;
nodes = (
"400 1554 LINE",
"479 1554 LINE SMOOTH",
"590 1554 OFFCURVE",
"628 1481 OFFCURVE",
"628 1301 CURVE SMOOTH",
"629 432 LINE SMOOTH",
"629 254 OFFCURVE",
"582 208 OFFCURVE",
"488 208 CURVE SMOOTH",
"400 208 LINE"
);
}
);
userData = {
com.fontlab.hintData = {
hhints = (
{
position = 0;
width = 208;
},
{
position = 1554;
width = 206;
}
);
vhints = (
{
position = 132;
width = 268;
},
{
position = 629;
width = 268;
}
);
};
};
width = 1008;
}
);
rightKerningGroup = O;
unicode = 0044;
},
{
glyphname = E;
lastChange = "2021-03-12 11:27:24 +0000";
layers = (
{
anchors = (
{
name = bottom;
position = "{358, 0}";
},
{
name = ogonek;
position = "{558, 0}";
},
{
name = top;
position = "{398, 1760}";
},
{
name = topleft;
position = "{20, 1760}";
}
);
layerId = master01;
paths = (
{
closed = 1;
nodes = (
"628 0 LINE",
"628 118 LINE",
"315 118 LINE",
"315 835 LINE",
"612 835 LINE",
"612 956 LINE",
"315 956 LINE",
"315 1644 LINE",
"631 1644 LINE",
"631 1760 LINE",
"166 1760 LINE",
"166 0 LINE"
);
}
);
userData = {
com.fontlab.hintData = {
hhints = (
{
position = 0;
width = 118;
},
{
position = 835;
width = 121;
},
{
position = 1644;
width = 116;
}
);
vhints = (
{
position = 166;
width = 149;
}
);
};
};
width = 716;
},
{
anchors = (
{
name = bottom;
position = "{378, 0}";
},
{
name = ogonek;
position = "{584, 0}";
},
{
name = top;
position = "{404, 1760}";
},
{
name = topleft;
position = "{20, 1760}";
}
);
layerId = "5843B4DD-419E-4583-B42F-98D06DF0D314";
paths = (
{
closed = 1;
nodes = (
"674 0 LINE",
"674 172 LINE",
"351 172 LINE",
"351 814 LINE",
"653 814 LINE",
"653 986 LINE",
"351 986 LINE",
"351 1588 LINE",
"670 1588 LINE",
"670 1760 LINE",
"144 1760 LINE",
"144 0 LINE"
);
}
);
userData = {
com.fontlab.hintData = {
hhints = (
{
position = 0;
width = 172;
},
{
position = 814;
width = 172;
},
{
position = 1588;
width = 172;
}
);
vhints = (
{
position = 144;
width = 530;
},
{
position = 144;
width = 207;
}
);
};
};
width = 755;
},
{
anchors = (
{
name = bottom;
position = "{400, 0}";
},
{
name = ogonek;
position = "{620, 0}";
},
{
name = top;
position = "{420, 1760}";
},
{
name = topleft;
position = "{20, 1760}";
}
);
layerId = "AF5BFB92-B2A0-4267-9185-576C8CF6314E";
paths = (
{
closed = 1;
nodes = (
"734 0 LINE",
"734 231 LINE",
"400 231 LINE",
"400 791 LINE",
"706 791 LINE",
"706 1017 LINE",
"400 1017 LINE",
"400 1529 LINE",
"722 1529 LINE",
"722 1760 LINE",
"132 1760 LINE",
"132 0 LINE"
);
}
);
userData = {
com.fontlab.hintData = {
hhints = (
{
position = 0;
width = 231;
},
{
position = 791;
width = 226;
},
{
position = 1529;
width = 231;
}
);
vhints = (
{
position = 132;
width = 602;
},
{
position = 132;
width = 268;
}
);
};
};
width = 800;
}
);
rightKerningGroup = E;
unicode = 0045;
},
{
glyphname = F;
lastChange = "2021-03-12 11:27:28 +0000";
layers = (
{
anchors = (
{
name = bottom;
position = "{348, 0}";
},
{
name = top;
position = "{398, 1760}";
}
);
layerId = master01;
paths = (
{
closed = 1;
nodes = (
"314 0 LINE",
"314 886 LINE",
"611 886 LINE",
"611 1005 LINE",
"314 1005 LINE",
"314 1644 LINE",
"628 1644 LINE",
"628 1760 LINE",
"166 1760 LINE",
"166 0 LINE"
);
}
);
userData = {
com.fontlab.hintData = {
hhints = (
{
position = 0;
width = 21;
},
{
position = 886;
width = 119;
},
{
position = 1644;
width = 116;
}
);
vhints = (
{
position = 166;
width = 148;
}
);
};
};
width = 695;
},
{
anchors = (
{
name = bottom;
position = "{374, 0}";
},
{
name = top;
position = "{414, 1760}";
}
);
layerId = "5843B4DD-419E-4583-B42F-98D06DF0D314";
paths = (
{
closed = 1;
nodes = (
"350 0 LINE",
"350 856 LINE",
"654 856 LINE",
"654 1031 LINE",
"350 1031 LINE",
"350 1587 LINE",
"674 1587 LINE",
"674 1760 LINE",
"144 1760 LINE",
"144 0 LINE"
);
}
);
userData = {
com.fontlab.hintData = {
hhints = (
{
position = 0;
width = 21;
},
{
position = 856;
width = 175;
},
{
position = 1587;
width = 173;
}
);
vhints = (
{
position = 144;
width = 206;
}
);
};
};
width = 747;
},
{
anchors = (
{
name = bottom;
position = "{396, 0}";
},
{
name = top;
position = "{426, 1760}";
}
);
layerId = "AF5BFB92-B2A0-4267-9185-576C8CF6314E";
paths = (
{
closed = 1;
nodes = (
"400 0 LINE",
"400 825 LINE",
"712 825 LINE",
"712 1059 LINE",
"400 1059 LINE",
"400 1527 LINE",
"736 1527 LINE",
"736 1760 LINE",
"132 1760 LINE",
"132 0 LINE"
);
}
);
userData = {
com.fontlab.hintData = {
hhints = (
{
position = 0;
width = 21;
},
{
position = 825;
width = 234;
},
{
position = 1527;
width = 233;
}
);
vhints = (
{
position = 132;
width = 268;
}
);
};
};
width = 791;
}
);
rightKerningGroup = F;
unicode = 0046;
},
{
glyphname = G;
lastChange = "2021-03-12 11:27:34 +0000";
layers = (
{
anchors = (
{
name = bottom;
position = "{445, 0}";
},
{
name = top;
position = "{445, 1760}";
}
);
layerId = master01;
paths = (
{
closed = 1;
nodes = (
"528 -20 OFFCURVE",
"588 23 OFFCURVE",
"635 102 CURVE",
"651 0 LINE",
"749 0 LINE",
"749 890 LINE",
"450 890 LINE",
"450 763 LINE",
"601 763 LINE",
"601 541 LINE SMOOTH",
"601 226 OFFCURVE",
"572 102 OFFCURVE",
"445 102 CURVE SMOOTH",
"312 102 OFFCURVE",
"285 225 OFFCURVE",
"285 543 CURVE SMOOTH",
"285 1261 LINE SMOOTH",
"285 1551 OFFCURVE",
"325 1658 OFFCURVE",
"451 1658 CURVE SMOOTH",
"573 1658 OFFCURVE",
"597 1555 OFFCURVE",
"597 1372 CURVE SMOOTH",
"597 1100 LINE",
"749 1100 LINE",
"749 1247 LINE SMOOTH",
"749 1547 OFFCURVE",
"732 1783 OFFCURVE",
"456 1783 CURVE SMOOTH",
"174 1783 OFFCURVE",
"136 1546 OFFCURVE",
"136 1245 CURVE SMOOTH",
"136 532 LINE SMOOTH",
"136 139 OFFCURVE",
"223 -20 OFFCURVE",
"419 -20 CURVE SMOOTH"
);
}
);
userData = {
com.fontlab.hintData = {
hhints = (
{
position = -20;
width = 122;
},
{
position = 1658;
width = 125;
}
);
vhints = (
{
position = 136;
width = 149;
},
{
position = 601;
width = 148;
},
{
position = 651;
width = 98;
}
);
};
};
width = 890;
},
{
anchors = (
{
name = bottom;
position = "{470, 0}";
},
{
name = top;
position = "{470, 1760}";
}
);
layerId = "5843B4DD-419E-4583-B42F-98D06DF0D314";
paths = (
{
closed = 1;
nodes = (
"556 -17 OFFCURVE",
"638 37 OFFCURVE",
"676 136 CURVE",
"704 0 LINE",
"813 0 LINE",
"813 924 LINE",
"480 924 LINE",
"480 764 LINE",
"623 764 LINE",
"623 535 LINE SMOOTH",
"623 261 OFFCURVE",
"590 155 OFFCURVE",
"476 155 CURVE SMOOTH",
"356 155 OFFCURVE",
"331 261 OFFCURVE",
"331 531 CURVE SMOOTH",
"331 1271 LINE SMOOTH",
"331 1517 OFFCURVE",
"368 1602 OFFCURVE",
"482 1602 CURVE SMOOTH",
"588 1602 OFFCURVE",
"613 1522 OFFCURVE",
"613 1351 CURVE SMOOTH",
"613 1122 LINE",
"813 1122 LINE",
"813 1258 LINE SMOOTH",
"813 1568 OFFCURVE",
"774 1779 OFFCURVE",
"482 1779 CURVE SMOOTH",
"199 1779 OFFCURVE",
"124 1570 OFFCURVE",
"124 1262 CURVE SMOOTH",
"124 524 LINE SMOOTH",
"124 139 OFFCURVE",
"237 -17 OFFCURVE",
"441 -17 CURVE SMOOTH"
);
}
);
userData = {
com.fontlab.hintData = {
hhints = (
{
position = -17;
width = 172;
},
{
position = 0;
width = 21;
},
{
position = 764;
width = 160;
},
{
position = 1602;
width = 177;
}
);
vhints = (
{
position = 124;
width = 207;
},
{
position = 623;
width = 190;
},
{
position = 704;
width = 109;
}
);
};
};
width = 939;
},
{
anchors = (
{
name = bottom;
position = "{500, 0}";
},
{
name = top;
position = "{500, 1760}";
}
);
layerId = "AF5BFB92-B2A0-4267-9185-576C8CF6314E";
paths = (
{
closed = 1;
nodes = (
"584 -18 OFFCURVE",
"690 52 OFFCURVE",
"719 173 CURVE",
"760 0 LINE",
"880 0 LINE",
"880 961 LINE",
"511 961 LINE",
"511 766 LINE",
"646 766 LINE",
"646 529 LINE SMOOTH",
"646 299 OFFCURVE",
"608 210 OFFCURVE",
"507 210 CURVE SMOOTH",
"403 210 OFFCURVE",
"380 298 OFFCURVE",
"380 519 CURVE SMOOTH",
"380 1282 LINE SMOOTH",
"380 1481 OFFCURVE",
"413 1548 OFFCURVE",
"513 1548 CURVE SMOOTH",
"603 1548 OFFCURVE",
"630 1487 OFFCURVE",
"630 1329 CURVE SMOOTH",
"630 1145 LINE",
"880 1145 LINE",
"880 1270 LINE SMOOTH",
"880 1591 OFFCURVE",
"818 1780 OFFCURVE",
"509 1780 CURVE SMOOTH",
"224 1780 OFFCURVE",
"110 1595 OFFCURVE",
"110 1280 CURVE SMOOTH",
"110 515 LINE SMOOTH",
"110 139 OFFCURVE",
"251 -18 OFFCURVE",
"463 -18 CURVE SMOOTH"
);
}
);
userData = {
com.fontlab.hintData = {
hhints = (
{
position = -18;
width = 228;
},
{
position = 0;
width = 21;
},
{
position = 766;
width = 195;
},
{
position = 1548;
width = 232;
}
);
vhints = (
{
position = 110;
width = 270;
},
{
position = 511;
width = 369;
},
{
position = 630;
width = 250;
},
{
position = 646;
width = 234;
},
{
position = 760;
width = 120;
}
);
};
};
width = 1000;
}
);
leftKerningGroup = O;
rightKerningGroup = G;
unicode = 0047;
},
{
glyphname = H;
lastChange = "2021-02-19 12:19:10 +0000";
layers = (
{
anchors = (
{
name = bottom;
position = "{476, 0}";
},
{
name = center;
position = "{476, 880}";
},
{
name = top;
position = "{476, 1760}";
},
{
name = topleft;
position = "{20, 1760}";
}
);
layerId = master01;
paths = (
{
closed = 1;
nodes = (
"315 0 LINE",
"315 886 LINE",
"637 886 LINE",
"637 0 LINE",
"786 0 LINE",
"786 1760 LINE",
"637 1760 LINE",
"637 998 LINE",
"315 998 LINE",
"315 1760 LINE",
"166 1760 LINE",
"166 0 LINE"
);
}
);
userData = {
com.fontlab.hintData = {
hhints = (
{
position = 0;
width = 21;
},
{
position = 886;
width = 112;
},
{
position = 1740;
width = 20;
}
);
vhints = (
{
position = 166;
width = 149;
},
{
position = 637;
width = 149;
}
);
};
};
width = 952;
},
{
anchors = (
{
name = bottom;
position = "{492, 0}";
},
{
name = center;
position = "{492, 880}";
},
{
name = top;
position = "{492, 1760}";
},
{
name = topleft;
position = "{20, 1760}";
}
);
layerId = "5843B4DD-419E-4583-B42F-98D06DF0D314";
paths = (
{
closed = 1;
nodes = (
"351 0 LINE",
"351 838 LINE",
"633 838 LINE",
"633 0 LINE",
"840 0 LINE",
"840 1760 LINE",
"633 1760 LINE",
"633 1007 LINE",
"351 1007 LINE",
"351 1760 LINE",
"144 1760 LINE",
"144 0 LINE"
);
}
);
userData = {
com.fontlab.hintData = {
hhints = (
{
position = 0;
width = 21;
},
{
position = 838;
width = 169;
},
{
position = 1740;
width = 20;
}
);
vhints = (
{
position = 144;
width = 207;
},
{
position = 633;
width = 207;
}
);
};
};
width = 984;
},
{
anchors = (
{
name = bottom;
position = "{520, 0}";
},
{
name = center;
position = "{520, 880}";
},
{
name = top;
position = "{520, 1760}";
},
{
name = topleft;
position = "{20, 1760}";
}
);
layerId = "AF5BFB92-B2A0-4267-9185-576C8CF6314E";
paths = (
{
closed = 1;
nodes = (
"400 0 LINE",
"400 818 LINE",
"640 818 LINE",
"640 0 LINE",
"908 0 LINE",
"908 1760 LINE",
"640 1760 LINE",
"640 1048 LINE",
"400 1048 LINE",
"400 1760 LINE",
"132 1760 LINE",
"132 0 LINE"
);
}
);
userData = {
com.fontlab.hintData = {
hhints = (
{
position = 0;
width = 21;
},
{
position = 818;
width = 230;
},
{
position = 1740;
width = 20;
}
);
vhints = (
{
position = 132;
width = 268;
},
{
position = 640;
width = 268;
}
);
};
};
width = 1040;
}
);
unicode = 0048;
},
{
glyphname = Hbar;
lastChange = "2021-02-19 12:57:44 +0000";
layers = (
{
anchors = (
{
name = bottom;
position = "{476, 0}";
},
{
name = center;
position = "{476, 880}";
},
{
name = top;
position = "{476, 1760}";
},
{
name = topleft;
position = "{20, 1760}";
}
);
layerId = master01;
paths = (
{
closed = 1;
nodes = (
"900 1416 LINE",
"900 1500 LINE",
"55 1500 LINE",
"55 1416 LINE"
);
},
{
closed = 1;
nodes = (
"315 0 LINE",
"315 886 LINE",
"637 886 LINE",
"637 0 LINE",
"786 0 LINE",
"786 1760 LINE",
"637 1760 LINE",
"637 998 LINE",
"315 998 LINE",
"315 1760 LINE",
"166 1760 LINE",
"166 0 LINE"
);
}
);
userData = {
com.fontlab.hintData = {
hhints = (
{
position = 0;
width = 21;
},
{
position = 886;
width = 112;
},
{
position = 1740;
width = 20;
}
);
vhints = (
{
position = 166;
width = 149;
},
{
position = 637;
width = 149;
}
);
};
};
width = 932;
},
{
anchors = (
{
name = bottom;
position = "{492, 0}";
},
{
name = center;
position = "{492, 880}";
},
{
name = top;
position = "{492, 1760}";
},
{
name = topleft;
position = "{20, 1760}";
}
);
layerId = "5843B4DD-419E-4583-B42F-98D06DF0D314";
paths = (
{
closed = 1;
nodes = (
"951 1398 LINE",
"951 1504 LINE",
"55 1504 LINE",
"55 1398 LINE"
);
},
{
closed = 1;
nodes = (
"351 0 LINE",
"351 838 LINE",
"633 838 LINE",
"633 0 LINE",
"840 0 LINE",
"840 1760 LINE",
"633 1760 LINE",
"633 1007 LINE",
"351 1007 LINE",
"351 1760 LINE",
"144 1760 LINE",
"144 0 LINE"
);
}
);
userData = {
com.fontlab.hintData = {
hhints = (
{
position = 0;
width = 21;
},
{
position = 838;
width = 169;
},
{
position = 1398;
width = 106;
},
{
position = 1740;
width = 20;
}
);
vhints = (
{
position = 144;
width = 207;
},
{
position = 633;
width = 207;
}
);
};
};
width = 984;
},
{
anchors = (
{
name = bottom;
position = "{520, 0}";
},
{
name = center;
position = "{520, 880}";
},
{
name = top;
position = "{520, 1760}";
},
{
name = topleft;
position = "{20, 1760}";
}
);
layerId = "AF5BFB92-B2A0-4267-9185-576C8CF6314E";
paths = (
{
closed = 1;
nodes = (
"1005 1378 LINE",
"1005 1509 LINE",
"55 1509 LINE",
"55 1378 LINE"
);
},
{
closed = 1;
nodes = (
"400 0 LINE",
"400 818 LINE",
"640 818 LINE",
"640 0 LINE",
"908 0 LINE",
"908 1760 LINE",
"640 1760 LINE",
"640 1048 LINE",
"400 1048 LINE",
"400 1760 LINE",
"132 1760 LINE",
"132 0 LINE"
);
}
);
userData = {
com.fontlab.hintData = {
hhints = (
{
position = 0;
width = 21;
},
{
position = 818;
width = 230;
},
{
position = 1378;
width = 131;
},
{
position = 1740;
width = 20;
}
);
vhints = (
{
position = 132;
width = 268;
},
{
position = 640;
width = 268;
}
);
};
};
width = 1040;
}
);
unicode = 0126;
},
{
glyphname = I;
lastChange = "2021-02-19 12:22:12 +0000";
layers = (
{
anchors = (
{
name = bottom;
position = "{243, 0}";
},
{
name = ogonek;
position = "{257, 0}";
},
{
name = top;
position = "{243, 1760}";
},
{
name = topleft;
position = "{20, 1760}";
}
);
layerId = master01;
paths = (
{
closed = 1;
nodes = (
"317 0 LINE",
"317 1760 LINE",
"168 1760 LINE",
"168 0 LINE"
);
}
);
userData = {
com.fontlab.hintData = {
hhints = (
{
position = 0;
width = 21;
},
{
position = 1740;
width = 20;
}
);
vhints = (
{
position = 168;
width = 149;
}
);
};
};
width = 485;
},
{
anchors = (
{
name = bottom;
position = "{248, 0}";
},
{
name = ogonek;
position = "{261, 0}";
},
{
name = top;
position = "{248, 1760}";
},
{
name = topleft;
position = "{20, 1760}";
}
);
layerId = "5843B4DD-419E-4583-B42F-98D06DF0D314";
paths = (
{
closed = 1;
nodes = (
"351 0 LINE",
"351 1760 LINE",
"144 1760 LINE",
"144 0 LINE"
);
}
);
userData = {
com.fontlab.hintData = {
hhints = (
{
position = 0;
width = 21;
},
{
position = 1740;
width = 20;
}
);
vhints = (
{
position = 144;
width = 207;
}
);
};
};
width = 495;
},
{
anchors = (
{
name = bottom;
position = "{272, 0}";
},
{
name = ogonek;
position = "{286, 0}";
},
{
name = top;
position = "{272, 1760}";
},
{
name = topleft;
position = "{20, 1760}";
}
);
layerId = "AF5BFB92-B2A0-4267-9185-576C8CF6314E";
paths = (
{
closed = 1;
nodes = (
"405.5 0 LINE",
"405.5 1760 LINE",
"137.5 1760 LINE",
"137.5 0 LINE"
);
}
);
userData = {
com.fontlab.hintData = {
hhints = (
{
position = 0;
width = 21;
},
{
position = 1740;
width = 20;
}
);
vhints = (
{
position = 138;
width = 268;
}
);
};
};
width = 543;
}
);
unicode = 0049;
},
{
glyphname = J;
lastChange = "2021-03-12 12:16:56 +0000";
layers = (
{
anchors = (
{
name = bottom;
position = "{392, 0}";
},
{
name = top;
position = "{552, 1760}";
}
);
layerId = master01;
paths = (
{
closed = 1;
nodes = (
"556 -20 OFFCURVE",
"630 118 OFFCURVE",
"630 420 CURVE SMOOTH",
"630 1760 LINE",
"481 1760 LINE",
"481 418 LINE SMOOTH",
"481 234 OFFCURVE",
"487 102 OFFCURVE",
"355 102 CURVE SMOOTH",
"225 102 OFFCURVE",
"229 241 OFFCURVE",
"229 402 CURVE SMOOTH",
"229 540 LINE",
"78 540 LINE",
"78 389 LINE SMOOTH",
"78 112 OFFCURVE",
"144 -20 OFFCURVE",
"361 -20 CURVE SMOOTH"
);
}
);
userData = {
com.fontlab.hintData = {
hhints = (
{
position = -20;
width = 122;
},
{
position = 1740;
width = 20;
}
);
vhints = (
{
position = 78;
width = 151;
},
{
position = 481;
width = 149;
}
);
};
};
width = 784;
},
{
anchors = (
{
name = bottom;
position = "{438, 0}";
},
{
name = top;
position = "{618, 1760}";
}
);
layerId = "5843B4DD-419E-4583-B42F-98D06DF0D314";
paths = (
{
closed = 1;
nodes = (
"623 -21 OFFCURVE",
"726 130 OFFCURVE",
"726 426 CURVE SMOOTH",
"726 1760 LINE",
"519 1760 LINE",
"519 418 LINE SMOOTH",
"519 261 OFFCURVE",
"516 155 OFFCURVE",
"406 155 CURVE SMOOTH",
"296 155 OFFCURVE",
"292 268 OFFCURVE",
"292 402 CURVE SMOOTH",
"292 619 LINE",
"90 619 LINE",
"90 389 LINE SMOOTH",
"90 115 OFFCURVE",
"189 -21 OFFCURVE",
"412 -21 CURVE SMOOTH"
);
}
);
userData = {
com.fontlab.hintData = {
hhints = (
{
position = -21;
width = 176;
},
{
position = 1740;
width = 20;
}
);
vhints = (
{
position = 90;
width = 202;
},
{
position = 519;
width = 207;
}
);
};
};
width = 876;
},
{
anchors = (
{
name = bottom;
position = "{473, 0}";
},
{
name = top;
position = "{683, 1760}";
}
);
layerId = "AF5BFB92-B2A0-4267-9185-576C8CF6314E";
paths = (
{
closed = 1;
nodes = (
"674.5 -20 OFFCURVE",
"808.5 142 OFFCURVE",
"808.5 431 CURVE SMOOTH",
"808.5 1760 LINE",
"540.5 1760 LINE",
"540.5 418 LINE SMOOTH",
"540.5 290 OFFCURVE",
"528.5 210 OFFCURVE",
"440.5 210 CURVE SMOOTH",
"353.5 210 OFFCURVE",
"341.5 297 OFFCURVE",
"341.5 402 CURVE SMOOTH",
"341.5 703 LINE",
"82.5 703 LINE",
"82.5 389 LINE SMOOTH",
"82.5 119 OFFCURVE",
"218.5 -20 OFFCURVE",
"448.5 -20 CURVE SMOOTH"
);
}
);
userData = {
com.fontlab.hintData = {
hhints = (
{
position = -20;
width = 230;
},
{
position = 1740;
width = 20;
}
);
vhints = (
{
position = 82;
width = 259;
},
{
position = 540;
width = 268;
}
);
};
};
width = 946;
}
);
leftKerningGroup = J;
rightKerningGroup = J;
unicode = 004A;
},
{
glyphname = K;
lastChange = "2021-03-12 11:27:50 +0000";
layers = (
{
anchors = (
{
name = bottom;
position = "{467, 0}";
},
{
name = top;
position = "{467, 1760}";
}
);
layerId = master01;
paths = (
{
closed = 1;
nodes = (
"317 0 LINE",
"317 860 LINE",
"683 0 LINE",
"837 0 LINE",
"452 891 LINE",
"814 1760 LINE",
"670 1760 LINE",
"315 893 LINE",
"315 1760 LINE",
"166 1760 LINE",
"166 0 LINE"
);
}
);
userData = {
com.fontlab.hintData = {
hhints = (
{
position = 0;
width = 21;
},
{
position = 1740;
width = 20;
}
);
vhints = (
{
position = 166;
width = 149;
}
);
};
};
width = 854;
},
{
anchors = (
{
name = bottom;
position = "{495, 0}";
},
{
name = top;
position = "{495, 1760}";
}
);
layerId = "5843B4DD-419E-4583-B42F-98D06DF0D314";
paths = (
{
closed = 1;
nodes = (
"353 0 LINE",
"353 842 LINE",
"679 0 LINE",
"895 0 LINE",
"544 891 LINE",
"872 1760 LINE",
"664 1760 LINE",
"351 921 LINE",
"351 1760 LINE",
"144 1760 LINE",
"144 0 LINE"
);
}
);
userData = {
com.fontlab.hintData = {
hhints = (
{
position = 0;
width = 21;
},
{
position = 1740;
width = 20;
}
);
vhints = (
{
position = 144;
width = 209;
}
);
};
};
width = 909;
},
{
anchors = (
{
name = bottom;
position = "{521, 0}";
},
{
name = top;
position = "{521, 1760}";
}
);
layerId = "AF5BFB92-B2A0-4267-9185-576C8CF6314E";
paths = (
{
closed = 1;
nodes = (
"402 0 LINE",
"402 822 LINE",
"685 0 LINE",
"968 0 LINE",
"653 892 LINE",
"945 1760 LINE",
"668 1760 LINE",
"400 950 LINE",
"400 1760 LINE",
"132 1760 LINE",
"132 0 LINE"
);
}
);
userData = {
com.fontlab.hintData = {
hhints = (
{
position = 0;
width = 21;
},
{
position = 1740;
width = 20;
}
);
vhints = (
{
position = 132;
width = 270;
}
);
};
};
width = 981;
}
);
rightKerningGroup = K;
unicode = 004B;
},
{
glyphname = L;
lastChange = "2021-03-12 11:28:00 +0000";
layers = (
{
anchors = (
{
name = "#exit";
position = "{315, 1760}";
},
{
name = bottom;
position = "{382, 0}";
},
{
name = center;
position = "{322, 880}";
},
{
name = top;
position = "{252, 1760}";
},
{
name = topright;
position = "{623, 1760}";
}
);
layerId = master01;
paths = (
{
closed = 1;
nodes = (
"627 0 LINE",
"627 118 LINE",
"315 118 LINE",
"315 1760 LINE",
"166 1760 LINE",
"166 0 LINE"
);
}
);
userData = {
com.fontlab.hintData = {
hhints = (
{
position = 0;
width = 118;
},
{
position = 1740;
width = 20;
}
);
vhints = (
{
position = 166;
width = 149;
}
);
};
};
width = 643;
},
{
anchors = (
{
name = "#exit";
position = "{350, 1760}";
},
{
name = bottom;
position = "{398, 0}";
},
{
name = center;
position = "{348, 880}";
},
{
name = top;
position = "{258, 1760}";
},
{
name = topright;
position = "{675, 1760}";
}
);
layerId = "5843B4DD-419E-4583-B42F-98D06DF0D314";
paths = (
{
closed = 1;
nodes = (
"676 0 LINE",
"676 171 LINE",
"351 171 LINE",
"351 1760 LINE",
"144 1760 LINE",
"144 0 LINE"
);
}
);
userData = {
com.fontlab.hintData = {
hhints = (
{
position = 0;
width = 171;
},
{
position = 1740;
width = 20;
}
);
vhints = (
{
position = 144;
width = 207;
}
);
};
};
width = 695;
},
{
anchors = (
{
name = "#exit";
position = "{400, 1760}";
},
{
name = bottom;
position = "{416, 0}";
},
{
name = center;
position = "{376, 880}";
},
{
name = top;
position = "{296, 1760}";
},
{
name = topright;
position = "{732, 1760}";
}
);
layerId = "AF5BFB92-B2A0-4267-9185-576C8CF6314E";
paths = (
{
closed = 1;
nodes = (
"739 0 LINE",
"739 228 LINE",
"400 228 LINE",
"400 1760 LINE",
"132 1760 LINE",
"132 0 LINE"
);
}
);
userData = {
com.fontlab.hintData = {
hhints = (
{
position = 0;
width = 228;
},
{
position = 1740;
width = 20;
}
);
vhints = (
{
position = 132;
width = 268;
}
);
};
};
width = 752;
}
);
rightKerningGroup = L;
unicode = 004C;
},
{
glyphname = Lslash;
lastChange = "2021-02-19 12:57:44 +0000";
layers = (
{
anchors = (
{
name = bottom;
position = "{382, 0}";
},
{
name = center;
position = "{322, 880}";
},
{
name = top;
position = "{252, 1760}";
},
{
name = topright;
position = "{623, 1760}";
}
);
layerId = master01;
paths = (
{
closed = 1;
nodes = (
"497 1011 LINE",
"497 1133 LINE",
"-1 916 LINE",
"-1 794 LINE"
);
},
{
closed = 1;
nodes = (
"627 0 LINE",
"627 118 LINE",
"315 118 LINE",
"315 1760 LINE",
"166 1760 LINE",
"166 0 LINE"
);
}
);
userData = {
com.fontlab.hintData = {
hhints = (
{
position = 0;
width = 118;
},
{
position = 1740;
width = 20;
}
);
vhints = (
{
position = 166;
width = 149;
}
);
};
};
width = 705;
},
{
anchors = (
{
name = bottom;
position = "{398, 0}";
},
{
name = center;
position = "{348, 880}";
},
{
name = top;
position = "{258, 1760}";
},
{
name = topright;
position = "{675, 1760}";
}
);
layerId = "5843B4DD-419E-4583-B42F-98D06DF0D314";
paths = (
{
closed = 1;
nodes = (
"554 987 LINE",
"554 1139 LINE",
"-1 916 LINE",
"-1 764 LINE"
);
},
{
closed = 1;
nodes = (
"676 0 LINE",
"676 171 LINE",
"351 171 LINE",
"351 1760 LINE",
"144 1760 LINE",
"144 0 LINE"
);
}
);
userData = {
com.fontlab.hintData = {
hhints = (
{
position = 0;
width = 171;
},
{
position = 1740;
width = 20;
}
);
vhints = (
{
position = 144;
width = 207;
}
);
};
};
width = 748;
},
{
anchors = (
{
name = bottom;
position = "{416, 0}";
},
{
name = center;
position = "{376, 880}";
},
{
name = top;
position = "{296, 1760}";
},
{
name = topright;
position = "{732, 1760}";
}
);
layerId = "AF5BFB92-B2A0-4267-9185-576C8CF6314E";
paths = (
{
closed = 1;
nodes = (
"615 961 LINE",
"615 1145 LINE",
"-1 916 LINE",
"-1 732 LINE"
);
},
{
closed = 1;
nodes = (
"739 0 LINE",
"739 228 LINE",
"400 228 LINE",
"400 1760 LINE",
"132 1760 LINE",
"132 0 LINE"
);
}
);
userData = {
com.fontlab.hintData = {
hhints = (
{
position = 0;
width = 228;
},
{
position = 1740;
width = 20;
}
);
vhints = (
{
position = 132;
width = 268;
}
);
};
};
width = 794;
}
);
unicode = 0141;
},
{
glyphname = M;
lastChange = "2021-02-19 12:19:10 +0000";
layers = (
{
anchors = (
{
name = bottom;
position = "{602, 0}";
},
{
name = top;
position = "{602, 1760}";
}
);
layerId = master01;
paths = (
{
closed = 1;
nodes = (
"302 0 LINE",
"302 754 LINE",
"279 1463 LINE",
"539 38 LINE",
"681 38 LINE",
"932 1463 LINE",
"909 754 LINE",
"909 0 LINE",
"1044 0 LINE",
"1044 1760 LINE",
"877 1760 LINE",
"610 282 LINE",
"333 1760 LINE",
"166 1760 LINE",
"166 0 LINE"
);
}
);
userData = {
com.fontlab.hintData = {
hhints = (
{
position = 0;
width = 21;
},
{
position = 1740;
width = 20;
}
);
vhints = (
{
position = 166;
width = 136;
},
{
position = 166;
width = 113;
},
{
position = 909;
width = 135;
},
{
position = 932;
width = 112;
}
);
};
};
width = 1204;
},
{
anchors = (
{
name = bottom;
position = "{648, 0}";
},
{
name = top;
position = "{648, 1760}";
}
);
layerId = "5843B4DD-419E-4583-B42F-98D06DF0D314";
paths = (
{
closed = 1;
nodes = (
"320 0 LINE",
"320 666 LINE",
"303 1324 LINE",
"579 0 LINE",
"727 0 LINE",
"992 1324 LINE",
"975 666 LINE",
"975 0 LINE",
"1152 0 LINE",
"1152 1760 LINE",
"913 1760 LINE",
"654 353 LINE",
"382 1760 LINE",
"144 1760 LINE",
"144 0 LINE"
);
}
);
userData = {
com.fontlab.hintData = {
hhints = (
{
position = 0;
width = 21;
},
{
position = 1740;
width = 20;
}
);
vhints = (
{
position = 144;
width = 176;
},
{
position = 144;
width = 159;
},
{
position = 975;
width = 177;
},
{
position = 992;
width = 160;
}
);
};
};
width = 1296;
},
{
anchors = (
{
name = bottom;
position = "{709, 0}";
},
{
name = top;
position = "{709, 1760}";
}
);
layerId = "AF5BFB92-B2A0-4267-9185-576C8CF6314E";
paths = (
{
closed = 1;
nodes = (
"369 0 LINE",
"369 656 LINE",
"359 1258 LINE",
"606 8 LINE",
"819 8 LINE",
"1056 1258 LINE",
"1046 656 LINE",
"1046 0 LINE",
"1285 0 LINE",
"1285 1760 LINE",
"950 1760 LINE",
"715 474 LINE",
"465 1760 LINE",
"132 1760 LINE",
"132 0 LINE"
);
}
);
userData = {
com.fontlab.hintData = {
hhints = (
{
position = 0;
width = 21;
},
{
position = 1740;
width = 20;
}
);
vhints = (
{
position = 132;
width = 237;
},
{
position = 1046;
width = 239;
}
);
};
};
width = 1418;
}
);
unicode = 004D;
},
{
glyphname = N;
lastChange = "2021-02-19 12:19:10 +0000";
layers = (
{
anchors = (
{
name = bottom;
position = "{492, 0}";
},
{
name = top;
position = "{492, 1760}";
}
);
layerId = master01;
paths = (
{
closed = 1;
nodes = (
"306 0 LINE",
"306 850 LINE",
"296 1326 LINE",
"701 0 LINE",
"817 0 LINE",
"817 1760 LINE",
"687 1760 LINE",
"687 1005 LINE",
"702 399 LINE",
"270 1760 LINE",
"166 1760 LINE",
"166 0 LINE"
);
}
);
userData = {
com.fontlab.hintData = {
hhints = (
{
position = 0;
width = 21;
},
{
position = 1740;
width = 20;
}
);
vhints = (
{
position = 166;
width = 140;
},
{
position = 687;
width = 130;
},
{
position = 702;
width = 115;
}
);
};
};
width = 983;
},
{
anchors = (
{
name = bottom;
position = "{507, 0}";
},
{
name = top;
position = "{507, 1760}";
}
);
layerId = "5843B4DD-419E-4583-B42F-98D06DF0D314";
paths = (
{
closed = 1;
nodes = (
"335 0 LINE",
"335 764 LINE",
"323 1208 LINE",
"718 0 LINE",
"870 0 LINE",
"870 1760 LINE",
"687 1760 LINE",
"687 1071 LINE",
"708 562 LINE",
"300 1760 LINE",
"144 1760 LINE",
"144 0 LINE"
);
}
);
userData = {
com.fontlab.hintData = {
hhints = (
{
position = 0;
width = 21;
},
{
position = 1740;
width = 20;
}
);
vhints = (
{
position = 144;
width = 191;
},
{
position = 687;
width = 183;
},
{
position = 718;
width = 152;
}
);
};
};
width = 1014;
},
{
anchors = (
{
name = bottom;
position = "{535, 0}";
},
{
name = top;
position = "{535, 1760}";
}
);
layerId = "AF5BFB92-B2A0-4267-9185-576C8CF6314E";
paths = (
{
closed = 1;
nodes = (
"379 0 LINE",
"379 631 LINE",
"364 1093 LINE",
"747 0 LINE",
"937 0 LINE",
"937 1760 LINE",
"696 1760 LINE",
"696 1184 LINE",
"715 704 LINE",
"342 1760 LINE",
"132 1760 LINE",
"132 0 LINE"
);
}
);
userData = {
com.fontlab.hintData = {
hhints = (
{
position = 0;
width = 21;
},
{
position = 1740;
width = 20;
}
);
vhints = (
{
position = 132;
width = 247;
},
{
position = 132;
width = 232;
},
{
position = 696;
width = 241;
},
{
position = 715;
width = 222;
}
);
};
};
width = 1069;
}
);
unicode = 004E;
},
{
glyphname = O;
lastChange = "2021-03-12 12:00:00 +0000";
layers = (
{
anchors = (
{
name = bottom;
position = "{446, 0}";
},
{
name = center;
position = "{446, 880}";
},
{
name = ogonek;
position = "{802, 10}";
},
{
name = top;
position = "{446, 1760}";
},
{
name = topleft;
position = "{20, 1760}";
},
{
name = topright;
position = "{871, 1760}";
}
);
layerId = master01;
paths = (
{
closed = 1;
nodes = (
"702 -20 OFFCURVE",
"755 151 OFFCURVE",
"755 519 CURVE SMOOTH",
"755 1268 LINE SMOOTH",
"755 1571 OFFCURVE",
"736 1783 OFFCURVE",
"454 1783 CURVE SMOOTH",
"172 1783 OFFCURVE",
"136 1571 OFFCURVE",
"136 1268 CURVE SMOOTH",
"136 519 LINE SMOOTH",
"136 151 OFFCURVE",
"192 -20 OFFCURVE",
"447 -20 CURVE SMOOTH"
);
},
{
closed = 1;
nodes = (
"314 102 OFFCURVE",
"285 196 OFFCURVE",
"285 519 CURVE SMOOTH",
"285 1281 LINE SMOOTH",
"285 1543 OFFCURVE",
"320 1658 OFFCURVE",
"454 1658 CURVE SMOOTH",
"581 1658 OFFCURVE",
"606 1545 OFFCURVE",
"606 1280 CURVE SMOOTH",
"606 519 LINE SMOOTH",
"606 196 OFFCURVE",
"575 102 OFFCURVE",
"447 102 CURVE SMOOTH"
);
}
);
userData = {
com.fontlab.hintData = {
hhints = (
{
position = -20;
width = 122;
},
{
position = 1658;
width = 125;
}
);
vhints = (
{
position = 136;
width = 149;
},
{
position = 606;
width = 149;
}
);
};
};
width = 891;
},
{
anchors = (
{
name = bottom;
position = "{472, 0}";
},
{
name = center;
position = "{472, 880}";
},
{
name = ogonek;
position = "{850, 10}";
},
{
name = top;
position = "{472, 1760}";
},
{
name = topleft;
position = "{20, 1760}";
},
{
name = topright;
position = "{924, 1760}";
}
);
layerId = "5843B4DD-419E-4583-B42F-98D06DF0D314";
paths = (
{
closed = 1;
nodes = (
"738 -20 OFFCURVE",
"820 153 OFFCURVE",
"820 506 CURVE SMOOTH",
"820 1282 LINE SMOOTH",
"820 1585 OFFCURVE",
"761 1782 OFFCURVE",
"479 1782 CURVE SMOOTH",
"197 1782 OFFCURVE",
"124 1585 OFFCURVE",
"124 1282 CURVE SMOOTH",
"124 506 LINE SMOOTH",
"124 153 OFFCURVE",
"210 -20 OFFCURVE",
"474 -20 CURVE SMOOTH"
);
},
{
closed = 1;
nodes = (
"355 158 OFFCURVE",
"331 244 OFFCURVE",
"331 504 CURVE SMOOTH",
"331 1295 LINE SMOOTH",
"331 1506 OFFCURVE",
"363 1604 OFFCURVE",
"479 1604 CURVE SMOOTH",
"591 1604 OFFCURVE",
"613 1505 OFFCURVE",
"613 1294 CURVE SMOOTH",
"613 504 LINE SMOOTH",
"613 246 OFFCURVE",
"588 158 OFFCURVE",
"474 158 CURVE SMOOTH"
);
}
);
userData = {
com.fontlab.hintData = {
hhints = (
{
position = -20;
width = 178;
},
{
position = 1604;
width = 178;
}
);
vhints = (
{
position = 124;
width = 207;
},
{
position = 613;
width = 207;
}
);
};
};
width = 944;
},
{
anchors = (
{
name = bottom;
position = "{500, 0}";
},
{
name = center;
position = "{500, 880}";
},
{
name = ogonek;
position = "{899, 10}";
},
{
name = top;
position = "{500, 1760}";
},
{
name = topleft;
position = "{20, 1760}";
},
{
name = topright;
position = "{979, 1760}";
}
);
layerId = "AF5BFB92-B2A0-4267-9185-576C8CF6314E";
paths = (
{
closed = 1;
nodes = (
"776 -20 OFFCURVE",
"888 155 OFFCURVE",
"888 492 CURVE SMOOTH",
"888 1297 LINE SMOOTH",
"888 1600 OFFCURVE",
"787 1781 OFFCURVE",
"505 1781 CURVE SMOOTH",
"223 1781 OFFCURVE",
"110 1600 OFFCURVE",
"110 1297 CURVE SMOOTH",
"110 492 LINE SMOOTH",
"110 155 OFFCURVE",
"228 -20 OFFCURVE",
"502 -20 CURVE SMOOTH"
);
},
{
closed = 1;
nodes = (
"397 212 OFFCURVE",
"380 296 OFFCURVE",
"380 489 CURVE SMOOTH",
"380 1310 LINE SMOOTH",
"380 1467 OFFCURVE",
"408 1549 OFFCURVE",
"505 1549 CURVE SMOOTH",
"600 1549 OFFCURVE",
"619 1462 OFFCURVE",
"619 1309 CURVE SMOOTH",
"619 489 LINE SMOOTH",
"619 300 OFFCURVE",
"601 212 OFFCURVE",
"502 212 CURVE SMOOTH"
);
}
);
userData = {
com.fontlab.hintData = {
hhints = (
{
position = -20;
width = 232;
},
{
position = 1549;
width = 232;
}
);
vhints = (
{
position = 110;
width = 270;
},
{
position = 619;
width = 269;
}
);
};
};
width = 999;
}
);
leftKerningGroup = O;
rightKerningGroup = O;
unicode = 004F;
},
{
glyphname = Oslash;
lastChange = "2021-03-12 11:28:07 +0000";
layers = (
{
anchors = (
{
name = bottom;
position = "{446, 0}";
},
{
name = center;
position = "{446, 880}";
},
{
name = ogonek;
position = "{802, 10}";
},
{
name = top;
position = "{446, 1760}";
},
{
name = topleft;
position = "{20, 1760}";
},
{
name = topright;
position = "{871, 1760}";
}
);
layerId = master01;
paths = (
{
closed = 1;
nodes = (
"733 1941 LINE",
"666 1956 LINE",
"197 -206 LINE",
"256 -225 LINE"
);
},
{
closed = 1;
nodes = (
"702 -20 OFFCURVE",
"755 151 OFFCURVE",
"755 519 CURVE SMOOTH",
"755 1268 LINE SMOOTH",
"755 1571 OFFCURVE",
"736 1783 OFFCURVE",
"454 1783 CURVE SMOOTH",
"172 1783 OFFCURVE",
"136 1571 OFFCURVE",
"136 1268 CURVE SMOOTH",
"136 519 LINE SMOOTH",
"136 151 OFFCURVE",
"192 -20 OFFCURVE",
"447 -20 CURVE SMOOTH"
);
},
{
closed = 1;
nodes = (
"314 102 OFFCURVE",
"285 196 OFFCURVE",
"285 519 CURVE SMOOTH",
"285 1281 LINE SMOOTH",
"285 1543 OFFCURVE",
"320 1658 OFFCURVE",
"454 1658 CURVE SMOOTH",
"581 1658 OFFCURVE",
"606 1545 OFFCURVE",
"606 1280 CURVE SMOOTH",
"606 519 LINE SMOOTH",
"606 196 OFFCURVE",
"575 102 OFFCURVE",
"447 102 CURVE SMOOTH"
);
}
);
userData = {
com.fontlab.hintData = {
hhints = (
{
position = -20;
width = 122;
},
{
position = 1658;
width = 124;
}
);
vhints = (
{
position = 136;
width = 149;
},
{
position = 606;
width = 149;
}
);
};
};
width = 891;
},
{
anchors = (
{
name = bottom;
position = "{450, 0}";
},
{
name = center;
position = "{472, 880}";
},
{
name = ogonek;
position = "{850, 10}";
},
{
name = top;
position = "{450, 1760}";
},
{
name = topleft;
position = "{20, 1760}";
},
{
name = topright;
position = "{924, 1760}";
}
);
layerId = "5843B4DD-419E-4583-B42F-98D06DF0D314";
paths = (
{
closed = 1;
nodes = (
"910 1870 LINE",
"803 1906 LINE",
"75 -166 LINE",
"174 -206 LINE"
);
},
{
closed = 1;
nodes = (
"738 -20 OFFCURVE",
"820 153 OFFCURVE",
"820 506 CURVE SMOOTH",
"820 1282 LINE SMOOTH",
"820 1585 OFFCURVE",
"761 1782 OFFCURVE",
"479 1782 CURVE SMOOTH",
"197 1782 OFFCURVE",
"124 1585 OFFCURVE",
"124 1282 CURVE SMOOTH",
"124 506 LINE SMOOTH",
"124 153 OFFCURVE",
"210 -20 OFFCURVE",
"474 -20 CURVE SMOOTH"
);
},
{
closed = 1;
nodes = (
"355 158 OFFCURVE",
"331 244 OFFCURVE",
"331 504 CURVE SMOOTH",
"331 1295 LINE SMOOTH",
"331 1506 OFFCURVE",
"363 1604 OFFCURVE",
"479 1604 CURVE SMOOTH",
"591 1604 OFFCURVE",
"613 1505 OFFCURVE",
"613 1294 CURVE SMOOTH",
"613 504 LINE SMOOTH",
"613 246 OFFCURVE",
"588 158 OFFCURVE",
"474 158 CURVE SMOOTH"
);
}
);
userData = {
com.fontlab.hintData = {
hhints = (
{
position = -20;
width = 178;
},
{
position = 1604;
width = 178;
}
);
vhints = (
{
position = 124;
width = 207;
},
{
position = 613;
width = 207;
}
);
};
};
width = 900;
},
{
anchors = (
{
name = bottom;
position = "{450, 0}";
},
{
name = center;
position = "{500, 880}";
},
{
name = ogonek;
position = "{899, 10}";
},
{
name = top;
position = "{450, 1760}";
},
{
name = topleft;
position = "{20, 1760}";
},
{
name = topright;
position = "{979, 1760}";
}
);
layerId = "AF5BFB92-B2A0-4267-9185-576C8CF6314E";
paths = (
{
closed = 1;
nodes = (
"929 1870 LINE",
"822 1906 LINE",
"94 -166 LINE",
"193 -206 LINE"
);
},
{
closed = 1;
nodes = (
"776 -20 OFFCURVE",
"888 155 OFFCURVE",
"888 492 CURVE SMOOTH",
"888 1297 LINE SMOOTH",
"888 1600 OFFCURVE",
"787 1781 OFFCURVE",
"505 1781 CURVE SMOOTH",
"223 1781 OFFCURVE",
"110 1600 OFFCURVE",
"110 1297 CURVE SMOOTH",
"110 492 LINE SMOOTH",
"110 155 OFFCURVE",
"228 -20 OFFCURVE",
"502 -20 CURVE SMOOTH"
);
},
{
closed = 1;
nodes = (
"397 212 OFFCURVE",
"380 296 OFFCURVE",
"380 489 CURVE SMOOTH",
"380 1310 LINE SMOOTH",
"380 1467 OFFCURVE",
"408 1549 OFFCURVE",
"505 1549 CURVE SMOOTH",
"600 1549 OFFCURVE",
"619 1462 OFFCURVE",
"619 1309 CURVE SMOOTH",
"619 489 LINE SMOOTH",
"619 300 OFFCURVE",
"601 212 OFFCURVE",
"502 212 CURVE SMOOTH"
);
}
);
userData = {
com.fontlab.hintData = {
hhints = (
{
position = -20;
width = 232;
},
{
position = 1549;
width = 232;
}
);
vhints = (
{
position = 110;
width = 270;
},
{
position = 619;
width = 269;
}
);
};
};
width = 900;
}
);
leftKerningGroup = O;
rightKerningGroup = O;
unicode = 00D8;
},
{
glyphname = OE;
lastChange = "2021-03-12 11:28:20 +0000";
layers = (
{
anchors = (
{
name = bottom;
position = "{584, 0}";
},
{
name = top;
position = "{584, 1760}";
}
);
layerId = master01;
paths = (
{
closed = 1;
nodes = (
"1080 0 LINE",
"1080 118 LINE",
"755 118 LINE",
"755 836 LINE",
"1063 836 LINE",
"1063 956 LINE",
"755 956 LINE",
"755 1644 LINE",
"1082 1644 LINE",
"1082 1760 LINE",
"453 1760 LINE SMOOTH",
"171 1760 OFFCURVE",
"134 1572 OFFCURVE",
"134 1269 CURVE SMOOTH",
"134 519 LINE SMOOTH",
"134 151 OFFCURVE",
"191 0 OFFCURVE",
"446 0 CURVE SMOOTH"
);
},
{
closed = 1;
nodes = (
"312 127 OFFCURVE",
"283 195 OFFCURVE",
"283 518 CURVE SMOOTH",
"283 1282 LINE SMOOTH",
"283 1544 OFFCURVE",
"319 1634 OFFCURVE",
"453 1634 CURVE SMOOTH",
"606 1634 LINE",
"606 126 LINE",
"446 126 LINE"
);
}
);
userData = {
com.fontlab.hintData = {
hhints = (
{
position = 0;
width = 118;
},
{
position = 836;
width = 120;
},
{
position = 1644;
width = 116;
}
);
vhints = (
{
position = 134;
width = 149;
},
{
position = 606;
width = 149;
}
);
};
};
width = 1168;
},
{
anchors = (
{
name = bottom;
position = "{607, 0}";
},
{
name = top;
position = "{607, 1760}";
}
);
layerId = "5843B4DD-419E-4583-B42F-98D06DF0D314";
paths = (
{
closed = 1;
nodes = (
"1117 0 LINE",
"1117 172 LINE",
"815 172 LINE",
"815 812 LINE",
"1095 812 LINE",
"1095 986 LINE",
"815 986 LINE",
"815 1588 LINE",
"1112 1588 LINE",
"1112 1760 LINE",
"478 1760 LINE SMOOTH",
"196 1760 OFFCURVE",
"124 1585 OFFCURVE",
"124 1282 CURVE SMOOTH",
"124 507 LINE SMOOTH",
"124 154 OFFCURVE",
"209 0 OFFCURVE",
"473 0 CURVE SMOOTH"
);
},
{
closed = 1;
nodes = (
"353 179 OFFCURVE",
"331 245 OFFCURVE",
"331 505 CURVE SMOOTH",
"331 1293 LINE SMOOTH",
"331 1504 OFFCURVE",
"362 1581 OFFCURVE",
"478 1581 CURVE SMOOTH",
"609 1581 LINE",
"609 178 LINE",
"473 178 LINE"
);
}
);
userData = {
com.fontlab.hintData = {
hhints = (
{
position = 0;
width = 172;
},
{
position = 812;
width = 174;
},
{
position = 1581;
width = 179;
}
);
vhints = (
{
position = 124;
width = 207;
},
{
position = 609;
width = 206;
}
);
};
};
width = 1214;
},
{
anchors = (
{
name = bottom;
position = "{618, 0}";
},
{
name = top;
position = "{618, 1760}";
}
);
layerId = "AF5BFB92-B2A0-4267-9185-576C8CF6314E";
paths = (
{
closed = 1;
nodes = (
"1153 0 LINE",
"1153 231 LINE",
"876 231 LINE",
"876 785 LINE",
"1125 785 LINE",
"1125 1017 LINE",
"876 1017 LINE",
"876 1529 LINE",
"1141 1529 LINE",
"1141 1760 LINE",
"500 1760 LINE SMOOTH",
"218 1760 OFFCURVE",
"110 1598 OFFCURVE",
"110 1295 CURVE SMOOTH",
"110 494 LINE SMOOTH",
"110 157 OFFCURVE",
"224 0 OFFCURVE",
"497 0 CURVE SMOOTH"
);
},
{
closed = 1;
nodes = (
"393 234 OFFCURVE",
"378 298 OFFCURVE",
"378 491 CURVE SMOOTH",
"378 1305 LINE SMOOTH",
"378 1461 OFFCURVE",
"404 1524 OFFCURVE",
"500 1524 CURVE SMOOTH",
"608 1524 LINE",
"608 233 LINE",
"497 233 LINE"
);
}
);
userData = {
com.fontlab.hintData = {
hhints = (
{
position = 0;
width = 231;
},
{
position = 785;
width = 232;
},
{
position = 1524;
width = 236;
}
);
vhints = (
{
position = 110;
width = 268;
},
{
position = 608;
width = 268;
}
);
};
};
width = 1235;
}
);
leftKerningGroup = O;
rightKerningGroup = E;
unicode = 0152;
},
{
glyphname = P;
lastChange = "2021-03-12 11:28:25 +0000";
layers = (
{
anchors = (
{
name = bottom;
position = "{424, 0}";
},
{
name = top;
position = "{424, 1760}";
}
);
layerId = master01;
paths = (
{
closed = 1;
nodes = (
"315 0 LINE",
"315 689 LINE",
"463 689 LINE SMOOTH",
"718 689 OFFCURVE",
"778 863 OFFCURVE",
"778 1231 CURVE SMOOTH",
"778 1249 LINE",
"778 1548 OFFCURVE",
"755 1760 OFFCURVE",
"472 1760 CURVE SMOOTH",
"166 1760 LINE",
"166 0 LINE"
);
},
{
closed = 1;
nodes = (
"315 1636 LINE",
"480 1636 LINE SMOOTH",
"604 1636 OFFCURVE",
"629 1520 OFFCURVE",
"628 1263 CURVE",
"628 1229 LINE SMOOTH",
"628 915 OFFCURVE",
"597 815 OFFCURVE",
"473 815 CURVE SMOOTH",
"315 815 LINE"
);
}
);
userData = {
com.fontlab.hintData = {
hhints = (
{
position = 0;
width = 21;
},
{
position = 689;
width = 126;
},
{
position = 1636;
width = 124;
}
);
vhints = (
{
position = 166;
width = 149;
},
{
position = 628;
width = 149;
}
);
};
};
width = 847;
},
{
anchors = (
{
name = bottom;
position = "{447, 0}";
},
{
name = top;
position = "{447, 1760}";
}
);
layerId = "5843B4DD-419E-4583-B42F-98D06DF0D314";
paths = (
{
closed = 1;
nodes = (
"351 0 LINE",
"351 691 LINE",
"498 691 LINE SMOOTH",
"763 691 OFFCURVE",
"829 874 OFFCURVE",
"829 1229 CURVE",
"829 1256 LINE",
"829 1566 OFFCURVE",
"779 1760 OFFCURVE",
"498 1760 CURVE SMOOTH",
"144 1760 LINE",
"144 0 LINE"
);
},
{
closed = 1;
nodes = (
"351 1596 LINE",
"482 1596 LINE SMOOTH",
"600 1596 OFFCURVE",
"623 1489 OFFCURVE",
"623 1263 CURVE SMOOTH",
"623 1229 LINE SMOOTH",
"623 955 OFFCURVE",
"598 863 OFFCURVE",
"477 863 CURVE SMOOTH",
"351 863 LINE"
);
}
);
userData = {
com.fontlab.hintData = {
hhints = (
{
position = 0;
width = 21;
},
{
position = 691;
width = 172;
},
{
position = 1596;
width = 164;
}
);
vhints = (
{
position = 144;
width = 207;
},
{
position = 623;
width = 207;
}
);
};
};
width = 894;
},
{
anchors = (
{
name = bottom;
position = "{472, 0}";
},
{
name = top;
position = "{472, 1760}";
}
);
layerId = "AF5BFB92-B2A0-4267-9185-576C8CF6314E";
paths = (
{
closed = 1;
nodes = (
"400 0 LINE",
"400 694 LINE",
"545 694 LINE SMOOTH",
"821 694 OFFCURVE",
"894 886 OFFCURVE",
"894 1227 CURVE SMOOTH",
"894 1264 LINE",
"894 1586 OFFCURVE",
"816 1760 OFFCURVE",
"536 1760 CURVE SMOOTH",
"132 1760 LINE",
"132 0 LINE"
);
},
{
closed = 1;
nodes = (
"400 1554 LINE",
"494 1554 LINE SMOOTH",
"607 1554 OFFCURVE",
"627 1455 OFFCURVE",
"628 1264 CURVE",
"628 1230 LINE SMOOTH",
"628 997 OFFCURVE",
"610 915 OFFCURVE",
"492 915 CURVE SMOOTH",
"400 915 LINE"
);
}
);
userData = {
com.fontlab.hintData = {
hhints = (
{
position = 0;
width = 21;
},
{
position = 694;
width = 221;
},
{
position = 1554;
width = 206;
}
);
vhints = (
{
position = 132;
width = 268;
},
{
position = 628;
width = 268;
}
);
};
};
width = 943;
}
);
rightKerningGroup = P;
unicode = 0050;
},
{
glyphname = Thorn;
lastChange = "2021-03-12 11:28:25 +0000";
layers = (
{
anchors = (
{
name = bottom;
position = "{433, 0}";
},
{
name = top;
position = "{433, 1760}";
}
);
layerId = master01;
paths = (
{
closed = 1;
nodes = (
"315 0 LINE",
"315 468 LINE",
"463 468 LINE SMOOTH",
"718 468 OFFCURVE",
"777 640 OFFCURVE",
"777 1007 CURVE SMOOTH",
"777 1027 LINE",
"778 1325 OFFCURVE",
"754 1535 OFFCURVE",
"472 1535 CURVE SMOOTH",
"315 1535 LINE",
"315 1760 LINE",
"166 1760 LINE",
"166 0 LINE"
);
},
{
closed = 1;
nodes = (
"315 1411 LINE",
"480 1411 LINE SMOOTH",
"604 1411 OFFCURVE",
"629 1298 OFFCURVE",
"629 1042 CURVE SMOOTH",
"629 1006 LINE SMOOTH",
"629 691 OFFCURVE",
"598 594 OFFCURVE",
"474 594 CURVE SMOOTH",
"315 594 LINE"
);
}
);
userData = {
com.fontlab.hintData = {
hhints = (
{
position = 0;
width = 21;
},
{
position = 468;
width = 126;
},
{
position = 1411;
width = 124;
},
{
position = 1740;
width = 20;
}
);
vhints = (
{
position = 166;
width = 149;
},
{
position = 629;
width = 148;
}
);
};
};
width = 865;
},
{
anchors = (
{
name = bottom;
position = "{464, 0}";
},
{
name = top;
position = "{464, 1760}";
}
);
layerId = "5843B4DD-419E-4583-B42F-98D06DF0D314";
paths = (
{
closed = 1;
nodes = (
"368 0 LINE",
"368 422 LINE",
"515 422 LINE SMOOTH",
"780 422 OFFCURVE",
"847 609 OFFCURVE",
"847 963 CURVE SMOOTH",
"847 987 LINE",
"846 1300 OFFCURVE",
"798 1500 OFFCURVE",
"515 1500 CURVE SMOOTH",
"368 1500 LINE",
"368 1760 LINE",
"162 1760 LINE",
"162 0 LINE"
);
},
{
closed = 1;
nodes = (
"368 1335 LINE",
"499 1335 LINE SMOOTH",
"619 1335 OFFCURVE",
"641 1222 OFFCURVE",
"641 994 CURVE SMOOTH",
"641 964 LINE SMOOTH",
"641 689 OFFCURVE",
"616 594 OFFCURVE",
"495 594 CURVE SMOOTH",
"368 594 LINE"
);
}
);
userData = {
com.fontlab.hintData = {
hhints = (
{
position = 0;
width = 21;
},
{
position = 422;
width = 172;
},
{
position = 1335;
width = 165;
},
{
position = 1740;
width = 20;
}
);
vhints = (
{
position = 162;
width = 206;
},
{
position = 641;
width = 206;
}
);
};
};
width = 927;
},
{
anchors = (
{
name = bottom;
position = "{491, 0}";
},
{
name = top;
position = "{491, 1760}";
}
);
layerId = "AF5BFB92-B2A0-4267-9185-576C8CF6314E";
paths = (
{
closed = 1;
nodes = (
"414 0 LINE",
"414 408 LINE",
"559 408 LINE SMOOTH",
"835 408 OFFCURVE",
"910 612 OFFCURVE",
"910 953 CURVE SMOOTH",
"910 981 LINE",
"906 1310 OFFCURVE",
"832 1497 OFFCURVE",
"550 1497 CURVE SMOOTH",
"414 1497 LINE",
"414 1760 LINE",
"146 1760 LINE",
"146 0 LINE"
);
},
{
closed = 1;
nodes = (
"414 1290 LINE",
"508 1290 LINE SMOOTH",
"624 1290 OFFCURVE",
"642 1177 OFFCURVE",
"642 979 CURVE SMOOTH",
"642 955 LINE SMOOTH",
"642 723 OFFCURVE",
"624 630 OFFCURVE",
"506 630 CURVE SMOOTH",
"414 630 LINE"
);
}
);
userData = {
com.fontlab.hintData = {
hhints = (
{
position = 0;
width = 21;
},
{
position = 408;
width = 222;
},
{
position = 1290;
width = 207;
},
{
position = 1740;
width = 20;
}
);
vhints = (
{
position = 146;
width = 268;
},
{
position = 642;
width = 268;
}
);
};
};
width = 982;
}
);
rightKerningGroup = P;
unicode = 00DE;
},
{
glyphname = Q;
lastChange = "2021-02-19 12:57:44 +0000";
layers = (
{
anchors = (
{
name = bottom;
position = "{446, 0}";
},
{
name = center;
position = "{446, 880}";
},
{
name = ogonek;
position = "{802, 10}";
},
{
name = top;
position = "{446, 1760}";
},
{
name = topleft;
position = "{20, 1760}";
},
{
name = topright;
position = "{871, 1760}";
}
);
layerId = master01;
paths = (
{
closed = 1;
nodes = (
"720 -337 LINE",
"518 27 LINE",
"409 -17 LINE",
"622 -389 LINE"
);
},
{
closed = 1;
nodes = (
"702 -20 OFFCURVE",
"755 151 OFFCURVE",
"755 519 CURVE SMOOTH",
"755 1268 LINE SMOOTH",
"755 1571 OFFCURVE",
"736 1783 OFFCURVE",
"454 1783 CURVE SMOOTH",
"172 1783 OFFCURVE",
"136 1571 OFFCURVE",
"136 1268 CURVE SMOOTH",
"136 519 LINE SMOOTH",
"136 151 OFFCURVE",
"192 -20 OFFCURVE",
"447 -20 CURVE SMOOTH"
);
},
{
closed = 1;
nodes = (
"314 102 OFFCURVE",
"285 196 OFFCURVE",
"285 519 CURVE SMOOTH",
"285 1281 LINE SMOOTH",
"285 1543 OFFCURVE",
"320 1658 OFFCURVE",
"454 1658 CURVE SMOOTH",
"581 1658 OFFCURVE",
"606 1545 OFFCURVE",
"606 1280 CURVE SMOOTH",
"606 519 LINE SMOOTH",
"606 196 OFFCURVE",
"575 102 OFFCURVE",
"447 102 CURVE SMOOTH"
);
}
);
userData = {
com.fontlab.hintData = {
hhints = (
{
position = -20;
width = 122;
},
{
position = 1658;
width = 124;
}
);
vhints = (
{
position = 136;
width = 149;
},
{
position = 606;
width = 149;
}
);
};
};
width = 891;
},
{
anchors = (
{
name = bottom;
position = "{472, 0}";
},
{
name = center;
position = "{472, 880}";
},
{
name = ogonek;
position = "{850, 10}";
},
{
name = top;
position = "{472, 1760}";
},
{
name = topleft;
position = "{20, 1760}";
},
{
name = topright;
position = "{924, 1760}";
}
);
layerId = "5843B4DD-419E-4583-B42F-98D06DF0D314";
paths = (
{
closed = 1;
nodes = (
"769 -176 LINE",
"569 56 LINE",
"430 -11 LINE",
"667 -269 LINE"
);
},
{
closed = 1;
nodes = (
"738 -20 OFFCURVE",
"820 153 OFFCURVE",
"820 506 CURVE SMOOTH",
"820 1282 LINE SMOOTH",
"820 1585 OFFCURVE",
"761 1782 OFFCURVE",
"479 1782 CURVE SMOOTH",
"197 1782 OFFCURVE",
"124 1585 OFFCURVE",
"124 1282 CURVE SMOOTH",
"124 506 LINE SMOOTH",
"124 153 OFFCURVE",
"210 -20 OFFCURVE",
"474 -20 CURVE SMOOTH"
);
},
{
closed = 1;
nodes = (
"355 158 OFFCURVE",
"331 244 OFFCURVE",
"331 504 CURVE SMOOTH",
"331 1295 LINE SMOOTH",
"331 1506 OFFCURVE",
"363 1604 OFFCURVE",
"479 1604 CURVE SMOOTH",
"591 1604 OFFCURVE",
"613 1505 OFFCURVE",
"613 1294 CURVE SMOOTH",
"613 504 LINE SMOOTH",
"613 246 OFFCURVE",
"588 158 OFFCURVE",
"474 158 CURVE SMOOTH"
);
}
);
userData = {
com.fontlab.hintData = {
hhints = (
{
position = -269;
width = 21;
},
{
position = -20;
width = 178;
},
{
position = 1604;
width = 178;
}
);
vhints = (
{
position = 124;
width = 207;
},
{
position = 613;
width = 207;
}
);
};
};
width = 944;
},
{
anchors = (
{
name = bottom;
position = "{500, 0}";
},
{
name = center;
position = "{500, 880}";
},
{
name = ogonek;
position = "{899, 10}";
},
{
name = top;
position = "{500, 1760}";
},
{
name = topleft;
position = "{20, 1760}";
},
{
name = topright;
position = "{979, 1760}";
}
);
layerId = "AF5BFB92-B2A0-4267-9185-576C8CF6314E";
paths = (
{
closed = 1;
nodes = (
"848 -177 LINE",
"622 87 LINE",
"452 -5 LINE",
"716 -292 LINE"
);
},
{
closed = 1;
nodes = (
"776 -20 OFFCURVE",
"888 155 OFFCURVE",
"888 492 CURVE SMOOTH",
"888 1297 LINE SMOOTH",
"888 1600 OFFCURVE",
"787 1781 OFFCURVE",
"505 1781 CURVE SMOOTH",
"223 1781 OFFCURVE",
"110 1600 OFFCURVE",
"110 1297 CURVE SMOOTH",
"110 492 LINE SMOOTH",
"110 155 OFFCURVE",
"228 -20 OFFCURVE",
"502 -20 CURVE SMOOTH"
);
},
{
closed = 1;
nodes = (
"397 212 OFFCURVE",
"380 296 OFFCURVE",
"380 489 CURVE SMOOTH",
"380 1310 LINE SMOOTH",
"380 1467 OFFCURVE",
"408 1549 OFFCURVE",
"505 1549 CURVE SMOOTH",
"600 1549 OFFCURVE",
"619 1462 OFFCURVE",
"619 1309 CURVE SMOOTH",
"619 489 LINE SMOOTH",
"619 300 OFFCURVE",
"601 212 OFFCURVE",
"502 212 CURVE SMOOTH"
);
}
);
userData = {
com.fontlab.hintData = {
hhints = (
{
position = -20;
width = 232;
},
{
position = 1549;
width = 232;
}
);
vhints = (
{
position = 110;
width = 270;
},
{
position = 619;
width = 269;
}
);
};
};
width = 999;
}
);
unicode = 0051;
},
{
glyphname = R;
lastChange = "2021-03-12 11:28:29 +0000";
layers = (
{
anchors = (
{
name = bottom;
position = "{450, 0}";
},
{
name = top;
position = "{450, 1760}";
}
);
layerId = master01;
paths = (
{
closed = 1;
nodes = (
"315 0 LINE",
"315 868 LINE",
"473 858 LINE SMOOTH",
"633 848 OFFCURVE",
"629 798 OFFCURVE",
"629 557 CURVE SMOOTH",
"629 82 OFFCURVE",
"630 41 OFFCURVE",
"651 0 CURVE",
"799 0 LINE",
"777 58 OFFCURVE",
"777 84 OFFCURVE",
"777 164 CURVE SMOOTH",
"777 764 OFFCURVE",
"752 903 OFFCURVE",
"616 925 CURVE",
"739 959 OFFCURVE",
"778 1100 OFFCURVE",
"778 1326 CURVE SMOOTH",
"778 1630 OFFCURVE",
"748 1760 OFFCURVE",
"465 1760 CURVE SMOOTH",
"166 1760 LINE",
"166 0 LINE"
);
},
{
closed = 1;
nodes = (
"314 1636 LINE",
"481 1636 LINE SMOOTH",
"603 1636 OFFCURVE",
"629 1594 OFFCURVE",
"629 1335 CURVE SMOOTH",
"629 1322 LINE SMOOTH",
"629 1006 OFFCURVE",
"598 968 OFFCURVE",
"470 968 CURVE SMOOTH",
"314 968 LINE"
);
}
);
userData = {
com.fontlab.hintData = {
hhints = (
{
position = 0;
width = 21;
},
{
position = 868;
width = 100;
},
{
position = 1636;
width = 124;
}
);
vhints = (
{
position = 166;
width = 149;
},
{
position = 629;
width = 149;
}
);
};
};
width = 899;
},
{
anchors = (
{
name = bottom;
position = "{470, 0}";
},
{
name = top;
position = "{470, 1760}";
}
);
layerId = "5843B4DD-419E-4583-B42F-98D06DF0D314";
paths = (
{
closed = 1;
nodes = (
"351 0 LINE",
"351 850 LINE",
"474 843 LINE SMOOTH",
"611 835 OFFCURVE",
"623 793 OFFCURVE",
"623 593 CURVE SMOOTH",
"623 247 OFFCURVE",
"624 30 OFFCURVE",
"639 0 CURVE",
"845 0 LINE",
"829 42 OFFCURVE",
"829 243 OFFCURVE",
"829 301 CURVE SMOOTH",
"829 775 OFFCURVE",
"796 906 OFFCURVE",
"667 928 CURVE",
"793 965 OFFCURVE",
"828 1094 OFFCURVE",
"828 1311 CURVE SMOOTH",
"828 1612 OFFCURVE",
"792 1760 OFFCURVE",
"513 1760 CURVE SMOOTH",
"144 1760 LINE",
"144 0 LINE"
);
},
{
closed = 1;
nodes = (
"351 1596 LINE",
"481 1596 LINE SMOOTH",
"602 1596 OFFCURVE",
"623 1553 OFFCURVE",
"623 1329 CURVE SMOOTH",
"623 1317 LINE SMOOTH",
"623 1046 OFFCURVE",
"597 1002 OFFCURVE",
"483 1002 CURVE SMOOTH",
"351 1002 LINE"
);
}
);
userData = {
com.fontlab.hintData = {
hhints = (
{
position = 0;
width = 21;
},
{
position = 843;
width = 159;
},
{
position = 1596;
width = 164;
}
);
vhints = (
{
position = 144;
width = 207;
},
{
position = 623;
width = 205;
}
);
};
};
width = 939;
},
{
anchors = (
{
name = bottom;
position = "{496, 0}";
},
{
name = top;
position = "{496, 1760}";
}
);
layerId = "AF5BFB92-B2A0-4267-9185-576C8CF6314E";
paths = (
{
closed = 1;
nodes = (
"400 0 LINE",
"400 831 LINE",
"486 826 LINE SMOOTH",
"599 819 OFFCURVE",
"627 788 OFFCURVE",
"627 631 CURVE SMOOTH",
"627 424 OFFCURVE",
"628 18 OFFCURVE",
"637 0 CURVE",
"905 0 LINE",
"895 25 OFFCURVE",
"895 412 OFFCURVE",
"895 447 CURVE SMOOTH",
"895 787 OFFCURVE",
"854 910 OFFCURVE",
"732 932 CURVE",
"861 972 OFFCURVE",
"892 1087 OFFCURVE",
"892 1294 CURVE SMOOTH",
"892 1594 OFFCURVE",
"851 1760 OFFCURVE",
"575 1760 CURVE SMOOTH",
"132 1760 LINE",
"132 0 LINE"
);
},
{
closed = 1;
nodes = (
"401 1554 LINE",
"492 1554 LINE SMOOTH",
"611 1554 OFFCURVE",
"627 1509 OFFCURVE",
"627 1323 CURVE SMOOTH",
"627 1312 LINE SMOOTH",
"627 1089 OFFCURVE",
"606 1039 OFFCURVE",
"508 1039 CURVE SMOOTH",
"401 1039 LINE"
);
}
);
userData = {
com.fontlab.hintData = {
hhints = (
{
position = 0;
width = 21;
},
{
position = 827;
width = 212;
},
{
position = 1554;
width = 206;
}
);
vhints = (
{
position = 132;
width = 268;
},
{
position = 627;
width = 265;
}
);
};
};
width = 991;
}
);
rightKerningGroup = R;
unicode = 0052;
},
{
glyphname = S;
lastChange = "2021-03-12 11:28:34 +0000";
layers = (
{
anchors = (
{
name = bottom;
position = "{397, 0}";
},
{
name = top;
position = "{397, 1760}";
}
);
layerId = master01;
paths = (
{
closed = 1;
nodes = (
"676 -20 OFFCURVE",
"724 167 OFFCURVE",
"724 436 CURVE SMOOTH",
"724 668 OFFCURVE",
"644 815 OFFCURVE",
"511 946 CURVE SMOOTH",
"414 1042 LINE SMOOTH",
"297 1157 OFFCURVE",
"240 1202 OFFCURVE",
"240 1371 CURVE SMOOTH",
"240 1606 OFFCURVE",
"287 1658 OFFCURVE",
"404 1658 CURVE SMOOTH",
"525 1658 OFFCURVE",
"562 1576 OFFCURVE",
"562 1253 CURVE SMOOTH",
"562 1143 LINE",
"695 1143 LINE",
"695 1242 LINE SMOOTH",
"695 1545 OFFCURVE",
"691 1783 OFFCURVE",
"402 1783 CURVE SMOOTH",
"136 1783 OFFCURVE",
"91 1599 OFFCURVE",
"91 1346 CURVE SMOOTH",
"91 1144 OFFCURVE",
"219 1018 OFFCURVE",
"315 930 CURVE SMOOTH",
"419 834 LINE SMOOTH",
"533 729 OFFCURVE",
"572 633 OFFCURVE",
"572 452 CURVE SMOOTH",
"572 204 OFFCURVE",
"565 102 OFFCURVE",
"420 102 CURVE SMOOTH",
"281 102 OFFCURVE",
"251 224 OFFCURVE",
"251 526 CURVE SMOOTH",
"251 705 LINE",
"105 705 LINE",
"105 523 LINE SMOOTH",
"105 224 OFFCURVE",
"131 -20 OFFCURVE",
"411 -20 CURVE SMOOTH"
);
}
);
userData = {
com.fontlab.hintData = {
hhints = (
{
position = -20;
width = 122;
},
{
position = 1658;
width = 125;
}
);
vhints = (
{
position = 105;
width = 146;
},
{
position = 562;
width = 133;
},
{
position = 572;
width = 152;
}
);
};
};
width = 794;
},
{
anchors = (
{
name = bottom;
position = "{414, 0}";
},
{
name = top;
position = "{414, 1760}";
}
);
layerId = "5843B4DD-419E-4583-B42F-98D06DF0D314";
paths = (
{
closed = 1;
nodes = (
"699 -20 OFFCURVE",
"767 157 OFFCURVE",
"767 449 CURVE SMOOTH",
"767 665 OFFCURVE",
"677 823 OFFCURVE",
"551 955 CURVE SMOOTH",
"431 1082 LINE",
"330 1187 OFFCURVE",
"278 1233 OFFCURVE",
"278 1374 CURVE SMOOTH",
"278 1534 OFFCURVE",
"318 1605 OFFCURVE",
"419 1605 CURVE SMOOTH",
"528 1605 OFFCURVE",
"543 1496 OFFCURVE",
"543 1283 CURVE SMOOTH",
"543 1165 LINE",
"741 1165 LINE",
"741 1269 LINE SMOOTH",
"741 1573 OFFCURVE",
"705 1782 OFFCURVE",
"419 1782 CURVE SMOOTH",
"146 1782 OFFCURVE",
"79 1614 OFFCURVE",
"79 1349 CURVE SMOOTH",
"79 1151 OFFCURVE",
"188 1025 OFFCURVE",
"288 924 CURVE SMOOTH",
"403 809 LINE SMOOTH",
"507 705 OFFCURVE",
"564 600 OFFCURVE",
"564 443 CURVE SMOOTH",
"564 237 OFFCURVE",
"552 157 OFFCURVE",
"430 157 CURVE SMOOTH",
"313 157 OFFCURVE",
"289 254 OFFCURVE",
"289 501 CURVE SMOOTH",
"289 680 LINE",
"88 680 LINE",
"88 509 LINE SMOOTH",
"88 198 OFFCURVE",
"142 -20 OFFCURVE",
"428 -20 CURVE SMOOTH"
);
}
);
userData = {
com.fontlab.hintData = {
hhints = (
{
position = -20;
width = 177;
},
{
position = 1605;
width = 177;
}
);
vhints = (
{
position = 88;
width = 201;
},
{
position = 543;
width = 198;
},
{
position = 564;
width = 203;
}
);
};
};
width = 828;
},
{
anchors = (
{
name = bottom;
position = "{438, 0}";
},
{
name = top;
position = "{438, 1760}";
}
);
layerId = "AF5BFB92-B2A0-4267-9185-576C8CF6314E";
paths = (
{
closed = 1;
nodes = (
"728.527 -20 OFFCURVE",
"818.527 147 OFFCURVE",
"818.527 463 CURVE SMOOTH",
"818.527 661 OFFCURVE",
"737.527 816 OFFCURVE",
"598.527 966 CURVE SMOOTH",
"453.527 1123 LINE SMOOTH",
"367.527 1215 OFFCURVE",
"324.527 1267 OFFCURVE",
"324.527 1378 CURVE SMOOTH",
"324.527 1499 OFFCURVE",
"358.527 1553 OFFCURVE",
"441.527 1553 CURVE SMOOTH",
"529.527 1553 OFFCURVE",
"548.527 1474 OFFCURVE",
"548.527 1314 CURVE SMOOTH",
"548.527 1188 LINE",
"795.527 1188 LINE",
"795.527 1297 LINE SMOOTH",
"795.527 1603 OFFCURVE",
"726.527 1781 OFFCURVE",
"443.527 1781 CURVE SMOOTH",
"162.527 1781 OFFCURVE",
"72.528 1629 OFFCURVE",
"72.528 1351 CURVE SMOOTH",
"72.528 1158 OFFCURVE",
"157.527 1029 OFFCURVE",
"264.527 918 CURVE SMOOTH",
"394.527 784 LINE",
"506.527 667 OFFCURVE",
"561.527 565 OFFCURVE",
"561.527 433 CURVE SMOOTH",
"561.527 273 OFFCURVE",
"543.527 209 OFFCURVE",
"447.527 209 CURVE SMOOTH",
"353.527 209 OFFCURVE",
"328.527 285 OFFCURVE",
"328.527 475 CURVE SMOOTH",
"328.527 652 LINE",
"74.528 652 LINE",
"74.528 495 LINE SMOOTH",
"74.528 170 OFFCURVE",
"159.527 -20 OFFCURVE",
"452.527 -20 CURVE SMOOTH"
);
}
);
userData = {
com.fontlab.hintData = {
hhints = (
{
position = -20;
width = 229;
},
{
position = 1553;
width = 228;
}
);
vhints = (
{
position = 75;
width = 254;
},
{
position = 549;
width = 247;
},
{
position = 562;
width = 257;
}
);
};
};
width = 875;
}
);
leftKerningGroup = S;
rightKerningGroup = S;
unicode = 0053;
},
{
glyphname = T;
lastChange = "2021-03-12 12:12:23 +0000";
layers = (
{
anchors = (
{
name = bottom;
position = "{271, 0}";
},
{
name = center;
position = "{271, 880}";
},
{
name = top;
position = "{271, 1760}";
}
);
layerId = master01;
paths = (
{
closed = 1;
nodes = (
"355 0 LINE",
"355 1644 LINE",
"520 1644 LINE",
"520 1760 LINE",
"23 1760 LINE",
"23 1644 LINE",
"207 1644 LINE",
"207 0 LINE"
);
}
);
userData = {
com.fontlab.hintData = {
hhints = (
{
position = 0;
width = 21;
},
{
position = 1644;
width = 116;
}
);
vhints = (
{
position = 207;
width = 148;
}
);
};
};
width = 542;
},
{
anchors = (
{
name = bottom;
position = "{315, 0}";
},
{
name = center;
position = "{315, 880}";
},
{
name = top;
position = "{315, 1760}";
}
);
layerId = "5843B4DD-419E-4583-B42F-98D06DF0D314";
paths = (
{
closed = 1;
nodes = (
"424 0 LINE",
"424 1588 LINE",
"605 1588 LINE",
"605 1760 LINE",
"24 1760 LINE",
"24 1588 LINE",
"218 1588 LINE",
"218 0 LINE"
);
}
);
userData = {
com.fontlab.hintData = {
hhints = (
{
position = 0;
width = 21;
},
{
position = 1588;
width = 172;
}
);
vhints = (
{
position = 218;
width = 206;
}
);
};
};
width = 629;
},
{
anchors = (
{
name = bottom;
position = "{354, 0}";
},
{
name = center;
position = "{354, 880}";
},
{
name = top;
position = "{354, 1760}";
}
);
layerId = "AF5BFB92-B2A0-4267-9185-576C8CF6314E";
paths = (
{
closed = 1;
nodes = (
"491.082 0 LINE",
"491.082 1528 LINE",
"689.082 1528 LINE",
"689.082 1760 LINE",
"18.082 1760 LINE",
"18.082 1528 LINE",
"224.082 1528 LINE",
"224.082 0 LINE"
);
}
);
userData = {
com.fontlab.hintData = {
hhints = (
{
position = 0;
width = 21;
},
{
position = 1528;
width = 232;
}
);
vhints = (
{
position = 224;
width = 267;
}
);
};
};
width = 707;
}
);
leftKerningGroup = T;
rightKerningGroup = T;
unicode = 0054;
},
{
glyphname = U;
lastChange = "2021-03-12 12:12:27 +0000";
layers = (
{
anchors = (
{
name = bottom;
position = "{458, 0}";
},
{
name = ogonek;
position = "{529, 0}";
},
{
name = top;
position = "{458, 1760}";
},
{
name = topright;
position = "{895, 1760}";
}
);
layerId = master01;
paths = (
{
closed = 1;
nodes = (
"708 -20 OFFCURVE",
"767 132 OFFCURVE",
"767 452 CURVE SMOOTH",
"767 1760 LINE",
"618 1760 LINE",
"618 456 LINE SMOOTH",
"618 227 OFFCURVE",
"618 102 OFFCURVE",
"460 102 CURVE SMOOTH",
"303 102 OFFCURVE",
"297 228 OFFCURVE",
"297 457 CURVE SMOOTH",
"297 1760 LINE",
"148 1760 LINE",
"148 452 LINE SMOOTH",
"148 132 OFFCURVE",
"210 -20 OFFCURVE",
"459 -20 CURVE SMOOTH"
);
}
);
userData = {
com.fontlab.hintData = {
hhints = (
{
position = -20;
width = 122;
},
{
position = 1740;
width = 20;
}
);
vhints = (
{
position = 148;
width = 149;
},
{
position = 618;
width = 149;
}
);
};
};
width = 915;
},
{
anchors = (
{
name = bottom;
position = "{477, 0}";
},
{
name = ogonek;
position = "{553, 0}";
},
{
name = top;
position = "{477, 1760}";
},
{
name = topright;
position = "{934, 1760}";
}
);
layerId = "5843B4DD-419E-4583-B42F-98D06DF0D314";
paths = (
{
closed = 1;
nodes = (
"740 -21 OFFCURVE",
"825 132 OFFCURVE",
"825 452 CURVE SMOOTH",
"825 1760 LINE",
"619 1760 LINE",
"619 456 LINE SMOOTH",
"619 266 OFFCURVE",
"616 154 OFFCURVE",
"479 154 CURVE SMOOTH",
"343 154 OFFCURVE",
"337 267 OFFCURVE",
"337 457 CURVE SMOOTH",
"337 1760 LINE",
"130 1760 LINE",
"130 452 LINE SMOOTH",
"130 132 OFFCURVE",
"218 -21 OFFCURVE",
"479 -21 CURVE SMOOTH"
);
}
);
userData = {
com.fontlab.hintData = {
hhints = (
{
position = -21;
width = 175;
},
{
position = 1740;
width = 20;
}
);
vhints = (
{
position = 130;
width = 207;
},
{
position = 619;
width = 206;
}
);
};
};
width = 954;
},
{
anchors = (
{
name = bottom;
position = "{507, 0}";
},
{
name = ogonek;
position = "{574, 0}";
},
{
name = top;
position = "{507, 1760}";
},
{
name = topright;
position = "{993, 1760}";
}
);
layerId = "AF5BFB92-B2A0-4267-9185-576C8CF6314E";
paths = (
{
closed = 1;
nodes = (
"781.919 -20 OFFCURVE",
"894.919 132 OFFCURVE",
"894.919 452 CURVE SMOOTH",
"894.919 1760 LINE",
"626.919 1760 LINE",
"626.919 457 LINE SMOOTH",
"626.919 307 OFFCURVE",
"621.919 209 OFFCURVE",
"506.919 209 CURVE SMOOTH",
"393.919 209 OFFCURVE",
"386.919 308 OFFCURVE",
"386.919 457 CURVE SMOOTH",
"386.919 1760 LINE",
"118.919 1760 LINE",
"118.919 452 LINE SMOOTH",
"118.919 132 OFFCURVE",
"233.919 -20 OFFCURVE",
"507.919 -20 CURVE SMOOTH"
);
}
);
userData = {
com.fontlab.hintData = {
hhints = (
{
position = -20;
width = 229;
},
{
position = 1740;
width = 20;
}
);
vhints = (
{
position = 119;
width = 268;
},
{
position = 627;
width = 268;
}
);
};
};
width = 1013;
}
);
leftKerningGroup = U;
rightKerningGroup = U;
unicode = 0055;
},
{
glyphname = V;
lastChange = "2021-03-12 12:12:29 +0000";
layers = (
{
anchors = (
{
name = bottom;
position = "{423, 0}";
},
{
name = top;
position = "{423, 1760}";
}
);
layerId = master01;
paths = (
{
closed = 1;
nodes = (
"515 0 LINE",
"799 1760 LINE",
"656 1760 LINE",
"549 1062 LINE",
"437 318 LINE",
"436 318 LINE",
"310 1062 LINE",
"190 1760 LINE",
"47 1760 LINE",
"360 0 LINE"
);
}
);
userData = {
com.fontlab.hintData = {
hhints = (
{
position = 0;
width = 21;
},
{
position = 1740;
width = 20;
}
);
};
};
width = 846;
},
{
anchors = (
{
name = bottom;
position = "{442, 0}";
},
{
name = top;
position = "{442, 1760}";
}
);
layerId = "5843B4DD-419E-4583-B42F-98D06DF0D314";
paths = (
{
closed = 1;
nodes = (
"575 0 LINE",
"842 1760 LINE",
"647 1760 LINE",
"546 1015 LINE",
"459 360 LINE",
"455 360 LINE",
"355 1015 LINE",
"238 1760 LINE",
"41 1760 LINE",
"334 0 LINE"
);
}
);
userData = {
com.fontlab.hintData = {
hhints = (
{
position = 0;
width = 21;
},
{
position = 1740;
width = 20;
}
);
};
};
width = 883;
},
{
anchors = (
{
name = bottom;
position = "{465, 0}";
},
{
name = top;
position = "{465, 1760}";
}
);
layerId = "AF5BFB92-B2A0-4267-9185-576C8CF6314E";
paths = (
{
closed = 1;
nodes = (
"641.714 0 LINE",
"892.714 1760 LINE",
"642.714 1760 LINE",
"546.714 965 LINE",
"485.714 405 LINE",
"478.714 405 LINE",
"407.714 965 LINE",
"292.714 1760 LINE",
"37.714 1760 LINE",
"310.714 0 LINE"
);
}
);
userData = {
com.fontlab.hintData = {
hhints = (
{
position = 0;
width = 21;
},
{
position = 1740;
width = 20;
}
);
};
};
width = 930;
}
);
leftKerningGroup = W;
rightKerningGroup = W;
unicode = 0056;
},
{
glyphname = W;
lastChange = "2021-03-12 12:07:05 +0000";
layers = (
{
anchors = (
{
name = bottom;
position = "{656, 0}";
},
{
name = top;
position = "{656, 1760}";
}
);
layerId = master01;
paths = (
{
closed = 1;
nodes = (
"443 0 LINE",
"677 1448 LINE",
"895 0 LINE",
"1042 0 LINE",
"1255 1760 LINE",
"1114 1760 LINE",
"966 322 LINE",
"731 1760 LINE",
"607 1760 LINE",
"387 322 LINE",
"203 1760 LINE",
"57 1760 LINE",
"306 0 LINE"
);
}
);
userData = {
com.fontlab.hintData = {
hhints = (
{
position = 0;
width = 21;
},
{
position = 1740;
width = 20;
}
);
vhints = (
{
position = 1114;
width = 141;
}
);
};
};
width = 1312;
},
{
anchors = (
{
name = bottom;
position = "{670, 0}";
},
{
name = top;
position = "{670, 1760}";
}
);
layerId = "5843B4DD-419E-4583-B42F-98D06DF0D314";
paths = (
{
closed = 1;
nodes = (
"486 0 LINE",
"685 1299 LINE",
"873 0 LINE",
"1078 0 LINE",
"1286 1760 LINE",
"1096 1760 LINE",
"969 411 LINE",
"764 1760 LINE",
"595 1760 LINE",
"395 411 LINE",
"245 1760 LINE",
"54 1760 LINE",
"286 0 LINE"
);
}
);
userData = {
com.fontlab.hintData = {
hhints = (
{
position = 0;
width = 21;
},
{
position = 1740;
width = 20;
}
);
vhints = (
{
position = 54;
width = 191;
},
{
position = 1096;
width = 190;
}
);
};
};
width = 1340;
},
{
anchors = (
{
name = bottom;
position = "{680, 0}";
},
{
name = top;
position = "{680, 1760}";
}
);
layerId = "AF5BFB92-B2A0-4267-9185-576C8CF6314E";
paths = (
{
closed = 1;
nodes = (
"527.517 0 LINE",
"689.517 1170 LINE",
"845.517 0 LINE",
"1112.52 0 LINE",
"1314.52 1760 LINE",
"1073.52 1760 LINE",
"959.517 506 LINE",
"794.517 1760 LINE",
"578.517 1760 LINE",
"414.517 506 LINE",
"285.517 1760 LINE",
"45.517 1760 LINE",
"260.517 0 LINE"
);
}
);
userData = {
com.fontlab.hintData = {
hhints = (
{
position = 0;
width = 21;
},
{
position = 1740;
width = 20;
}
);
vhints = (
{
position = 46;
width = 240;
},
{
position = 1074;
width = 241;
}
);
};
};
width = 1360;
}
);
leftKerningGroup = W;
rightKerningGroup = W;
unicode = 0057;
},
{
glyphname = X;
lastChange = "2021-03-12 11:59:59 +0000";
layers = (
{
anchors = (
{
name = bottom;
position = "{355, 0}";
},
{
name = top;
position = "{355, 1760}";
}
);
layerId = master01;
paths = (
{
closed = 1;
nodes = (
"176 0 LINE",
"347 680 LINE",
"523 0 LINE",
"656 0 LINE",
"437 853 LINE",
"659 1760 LINE",
"535 1760 LINE",
"373 1101 LINE",
"204 1760 LINE",
"67 1760 LINE",
"285 919 LINE",
"52 0 LINE"
);
}
);
userData = {
com.fontlab.hintData = {
hhints = (
{
position = 0;
width = 21;
},
{
position = 1740;
width = 20;
}
);
vhints = (
{
position = 52;
width = 604;
}
);
};
};
width = 710;
},
{
anchors = (
{
name = bottom;
position = "{398, 0}";
},
{
name = top;
position = "{398, 1760}";
}
);
layerId = "5843B4DD-419E-4583-B42F-98D06DF0D314";
paths = (
{
closed = 1;
nodes = (
"234 0 LINE",
"392 608 LINE",
"571 0 LINE",
"751 0 LINE",
"499 857 LINE",
"743 1760 LINE",
"557 1760 LINE",
"406 1174 LINE",
"234 1760 LINE",
"53 1760 LINE",
"297 932 LINE",
"45 0 LINE"
);
}
);
userData = {
com.fontlab.hintData = {
hhints = (
{
position = 0;
width = 21;
},
{
position = 1740;
width = 20;
}
);
vhints = (
{
position = 571;
width = 180;
}
);
};
};
width = 796;
},
{
anchors = (
{
name = bottom;
position = "{449, 0}";
},
{
name = top;
position = "{449, 1760}";
}
);
layerId = "AF5BFB92-B2A0-4267-9185-576C8CF6314E";
paths = (
{
closed = 1;
nodes = (
"300.25 0 LINE",
"445.25 541 LINE",
"624.25 0 LINE",
"856.25 0 LINE",
"569.25 859 LINE",
"835.25 1760 LINE",
"584.25 1760 LINE",
"443.25 1237 LINE",
"268.25 1760 LINE",
"42.25 1760 LINE",
"312.25 944 LINE",
"41.25 0 LINE"
);
}
);
userData = {
com.fontlab.hintData = {
hhints = (
{
position = 0;
width = 21;
},
{
position = 1740;
width = 20;
}
);
};
};
width = 897;
}
);
leftKerningGroup = X;
rightKerningGroup = X;
unicode = 0058;
},
{
glyphname = Y;
lastChange = "2021-03-12 12:12:35 +0000";
layers = (
{
anchors = (
{
name = bottom;
position = "{393, 0}";
},
{
name = top;
position = "{393, 1760}";
},
{
name = topleft;
position = "{20, 1760}";
}
);
layerId = master01;
paths = (
{
closed = 1;
nodes = (
"483 0 LINE",
"483 773 LINE",
"770 1760 LINE",
"616 1760 LINE",
"410 982 LINE",
"407 982 LINE",
"166 1760 LINE",
"16 1760 LINE",
"334 772 LINE",
"334 0 LINE"
);
}
);
userData = {
com.fontlab.hintData = {
hhints = (
{
position = 0;
width = 21;
},
{
position = 1740;
width = 20;
}
);
vhints = (
{
position = 334;
width = 149;
},
{
position = 616;
width = 154;
}
);
};
};
width = 786;
},
{
anchors = (
{
name = bottom;
position = "{414, 0}";
},
{
name = top;
position = "{414, 1760}";
},
{
name = topleft;
position = "{20, 1760}";
}
);
layerId = "5843B4DD-419E-4583-B42F-98D06DF0D314";
paths = (
{
closed = 1;
nodes = (
"528 0 LINE",
"528 739 LINE",
"812 1760 LINE",
"605 1760 LINE",
"428 1045 LINE",
"424 1045 LINE",
"220 1760 LINE",
"15 1760 LINE",
"321 739 LINE",
"321 0 LINE"
);
}
);
userData = {
com.fontlab.hintData = {
hhints = (
{
position = 0;
width = 21;
},
{
position = 1740;
width = 20;
}
);
vhints = (
{
position = 321;
width = 207;
}
);
};
};
width = 827;
},
{
anchors = (
{
name = bottom;
position = "{439, 0}";
},
{
name = top;
position = "{439, 1760}";
},
{
name = topleft;
position = "{20, 1760}";
}
);
layerId = "AF5BFB92-B2A0-4267-9185-576C8CF6314E";
paths = (
{
closed = 1;
nodes = (
"580.368 0 LINE",
"580.368 703 LINE",
"861.368 1760 LINE",
"606.368 1760 LINE",
"451.368 1102 LINE",
"447.368 1102 LINE",
"273.368 1760 LINE",
"17.368 1760 LINE",
"312.368 703 LINE",
"312.368 0 LINE"
);
}
);
userData = {
com.fontlab.hintData = {
hhints = (
{
position = 0;
width = 21;
},
{
position = 1740;
width = 20;
}
);
vhints = (
{
position = 312;
width = 268;
}
);
};
};
width = 878;
}
);
leftKerningGroup = Y;
rightKerningGroup = Y;
unicode = 0059;
},
{
glyphname = Z;
lastChange = "2021-03-12 11:29:17 +0000";
layers = (
{
anchors = (
{
name = bottom;
position = "{319, 0}";
},
{
name = center;
position = "{319, 880}";
},
{
name = top;
position = "{319, 1760}";
}
);
layerId = master01;
paths = (
{
closed = 1;
nodes = (
"570 0 LINE",
"570 118 LINE",
"235 118 LINE",
"576 1658 LINE",
"576 1760 LINE",
"94 1760 LINE",
"94 1644 LINE",
"424 1644 LINE",
"85 125 LINE",
"85 0 LINE"
);
}
);
userData = {
com.fontlab.hintData = {
hhints = (
{
position = 0;
width = 118;
},
{
position = 1644;
width = 116;
}
);
vhints = (
{
position = 85;
width = 491;
}
);
};
};
width = 638;
},
{
anchors = (
{
name = bottom;
position = "{345, 0}";
},
{
name = center;
position = "{345, 880}";
},
{
name = top;
position = "{345, 1760}";
}
);
layerId = "5843B4DD-419E-4583-B42F-98D06DF0D314";
paths = (
{
closed = 1;
nodes = (
"638 0 LINE",
"638 172 LINE",
"283 172 LINE",
"646 1602 LINE",
"646 1760 LINE",
"102 1760 LINE",
"102 1588 LINE",
"432 1588 LINE",
"69 179 LINE",
"69 0 LINE"
);
}
);
userData = {
com.fontlab.hintData = {
hhints = (
{
position = 0;
width = 172;
},
{
position = 1588;
width = 172;
}
);
vhints = (
{
position = 69;
width = 577;
}
);
};
};
width = 690;
},
{
anchors = (
{
name = bottom;
position = "{374, 0}";
},
{
name = center;
position = "{374, 880}";
},
{
name = top;
position = "{374, 1760}";
}
);
layerId = "AF5BFB92-B2A0-4267-9185-576C8CF6314E";
paths = (
{
closed = 1;
nodes = (
"700.857 0 LINE",
"700.857 231 LINE",
"343.857 231 LINE",
"708.857 1543 LINE",
"708.857 1760 LINE",
"95.857 1760 LINE",
"95.857 1529 LINE",
"427.857 1529 LINE",
"62.857 238 LINE",
"62.857 0 LINE"
);
}
);
userData = {
com.fontlab.hintData = {
hhints = (
{
position = 0;
width = 231;
},
{
position = 1529;
width = 231;
}
);
vhints = (
{
position = 63;
width = 646;
}
);
};
};
width = 748;
}
);
leftKerningGroup = Z;
rightKerningGroup = Z;
unicode = 005A;
},
{
glyphname = a;
lastChange = "2021-03-12 11:51:06 +0000";
layers = (
{
anchors = (
{
name = bottom;
position = "{422, 0}";
},
{
name = ogonek;
position = "{662, 0}";
},
{
name = top;
position = "{422, 1500}";
}
);
layerId = master01;
paths = (
{
closed = 1;
nodes = (
"489 -11 OFFCURVE",
"551 75 OFFCURVE",
"563 112 CURVE",
"563 0 LINE",
"712 0 LINE",
"712 976 LINE SMOOTH",
"712 1327 OFFCURVE",
"716 1518 OFFCURVE",
"433 1518 CURVE SMOOTH",
"154 1518 OFFCURVE",
"145 1292 OFFCURVE",
"145 1051 CURVE SMOOTH",
"145 1011 LINE",
"295 1011 LINE",
"295 1048 LINE SMOOTH",
"295 1293 OFFCURVE",
"308 1387 OFFCURVE",
"433 1387 CURVE SMOOTH",
"561 1387 OFFCURVE",
"563 1288 OFFCURVE",
"563 1058 CURVE SMOOTH",
"563 956 LINE",
"319 851 OFFCURVE",
"127 782 OFFCURVE",
"127 569 CURVE SMOOTH",
"127 377 LINE SMOOTH",
"127 127 OFFCURVE",
"207 -11 OFFCURVE",
"366 -11 CURVE SMOOTH"
);
},
{
closed = 1;
nodes = (
"297 113 OFFCURVE",
"275 190 OFFCURVE",
"275 390 CURVE SMOOTH",
"275 509 LINE SMOOTH",
"275 702 OFFCURVE",
"314 725 OFFCURVE",
"563 837 CURVE",
"563 211 LINE",
"540 170 OFFCURVE",
"471 113 OFFCURVE",
"393 113 CURVE SMOOTH"
);
}
);
userData = {
com.fontlab.hintData = {
hhints = (
{
position = -11;
width = 124;
},
{
position = 1387;
width = 131;
}
);
vhints = (
{
position = 127;
width = 148;
},
{
position = 145;
width = 150;
},
{
position = 563;
width = 149;
}
);
};
};
width = 844;
},
{
anchors = (
{
name = bottom;
position = "{451, 0}";
},
{
name = ogonek;
position = "{690, 0}";
},
{
name = top;
position = "{451, 1500}";
}
);
layerId = "5843B4DD-419E-4583-B42F-98D06DF0D314";
paths = (
{
closed = 1;
nodes = (
"487 -13 OFFCURVE",
"556 69 OFFCURVE",
"574 130 CURVE",
"574 0 LINE",
"780 0 LINE",
"780 1021 LINE SMOOTH",
"780 1343 OFFCURVE",
"733 1518 OFFCURVE",
"462 1518 CURVE SMOOTH",
"176 1518 OFFCURVE",
"132 1322 OFFCURVE",
"132 1066 CURVE SMOOTH",
"132 1023 LINE",
"336 1023 LINE",
"336 1075 LINE SMOOTH",
"336 1267 OFFCURVE",
"351 1347 OFFCURVE",
"458 1347 CURVE SMOOTH",
"566 1347 OFFCURVE",
"573 1267 OFFCURVE",
"573 1076 CURVE SMOOTH",
"573 960 LINE",
"307 853 OFFCURVE",
"113 796 OFFCURVE",
"113 531 CURVE SMOOTH",
"113 385 LINE",
"114 136 OFFCURVE",
"188 -13 OFFCURVE",
"370 -13 CURVE SMOOTH"
);
},
{
closed = 1;
nodes = (
"343 153 OFFCURVE",
"320 221 OFFCURVE",
"320 391 CURVE SMOOTH",
"320 530 LINE SMOOTH",
"320 701 OFFCURVE",
"367 735 OFFCURVE",
"573 827 CURVE",
"573 256 LINE",
"556 211 OFFCURVE",
"500 153 OFFCURVE",
"428 153 CURVE SMOOTH"
);
}
);
userData = {
com.fontlab.hintData = {
hhints = (
{
position = -13;
width = 166;
},
{
position = 1347;
width = 171;
}
);
vhints = (
{
position = 113;
width = 207;
},
{
position = 132;
width = 204;
},
{
position = 573;
width = 207;
}
);
};
};
width = 902;
},
{
anchors = (
{
name = bottom;
position = "{485, 0}";
},
{
name = ogonek;
position = "{736, 0}";
},
{
name = top;
position = "{485, 1500}";
}
);
layerId = "AF5BFB92-B2A0-4267-9185-576C8CF6314E";
paths = (
{
closed = 1;
nodes = (
"488 -15 OFFCURVE",
"564 63 OFFCURVE",
"589 149 CURVE",
"589 0 LINE",
"856 0 LINE",
"856 1081 LINE SMOOTH",
"856 1372 OFFCURVE",
"754 1518 OFFCURVE",
"495 1518 CURVE SMOOTH",
"201 1518 OFFCURVE",
"121 1355 OFFCURVE",
"121 1081 CURVE SMOOTH",
"121 1036 LINE",
"383 1036 LINE",
"383 1103 LINE SMOOTH",
"383 1240 OFFCURVE",
"400 1304 OFFCURVE",
"487 1304 CURVE SMOOTH",
"575 1304 OFFCURVE",
"585 1246 OFFCURVE",
"585 1095 CURVE SMOOTH",
"585 964 LINE",
"295 856 OFFCURVE",
"101 810 OFFCURVE",
"101 490 CURVE SMOOTH",
"101 394 LINE",
"103 147 OFFCURVE",
"170 -15 OFFCURVE",
"376 -15 CURVE SMOOTH"
);
},
{
closed = 1;
nodes = (
"396 189 OFFCURVE",
"371 247 OFFCURVE",
"371 385 CURVE SMOOTH",
"371 553 LINE SMOOTH",
"371 699 OFFCURVE",
"426 743 OFFCURVE",
"585 814 CURVE",
"585 298 LINE",
"575 248 OFFCURVE",
"534 189 OFFCURVE",
"468 189 CURVE SMOOTH"
);
}
);
userData = {
com.fontlab.hintData = {
hhints = (
{
position = -15;
width = 204;
},
{
position = 0;
width = 21;
},
{
position = 1304;
width = 214;
}
);
vhints = (
{
position = 101;
width = 270;
},
{
position = 121;
width = 262;
},
{
position = 585;
width = 271;
}
);
};
};
width = 970;
}
);
leftKerningGroup = a;
rightKerningGroup = a;
unicode = 0061;
},
{
glyphname = ae;
lastChange = "2021-03-12 11:31:14 +0000";
layers = (
{
anchors = (
{
name = bottom;
position = "{618, 0}";
},
{
name = top;
position = "{638, 1500}";
}
);
layerId = master01;
paths = (
{
closed = 1;
nodes = (
"1128 -18 OFFCURVE",
"1128 201 OFFCURVE",
"1128 505 CURVE SMOOTH",
"1128 556 LINE",
"983 556 LINE",
"983 439 LINE SMOOTH",
"983 231 OFFCURVE",
"976 113 OFFCURVE",
"854 113 CURVE SMOOTH",
"721 113 OFFCURVE",
"712 220 OFFCURVE",
"712 443 CURVE SMOOTH",
"712 754 LINE",
"1132 754 LINE",
"1132 1002 LINE SMOOTH",
"1132 1292 OFFCURVE",
"1129 1518 OFFCURVE",
"860 1518 CURVE SMOOTH",
"754 1518 OFFCURVE",
"684 1485 OFFCURVE",
"638 1427 CURVE",
"608 1487 OFFCURVE",
"549 1518 OFFCURVE",
"433 1518 CURVE SMOOTH",
"154 1518 OFFCURVE",
"145 1292 OFFCURVE",
"145 1051 CURVE SMOOTH",
"145 1011 LINE",
"295 1011 LINE",
"295 1047 LINE SMOOTH",
"295 1291 OFFCURVE",
"307 1388 OFFCURVE",
"433 1388 CURVE SMOOTH",
"560 1388 OFFCURVE",
"566 1296 OFFCURVE",
"566 1065 CURVE SMOOTH",
"566 956 LINE",
"323 849 OFFCURVE",
"126 781 OFFCURVE",
"127 566 CURVE",
"127 375 LINE SMOOTH",
"127 128 OFFCURVE",
"198 -11 OFFCURVE",
"355 -11 CURVE SMOOTH",
"448 -11 OFFCURVE",
"562 58 OFFCURVE",
"609 103 CURVE",
"653 24 OFFCURVE",
"724 -18 OFFCURVE",
"851 -18 CURVE SMOOTH"
);
},
{
closed = 1;
nodes = (
"297 112 OFFCURVE",
"275 189 OFFCURVE",
"275 390 CURVE SMOOTH",
"275 511 LINE SMOOTH",
"275 702 OFFCURVE",
"318 727 OFFCURVE",
"566 840 CURVE",
"566 211 LINE",
"543 170 OFFCURVE",
"471 112 OFFCURVE",
"393 112 CURVE SMOOTH"
);
},
{
closed = 1;
nodes = (
"712 1063 LINE SMOOTH",
"712 1257 OFFCURVE",
"730 1387 OFFCURVE",
"860 1387 CURVE SMOOTH",
"986 1387 OFFCURVE",
"983 1273 OFFCURVE",
"983 1068 CURVE SMOOTH",
"983 874 LINE",
"712 874 LINE"
);
}
);
userData = {
com.fontlab.hintData = {
hhints = (
{
position = -11;
width = 123;
},
{
position = 754;
width = 120;
},
{
position = 1388;
width = 130;
}
);
vhints = (
{
position = 127;
width = 148;
},
{
position = 145;
width = 150;
},
{
position = 566;
width = 146;
},
{
position = 983;
width = 149;
}
);
};
};
width = 1236;
},
{
anchors = (
{
name = bottom;
position = "{678, 0}";
},
{
name = top;
position = "{688, 1500}";
}
);
layerId = "5843B4DD-419E-4583-B42F-98D06DF0D314";
paths = (
{
closed = 1;
nodes = (
"1214 -18 OFFCURVE",
"1238 193 OFFCURVE",
"1238 502 CURVE SMOOTH",
"1238 562 LINE",
"1036 562 LINE",
"1036 451 LINE SMOOTH",
"1036 276 OFFCURVE",
"1032 153 OFFCURVE",
"919 153 CURVE SMOOTH",
"807 153 OFFCURVE",
"792 252 OFFCURVE",
"792 457 CURVE SMOOTH",
"792 740 LINE",
"1241 740 LINE",
"1241 1026 LINE",
"1241 1315 OFFCURVE",
"1200 1518 OFFCURVE",
"925 1518 CURVE SMOOTH",
"814 1518 OFFCURVE",
"739 1483 OFFCURVE",
"691 1418 CURVE",
"654 1484 OFFCURVE",
"589 1518 OFFCURVE",
"475 1518 CURVE SMOOTH",
"189 1518 OFFCURVE",
"145 1322 OFFCURVE",
"145 1066 CURVE SMOOTH",
"145 1023 LINE",
"349 1023 LINE",
"349 1077 LINE SMOOTH",
"349 1270 OFFCURVE",
"365 1347 OFFCURVE",
"470 1347 CURVE SMOOTH",
"579 1347 OFFCURVE",
"585 1252 OFFCURVE",
"586 1063 CURVE",
"586 962 LINE",
"319 854 OFFCURVE",
"128 797 OFFCURVE",
"126 537 CURVE",
"126 390 LINE SMOOTH",
"126 135 OFFCURVE",
"217 -13 OFFCURVE",
"404 -13 CURVE SMOOTH",
"512 -13 OFFCURVE",
"624 56 OFFCURVE",
"670 115 CURVE",
"713 32 OFFCURVE",
"794 -18 OFFCURVE",
"925 -18 CURVE SMOOTH"
);
},
{
closed = 1;
nodes = (
"356 153 OFFCURVE",
"333 221 OFFCURVE",
"333 391 CURVE SMOOTH",
"333 527 LINE SMOOTH",
"333 698 OFFCURVE",
"378 729 OFFCURVE",
"585 822 CURVE",
"585 257 LINE",
"569 212 OFFCURVE",
"513 153 OFFCURVE",
"441 153 CURVE SMOOTH"
);
},
{
closed = 1;
nodes = (
"792 1060 LINE SMOOTH",
"792 1233 OFFCURVE",
"805 1349 OFFCURVE",
"924 1349 CURVE SMOOTH",
"1030 1349 OFFCURVE",
"1036 1252 OFFCURVE",
"1036 1073 CURVE SMOOTH",
"1036 889 LINE",
"792 889 LINE"
);
}
);
userData = {
com.fontlab.hintData = {
hhints = (
{
position = -18;
width = 171;
},
{
position = 740;
width = 149;
},
{
position = 1347;
width = 171;
}
);
vhints = (
{
position = 126;
width = 207;
},
{
position = 145;
width = 204;
},
{
position = 585;
width = 207;
},
{
position = 1036;
width = 202;
}
);
};
};
width = 1356;
},
{
anchors = (
{
name = bottom;
position = "{722, 0}";
},
{
name = top;
position = "{732, 1500}";
}
);
layerId = "AF5BFB92-B2A0-4267-9185-576C8CF6314E";
paths = (
{
closed = 1;
nodes = (
"1288 -18 OFFCURVE",
"1337 184 OFFCURVE",
"1337 499 CURVE SMOOTH",
"1337 569 LINE",
"1074 569 LINE",
"1075 464 LINE SMOOTH",
"1076 323 OFFCURVE",
"1073 196 OFFCURVE",
"971 196 CURVE SMOOTH",
"880 196 OFFCURVE",
"860 287 OFFCURVE",
"860 472 CURVE SMOOTH",
"860 726 LINE",
"1338 726 LINE",
"1338 1053 LINE SMOOTH",
"1338 1340 OFFCURVE",
"1257 1518 OFFCURVE",
"977 1518 CURVE SMOOTH",
"860 1518 OFFCURVE",
"780 1480 OFFCURVE",
"730 1409 CURVE",
"686 1481 OFFCURVE",
"614 1518 OFFCURVE",
"501 1518 CURVE SMOOTH",
"207 1518 OFFCURVE",
"128 1355 OFFCURVE",
"128 1081 CURVE SMOOTH",
"128 1036 LINE",
"389 1036 LINE",
"389 1109 LINE SMOOTH",
"389 1247 OFFCURVE",
"409 1304 OFFCURVE",
"492 1304 CURVE SMOOTH",
"581 1304 OFFCURVE",
"592 1205 OFFCURVE",
"592 1061 CURVE",
"592 969 LINE",
"301 860 OFFCURVE",
"112 814 OFFCURVE",
"107 506 CURVE",
"107 406 LINE SMOOTH",
"107 142 OFFCURVE",
"219 -15 OFFCURVE",
"438 -15 CURVE SMOOTH",
"563 -15 OFFCURVE",
"671 54 OFFCURVE",
"718 128 CURVE",
"760 41 OFFCURVE",
"851 -18 OFFCURVE",
"985 -18 CURVE SMOOTH"
);
},
{
closed = 1;
nodes = (
"402 197 OFFCURVE",
"377 255 OFFCURVE",
"377 393 CURVE SMOOTH",
"377 544 LINE SMOOTH",
"377 694 OFFCURVE",
"427 731 OFFCURVE",
"591 803 CURVE",
"591 306 LINE",
"581 256 OFFCURVE",
"540 197 OFFCURVE",
"474 197 CURVE SMOOTH"
);
},
{
closed = 1;
nodes = (
"860 1057 LINE SMOOTH",
"860 1206 OFFCURVE",
"868 1309 OFFCURVE",
"975 1309 CURVE SMOOTH",
"1060 1309 OFFCURVE",
"1074 1229 OFFCURVE",
"1074 1079 CURVE SMOOTH",
"1074 906 LINE",
"860 906 LINE"
);
}
);
userData = {
com.fontlab.hintData = {
hhints = (
{
position = -15;
width = 212;
},
{
position = 726;
width = 180;
},
{
position = 1309;
width = 209;
}
);
vhints = (
{
position = 107;
width = 270;
},
{
position = 127;
width = 262;
},
{
position = 591;
width = 269;
},
{
position = 1074;
width = 263;
}
);
};
};
width = 1443;
}
);
leftKerningGroup = a;
rightKerningGroup = e;
unicode = 00E6;
},
{
glyphname = b;
lastChange = "2021-03-12 11:31:27 +0000";
layers = (
{
anchors = (
{
name = bottom;
position = "{437, 0}";
},
{
name = top;
position = "{237, 1782}";
}
);
layerId = master01;
paths = (
{
closed = 1;
nodes = (
"717 -11 OFFCURVE",
"746 204 OFFCURVE",
"746 490 CURVE SMOOTH",
"746 1012 LINE SMOOTH",
"746 1297 OFFCURVE",
"708 1528 OFFCURVE",
"480 1518 CURVE SMOOTH",
"407 1515 OFFCURVE",
"324 1455 OFFCURVE",
"309 1372 CURVE",
"309 1783 LINE",
"160 1783 LINE",
"160 0 LINE",
"309 0 LINE",
"309 114 LINE",
"350 19 OFFCURVE",
"433 -11 OFFCURVE",
"510 -11 CURVE SMOOTH"
);
},
{
closed = 1;
nodes = (
"335 115 OFFCURVE",
"309 221 OFFCURVE",
"309 460 CURVE SMOOTH",
"309 1059 LINE SMOOTH",
"309 1352 OFFCURVE",
"371 1386 OFFCURVE",
"467 1386 CURVE SMOOTH",
"585 1386 OFFCURVE",
"597 1258 OFFCURVE",
"597 1061 CURVE SMOOTH",
"597 466 LINE SMOOTH",
"597 214 OFFCURVE",
"569 116 OFFCURVE",
"460 115 CURVE"
);
}
);
userData = {
com.fontlab.hintData = {
hhints = (
{
position = -11;
width = 126;
},
{
position = 1386;
width = 132;
},
{
position = 1763;
width = 20;
}
);
vhints = (
{
position = 160;
width = 149;
},
{
position = 597;
width = 149;
}
);
};
};
width = 874;
},
{
anchors = (
{
name = bottom;
position = "{470, 0}";
},
{
name = top;
position = "{250, 1779}";
}
);
layerId = "5843B4DD-419E-4583-B42F-98D06DF0D314";
paths = (
{
closed = 1;
nodes = (
"770 -13 OFFCURVE",
"816 192 OFFCURVE",
"816 463 CURVE SMOOTH",
"816 1040 LINE SMOOTH",
"816 1310 OFFCURVE",
"768 1518 OFFCURVE",
"545 1518 CURVE SMOOTH",
"464 1518 OFFCURVE",
"377 1466 OFFCURVE",
"354 1381 CURVE",
"354 1779 LINE",
"149 1779 LINE",
"149 0 LINE",
"354 0 LINE",
"354 126 LINE",
"396 25 OFFCURVE",
"476 -13 OFFCURVE",
"558 -13 CURVE SMOOTH"
);
},
{
closed = 1;
nodes = (
"376 154 OFFCURVE",
"354 255 OFFCURVE",
"354 458 CURVE SMOOTH",
"354 1066 LINE SMOOTH",
"354 1304 OFFCURVE",
"404 1346 OFFCURVE",
"494 1346 CURVE SMOOTH",
"599 1346 OFFCURVE",
"610 1234 OFFCURVE",
"610 1067 CURVE SMOOTH",
"610 463 LINE SMOOTH",
"610 250 OFFCURVE",
"590 155 OFFCURVE",
"490 154 CURVE"
);
}
);
userData = {
com.fontlab.hintData = {
hhints = (
{
position = -13;
width = 167;
},
{
position = 1346;
width = 172;
},
{
position = 1759;
width = 20;
}
);
vhints = (
{
position = 149;
width = 205;
},
{
position = 610;
width = 206;
}
);
};
};
width = 940;
},
{
anchors = (
{
name = bottom;
position = "{499, 0}";
},
{
name = top;
position = "{269, 1775}";
}
);
layerId = "AF5BFB92-B2A0-4267-9185-576C8CF6314E";
paths = (
{
closed = 1;
nodes = (
"824 -15 OFFCURVE",
"888 179 OFFCURVE",
"888 434 CURVE SMOOTH",
"888 1069 LINE SMOOTH",
"888 1333 OFFCURVE",
"825 1522 OFFCURVE",
"588 1518 CURVE SMOOTH",
"515 1517 OFFCURVE",
"430 1470 OFFCURVE",
"400 1392 CURVE",
"400 1775 LINE",
"135 1775 LINE",
"135 0 LINE",
"400 0 LINE",
"400 140 LINE",
"442 31 OFFCURVE",
"519 -15 OFFCURVE",
"608 -15 CURVE SMOOTH"
);
},
{
closed = 1;
nodes = (
"418 197 OFFCURVE",
"400 291 OFFCURVE",
"400 456 CURVE SMOOTH",
"400 1074 LINE SMOOTH",
"400 1253 OFFCURVE",
"438 1304 OFFCURVE",
"521 1304 CURVE SMOOTH",
"612 1304 OFFCURVE",
"622 1209 OFFCURVE",
"622 1073 CURVE SMOOTH",
"622 459 LINE SMOOTH",
"622 287 OFFCURVE",
"611 197 OFFCURVE",
"519 197 CURVE SMOOTH"
);
}
);
userData = {
com.fontlab.hintData = {
hhints = (
{
position = -15;
width = 212;
},
{
position = 0;
width = 21;
},
{
position = 1304;
width = 214;
},
{
position = 1755;
width = 20;
}
);
vhints = (
{
position = 135;
width = 265;
},
{
position = 622;
width = 266;
}
);
};
};
width = 998;
}
);
rightKerningGroup = o;
unicode = 0062;
},
{
glyphname = c;
lastChange = "2021-03-12 11:51:09 +0000";
layers = (
{
anchors = (
{
name = bottom;
position = "{402, 0}";
},
{
name = top;
position = "{402, 1500}";
}
);
layerId = master01;
paths = (
{
closed = 1;
nodes = (
"702 -18 OFFCURVE",
"700 205 OFFCURVE",
"700 517 CURVE SMOOTH",
"700 562 LINE",
"549 562 LINE",
"549 449 LINE SMOOTH",
"549 239 OFFCURVE",
"544 119 OFFCURVE",
"419 119 CURVE SMOOTH",
"287 119 OFFCURVE",
"277 222 OFFCURVE",
"277 455 CURVE SMOOTH",
"277 1057 LINE SMOOTH",
"277 1254 OFFCURVE",
"292 1381 OFFCURVE",
"426 1381 CURVE SMOOTH",
"550 1381 OFFCURVE",
"549 1274 OFFCURVE",
"549 1065 CURVE SMOOTH",
"549 973 LINE",
"700 973 LINE",
"700 1020 LINE SMOOTH",
"700 1314 OFFCURVE",
"698 1518 OFFCURVE",
"425 1518 CURVE SMOOTH",
"163 1518 OFFCURVE",
"128 1300 OFFCURVE",
"128 1028 CURVE SMOOTH",
"128 511 LINE SMOOTH",
"128 202 OFFCURVE",
"145 -18 OFFCURVE",
"418 -18 CURVE SMOOTH"
);
}
);
userData = {
com.fontlab.hintData = {
hhints = (
{
position = -18;
width = 137;
},
{
position = 1381;
width = 137;
}
);
vhints = (
{
position = 128;
width = 149;
},
{
position = 549;
width = 151;
}
);
};
};
width = 803;
},
{
anchors = (
{
name = bottom;
position = "{439, 0}";
},
{
name = top;
position = "{439, 1500}";
}
);
layerId = "5843B4DD-419E-4583-B42F-98D06DF0D314";
paths = (
{
closed = 1;
nodes = (
"734 -18 OFFCURVE",
"775 184 OFFCURVE",
"775 479 CURVE SMOOTH",
"775 576 LINE",
"573 576 LINE",
"573 431 LINE SMOOTH",
"573 260 OFFCURVE",
"564 158 OFFCURVE",
"456 158 CURVE SMOOTH",
"343 158 OFFCURVE",
"330 249 OFFCURVE",
"330 435 CURVE SMOOTH",
"330 1073 LINE SMOOTH",
"330 1239 OFFCURVE",
"348 1342 OFFCURVE",
"462 1342 CURVE SMOOTH",
"570 1342 OFFCURVE",
"573 1250 OFFCURVE",
"573 1079 CURVE SMOOTH",
"573 947 LINE",
"775 947 LINE",
"775 1051 LINE SMOOTH",
"775 1332 OFFCURVE",
"730 1518 OFFCURVE",
"464 1518 CURVE SMOOTH",
"176 1518 OFFCURVE",
"124 1308 OFFCURVE",
"124 1008 CURVE SMOOTH",
"124 506 LINE SMOOTH",
"124 190 OFFCURVE",
"169 -18 OFFCURVE",
"459 -18 CURVE SMOOTH"
);
}
);
userData = {
com.fontlab.hintData = {
hhints = (
{
position = -18;
width = 176;
},
{
position = 1342;
width = 176;
}
);
vhints = (
{
position = 124;
width = 206;
},
{
position = 573;
width = 202;
}
);
};
};
width = 878;
},
{
anchors = (
{
name = bottom;
position = "{469, 0}";
},
{
name = top;
position = "{469, 1500}";
}
);
layerId = "AF5BFB92-B2A0-4267-9185-576C8CF6314E";
paths = (
{
closed = 1;
nodes = (
"759 -18 OFFCURVE",
"847 163 OFFCURVE",
"847 439 CURVE SMOOTH",
"847 591 LINE",
"591 591 LINE",
"591 413 LINE SMOOTH",
"591 283 OFFCURVE",
"577 199 OFFCURVE",
"487 199 CURVE SMOOTH",
"395 199 OFFCURVE",
"377 278 OFFCURVE",
"377 414 CURVE SMOOTH",
"377 1090 LINE SMOOTH",
"377 1222 OFFCURVE",
"400 1301 OFFCURVE",
"491 1301 CURVE SMOOTH",
"583 1301 OFFCURVE",
"591 1224 OFFCURVE",
"591 1094 CURVE SMOOTH",
"591 920 LINE",
"847 920 LINE",
"847 1085 LINE SMOOTH",
"847 1351 OFFCURVE",
"756 1518 OFFCURVE",
"497 1518 CURVE SMOOTH",
"181 1518 OFFCURVE",
"110 1317 OFFCURVE",
"110 986 CURVE SMOOTH",
"110 500 LINE SMOOTH",
"110 177 OFFCURVE",
"186 -18 OFFCURVE",
"494 -18 CURVE SMOOTH"
);
}
);
userData = {
com.fontlab.hintData = {
hhints = (
{
position = -18;
width = 217;
},
{
position = 1301;
width = 217;
}
);
vhints = (
{
position = 110;
width = 267;
},
{
position = 591;
width = 256;
}
);
};
};
width = 938;
}
);
leftKerningGroup = o;
rightKerningGroup = o;
unicode = 0063;
},
{
glyphname = d;
lastChange = "2021-03-12 11:31:37 +0000";
layers = (
{
anchors = (
{
name = "#exit";
position = "{605, 1783}";
},
{
name = bottom;
position = "{428, 0}";
},
{
name = center;
position = "{550, 1632}";
},
{
name = top;
position = "{636, 1782}";
},
{
name = topright;
position = "{835, 1500}";
}
);
layerId = master01;
paths = (
{
closed = 1;
nodes = (
"439 -11 OFFCURVE",
"523 18 OFFCURVE",
"564 114 CURVE",
"564 0 LINE",
"714 0 LINE",
"714 1783 LINE",
"564 1783 LINE",
"564 1393 LINE",
"538 1459 OFFCURVE",
"476 1518 OFFCURVE",
"405 1518 CURVE SMOOTH",
"172 1518 OFFCURVE",
"128 1298 OFFCURVE",
"128 1008 CURVE SMOOTH",
"128 481 LINE SMOOTH",
"128 200 OFFCURVE",
"163 -11 OFFCURVE",
"365 -11 CURVE SMOOTH"
);
},
{
closed = 1;
nodes = (
"290 114 OFFCURVE",
"278 243 OFFCURVE",
"278 436 CURVE SMOOTH",
"278 1030 LINE SMOOTH",
"278 1285 OFFCURVE",
"307 1384 OFFCURVE",
"416 1385 CURVE",
"542 1385 OFFCURVE",
"565 1279 OFFCURVE",
"565 1037 CURVE SMOOTH",
"565 434 LINE SMOOTH",
"565 142 OFFCURVE",
"503 114 OFFCURVE",
"409 114 CURVE SMOOTH"
);
}
);
userData = {
com.fontlab.hintData = {
hhints = (
{
position = -11;
width = 125;
},
{
position = 1385;
width = 133;
},
{
position = 1763;
width = 20;
}
);
vhints = (
{
position = 128;
width = 150;
},
{
position = 564;
width = 150;
}
);
};
};
width = 855;
},
{
anchors = (
{
name = "#exit";
position = "{682, 1779}";
},
{
name = bottom;
position = "{470, 0}";
},
{
name = center;
position = "{606, 1639}";
},
{
name = top;
position = "{683, 1779}";
},
{
name = topright;
position = "{919, 1500}";
}
);
layerId = "5843B4DD-419E-4583-B42F-98D06DF0D314";
paths = (
{
closed = 1;
nodes = (
"468 -13 OFFCURVE",
"546 27 OFFCURVE",
"586 126 CURVE",
"586 0 LINE",
"792 0 LINE",
"792 1779 LINE",
"586 1779 LINE",
"586 1400 LINE",
"554 1466 OFFCURVE",
"488 1518 OFFCURVE",
"410 1518 CURVE SMOOTH",
"185 1518 OFFCURVE",
"124 1314 OFFCURVE",
"124 1047 CURVE SMOOTH",
"124 480 LINE SMOOTH",
"124 200 OFFCURVE",
"157 -13 OFFCURVE",
"379 -13 CURVE SMOOTH"
);
},
{
closed = 1;
nodes = (
"347 154 OFFCURVE",
"330 265 OFFCURVE",
"330 439 CURVE SMOOTH",
"330 1045 LINE SMOOTH",
"330 1251 OFFCURVE",
"355 1345 OFFCURVE",
"455 1346 CURVE",
"566 1346 OFFCURVE",
"587 1245 OFFCURVE",
"587 1050 CURVE SMOOTH",
"587 448 LINE SMOOTH",
"587 209 OFFCURVE",
"544 154 OFFCURVE",
"450 154 CURVE SMOOTH"
);
}
);
userData = {
com.fontlab.hintData = {
hhints = (
{
position = 0;
width = 154;
},
{
position = 1346;
width = 172;
},
{
position = 1759;
width = 20;
}
);
vhints = (
{
position = 124;
width = 206;
},
{
position = 586;
width = 206;
}
);
};
};
width = 939;
},
{
anchors = (
{
name = "#exit";
position = "{746, 1775}";
},
{
name = bottom;
position = "{499, 0}";
},
{
name = center;
position = "{672, 1633}";
},
{
name = top;
position = "{729, 1775}";
},
{
name = topright;
position = "{978, 1500}";
}
);
layerId = "AF5BFB92-B2A0-4267-9185-576C8CF6314E";
paths = (
{
closed = 1;
nodes = (
"489 -15 OFFCURVE",
"561 37 OFFCURVE",
"601 139 CURVE",
"601 0 LINE",
"866 0 LINE",
"866 1775 LINE",
"601 1775 LINE",
"601 1407 LINE",
"563 1473 OFFCURVE",
"492 1518 OFFCURVE",
"407 1518 CURVE SMOOTH",
"190 1518 OFFCURVE",
"110 1331 OFFCURVE",
"110 1090 CURVE SMOOTH",
"110 479 LINE SMOOTH",
"110 201 OFFCURVE",
"142 -15 OFFCURVE",
"386 -15 CURVE SMOOTH"
);
},
{
closed = 1;
nodes = (
"400 196 OFFCURVE",
"377 288 OFFCURVE",
"377 443 CURVE SMOOTH",
"377 1060 LINE SMOOTH",
"377 1215 OFFCURVE",
"397 1303 OFFCURVE",
"488 1303 CURVE SMOOTH",
"583 1303 OFFCURVE",
"602 1209 OFFCURVE",
"602 1063 CURVE SMOOTH",
"602 463 LINE SMOOTH",
"602 280 OFFCURVE",
"580 196 OFFCURVE",
"484 196 CURVE SMOOTH"
);
}
);
userData = {
com.fontlab.hintData = {
hhints = (
{
position = -15;
width = 211;
},
{
position = 0;
width = 21;
},
{
position = 1303;
width = 215;
},
{
position = 1755;
width = 20;
}
);
vhints = (
{
position = 110;
width = 267;
},
{
position = 601;
width = 265;
}
);
};
};
width = 998;
}
);
leftKerningGroup = o;
unicode = 0064;
},
{
glyphname = eth;
lastChange = "2021-02-19 13:16:14 +0000";
layers = (
{
layerId = master01;
paths = (
{
closed = 1;
nodes = (
"704 -20 OFFCURVE",
"763 212 OFFCURVE",
"763 506 CURVE SMOOTH",
"763 958 LINE SMOOTH",
"763 1070 OFFCURVE",
"753 1456 OFFCURVE",
"732 1516 CURVE",
"931 1635 LINE",
"878 1735 LINE",
"678 1616 LINE",
"589 1732 OFFCURVE",
"450 1783 OFFCURVE",
"293 1780 CURVE",
"293 1640 LINE",
"369 1644 OFFCURVE",
"471 1619 OFFCURVE",
"543 1534 CURVE",
"318 1399 LINE",
"371 1299 LINE",
"596 1434 LINE",
"608 1392 OFFCURVE",
"616 1009 OFFCURVE",
"616 1009 CURVE",
"573 1070 OFFCURVE",
"492 1101 OFFCURVE",
"433 1103 CURVE SMOOTH",
"181 1114 OFFCURVE",
"111 959 OFFCURVE",
"111 557 CURVE SMOOTH",
"111 442 LINE SMOOTH",
"111 145 OFFCURVE",
"177 -20 OFFCURVE",
"431 -20 CURVE SMOOTH"
);
},
{
closed = 1;
nodes = (
"297 107 OFFCURVE",
"260 170 OFFCURVE",
"260 446 CURVE SMOOTH",
"260 545 LINE SMOOTH",
"260 869 OFFCURVE",
"289 978 OFFCURVE",
"425 978 CURVE SMOOTH",
"519 978 OFFCURVE",
"595 930 OFFCURVE",
"614 926 CURVE",
"614 505 LINE SMOOTH",
"614 227 OFFCURVE",
"581 107 OFFCURVE",
"431 107 CURVE SMOOTH"
);
}
);
userData = {
com.fontlab.hintData = {
hhints = (
{
position = -20;
width = 127;
},
{
position = 978;
width = 125;
},
{
position = 1640;
width = 140;
}
);
vhints = (
{
position = 111;
width = 149;
},
{
position = 614;
width = 149;
}
);
};
};
width = 910;
},
{
layerId = "5843B4DD-419E-4583-B42F-98D06DF0D314";
paths = (
{
closed = 1;
nodes = (
"760 -20 OFFCURVE",
"822 194 OFFCURVE",
"822 516 CURVE SMOOTH",
"822 909 LINE SMOOTH",
"822 972 OFFCURVE",
"795 1420 OFFCURVE",
"753 1507 CURVE",
"942 1617 LINE",
"883 1735 LINE",
"683 1620 LINE",
"600 1724 OFFCURVE",
"480 1773 OFFCURVE",
"349 1779 CURVE",
"282 1635 LINE",
"354 1626 OFFCURVE",
"442 1595 OFFCURVE",
"507 1520 CURVE",
"299 1399 LINE",
"358 1281 LINE",
"575 1407 LINE",
"598 1351 OFFCURVE",
"612 1041 OFFCURVE",
"612 1025 CURVE",
"572 1073 OFFCURVE",
"506 1099 OFFCURVE",
"438 1101 CURVE SMOOTH",
"187 1109 OFFCURVE",
"104 947 OFFCURVE",
"104 571 CURVE SMOOTH",
"104 462 LINE SMOOTH",
"104 148 OFFCURVE",
"183 -20 OFFCURVE",
"461 -20 CURVE SMOOTH"
);
},
{
closed = 1;
nodes = (
"344 158 OFFCURVE",
"311 215 OFFCURVE",
"311 440 CURVE SMOOTH",
"311 578 LINE SMOOTH",
"311 836 OFFCURVE",
"338 927 OFFCURVE",
"454 927 CURVE SMOOTH",
"539 927 OFFCURVE",
"602 882 OFFCURVE",
"616 854 CURVE",
"616 481 LINE SMOOTH",
"616 255 OFFCURVE",
"585 158 OFFCURVE",
"460 158 CURVE SMOOTH"
);
}
);
userData = {
com.fontlab.hintData = {
hhints = (
{
position = -20;
width = 178;
},
{
position = 927;
width = 174;
},
{
position = 1635;
width = 144;
}
);
vhints = (
{
position = 104;
width = 207;
},
{
position = 616;
width = 206;
}
);
};
};
width = 968;
},
{
layerId = "AF5BFB92-B2A0-4267-9185-576C8CF6314E";
paths = (
{
closed = 1;
nodes = (
"817 -21 OFFCURVE",
"883 174 OFFCURVE",
"883 527 CURVE SMOOTH",
"883 857 LINE SMOOTH",
"883 1022 OFFCURVE",
"838 1384 OFFCURVE",
"773 1500 CURVE",
"952 1598 LINE",
"886 1735 LINE",
"687 1625 LINE",
"610 1715 OFFCURVE",
"510 1765 OFFCURVE",
"406 1781 CURVE",
"269 1630 LINE",
"335 1607 OFFCURVE",
"410 1569 OFFCURVE",
"466 1505 CURVE",
"277 1399 LINE",
"342 1262 LINE",
"551 1378 LINE",
"586 1307 OFFCURVE",
"605 1085 OFFCURVE",
"605 1042 CURVE",
"569 1076 OFFCURVE",
"518 1097 OFFCURVE",
"441 1098 CURVE SMOOTH",
"191 1103 OFFCURVE",
"95 935 OFFCURVE",
"95 586 CURVE SMOOTH",
"95 483 LINE SMOOTH",
"95 152 OFFCURVE",
"188 -21 OFFCURVE",
"491 -21 CURVE SMOOTH"
);
},
{
closed = 1;
nodes = (
"393 212 OFFCURVE",
"363 264 OFFCURVE",
"363 434 CURVE SMOOTH",
"363 613 LINE SMOOTH",
"363 801 OFFCURVE",
"389 873 OFFCURVE",
"482 873 CURVE SMOOTH",
"558 873 OFFCURVE",
"607 831 OFFCURVE",
"615 776 CURVE",
"615 456 LINE SMOOTH",
"615 285 OFFCURVE",
"588 212 OFFCURVE",
"489 212 CURVE SMOOTH"
);
}
);
userData = {
com.fontlab.hintData = {
hhints = (
{
position = -21;
width = 233;
},
{
position = 873;
width = 225;
},
{
position = 1761;
width = 20;
}
);
vhints = (
{
position = 95;
width = 268;
},
{
position = 615;
width = 268;
}
);
};
};
width = 1013;
}
);
unicode = 00F0;
},
{
glyphname = e;
lastChange = "2021-03-12 11:48:59 +0000";
layers = (
{
anchors = (
{
name = bottom;
position = "{401, 0}";
},
{
name = ogonek;
position = "{485, 0}";
},
{
name = top;
position = "{401, 1500}";
}
);
layerId = master01;
paths = (
{
closed = 1;
nodes = (
"696 -18 OFFCURVE",
"694 204 OFFCURVE",
"694 507 CURVE SMOOTH",
"694 556 LINE",
"549 556 LINE",
"549 444 LINE SMOOTH",
"549 236 OFFCURVE",
"542 113 OFFCURVE",
"419 113 CURVE SMOOTH",
"289 113 OFFCURVE",
"277 220 OFFCURVE",
"277 450 CURVE SMOOTH",
"277 752 LINE",
"698 752 LINE",
"698 1002 LINE SMOOTH",
"698 1292 OFFCURVE",
"695 1518 OFFCURVE",
"425 1518 CURVE SMOOTH",
"156 1518 OFFCURVE",
"128 1296 OFFCURVE",
"128 1014 CURVE SMOOTH",
"128 511 LINE SMOOTH",
"128 201 OFFCURVE",
"146 -18 OFFCURVE",
"421 -18 CURVE SMOOTH"
);
},
{
closed = 1;
nodes = (
"277 1060 LINE SMOOTH",
"277 1257 OFFCURVE",
"295 1387 OFFCURVE",
"426 1387 CURVE SMOOTH",
"551 1387 OFFCURVE",
"549 1273 OFFCURVE",
"549 1068 CURVE SMOOTH",
"549 877 LINE",
"277 877 LINE"
);
}
);
userData = {
com.fontlab.hintData = {
hhints = (
{
position = -18;
width = 131;
},
{
position = 752;
width = 125;
},
{
position = 1387;
width = 131;
}
);
vhints = (
{
position = 128;
width = 149;
},
{
position = 549;
width = 149;
}
);
};
};
width = 802;
},
{
anchors = (
{
name = bottom;
position = "{441, 0}";
},
{
name = ogonek;
position = "{526, 0}";
},
{
name = top;
position = "{441, 1500}";
}
);
layerId = "5843B4DD-419E-4583-B42F-98D06DF0D314";
paths = (
{
closed = 1;
nodes = (
"747 -18 OFFCURVE",
"774 186 OFFCURVE",
"774 498 CURVE SMOOTH",
"774 562 LINE",
"573 562 LINE",
"573 441 LINE SMOOTH",
"573 265 OFFCURVE",
"569 153 OFFCURVE",
"456 153 CURVE SMOOTH",
"340 153 OFFCURVE",
"330 254 OFFCURVE",
"330 444 CURVE SMOOTH",
"330 743 LINE",
"778 743 LINE",
"778 1026 LINE SMOOTH",
"778 1315 OFFCURVE",
"737 1518 OFFCURVE",
"462 1518 CURVE SMOOTH",
"190 1518 OFFCURVE",
"124 1317 OFFCURVE",
"124 1035 CURVE SMOOTH",
"124 505 LINE SMOOTH",
"124 192 OFFCURVE",
"167 -18 OFFCURVE",
"454 -18 CURVE SMOOTH"
);
},
{
closed = 1;
nodes = (
"329 1066 LINE SMOOTH",
"329 1233 OFFCURVE",
"343 1349 OFFCURVE",
"462 1349 CURVE SMOOTH",
"567 1349 OFFCURVE",
"573 1252 OFFCURVE",
"573 1073 CURVE SMOOTH",
"573 882 LINE",
"329 882 LINE"
);
}
);
userData = {
com.fontlab.hintData = {
hhints = (
{
position = -18;
width = 171;
},
{
position = 743;
width = 139;
},
{
position = 1349;
width = 169;
}
);
vhints = (
{
position = 124;
width = 206;
},
{
position = 573;
width = 205;
}
);
};
};
width = 881;
},
{
anchors = (
{
name = bottom;
position = "{473, 0}";
},
{
name = ogonek;
position = "{543, 0}";
},
{
name = top;
position = "{473, 1500}";
}
);
layerId = "AF5BFB92-B2A0-4267-9185-576C8CF6314E";
paths = (
{
closed = 1;
nodes = (
"793 -18 OFFCURVE",
"852 167 OFFCURVE",
"852 489 CURVE SMOOTH",
"852 569 LINE",
"590 569 LINE",
"590 437 LINE SMOOTH",
"590 296 OFFCURVE",
"589 196 OFFCURVE",
"487 196 CURVE SMOOTH",
"385 196 OFFCURVE",
"377 291 OFFCURVE",
"377 437 CURVE SMOOTH",
"377 732 LINE",
"854 732 LINE",
"854 1053 LINE SMOOTH",
"854 1340 OFFCURVE",
"773 1518 OFFCURVE",
"493 1518 CURVE SMOOTH",
"218 1518 OFFCURVE",
"110 1338 OFFCURVE",
"110 1058 CURVE SMOOTH",
"110 499 LINE SMOOTH",
"110 183 OFFCURVE",
"180 -18 OFFCURVE",
"481 -18 CURVE SMOOTH"
);
},
{
closed = 1;
nodes = (
"376 1072 LINE SMOOTH",
"376 1208 OFFCURVE",
"385 1309 OFFCURVE",
"491 1309 CURVE SMOOTH",
"576 1309 OFFCURVE",
"590 1229 OFFCURVE",
"590 1079 CURVE SMOOTH",
"590 887 LINE",
"376 887 LINE"
);
}
);
userData = {
com.fontlab.hintData = {
hhints = (
{
position = -18;
width = 214;
},
{
position = 732;
width = 155;
},
{
position = 1309;
width = 209;
}
);
vhints = (
{
position = 110;
width = 267;
},
{
position = 590;
width = 264;
}
);
};
};
width = 945;
}
);
leftKerningGroup = o;
rightKerningGroup = o;
unicode = 0065;
},
{
glyphname = f;
lastChange = "2021-03-12 11:42:20 +0000";
layers = (
{
anchors = (
{
name = bottom;
position = "{304, 0}";
},
{
name = top;
position = "{394, 1782}";
}
);
layerId = master01;
paths = (
{
closed = 1;
nodes = (
"369 0 LINE",
"369 1329 LINE",
"568 1329 LINE",
"568 1442 LINE",
"369 1442 LINE",
"369 1534 LINE SMOOTH",
"369 1606 OFFCURVE",
"376 1657 OFFCURVE",
"487 1657 CURVE SMOOTH",
"509 1657 OFFCURVE",
"536 1655 OFFCURVE",
"568 1650 CURVE",
"568 1771 LINE",
"565 1772 OFFCURVE",
"505 1789 OFFCURVE",
"433 1789 CURVE SMOOTH",
"272 1789 OFFCURVE",
"219 1688 OFFCURVE",
"219 1512 CURVE SMOOTH",
"219 1442 LINE",
"79 1442 LINE",
"79 1329 LINE",
"219 1329 LINE",
"219 0 LINE"
);
}
);
userData = {
com.fontlab.hintData = {
hhints = (
{
position = 0;
width = 21;
},
{
position = 1329;
width = 113;
},
{
position = 1657;
width = 132;
}
);
vhints = (
{
position = 219;
width = 150;
}
);
};
};
width = 608;
},
{
anchors = (
{
name = bottom;
position = "{326, 0}";
},
{
name = top;
position = "{406, 1779}";
}
);
layerId = "5843B4DD-419E-4583-B42F-98D06DF0D314";
paths = (
{
closed = 1;
nodes = (
"407 0 LINE",
"407 1291 LINE",
"583 1291 LINE",
"583 1442 LINE",
"407 1442 LINE",
"407 1523 LINE SMOOTH",
"407 1588 OFFCURVE",
"422 1628 OFFCURVE",
"512 1628 CURVE SMOOTH",
"532 1628 OFFCURVE",
"556 1626 OFFCURVE",
"583 1622 CURVE",
"583 1765 LINE",
"577 1767 OFFCURVE",
"513 1786 OFFCURVE",
"434 1786 CURVE SMOOTH",
"273 1786 OFFCURVE",
"202 1688 OFFCURVE",
"202 1515 CURVE SMOOTH",
"202 1442 LINE",
"73 1442 LINE",
"73 1291 LINE",
"202 1291 LINE",
"202 0 LINE"
);
}
);
userData = {
com.fontlab.hintData = {
hhints = (
{
position = 0;
width = 21;
},
{
position = 1291;
width = 151;
},
{
position = 1628;
width = 158;
}
);
vhints = (
{
position = 202;
width = 205;
}
);
};
};
width = 651;
},
{
anchors = (
{
name = bottom;
position = "{330, 0}";
},
{
name = top;
position = "{400, 1775}";
}
);
layerId = "AF5BFB92-B2A0-4267-9185-576C8CF6314E";
paths = (
{
closed = 1;
nodes = (
"447 0 LINE",
"447 1250 LINE",
"599 1250 LINE",
"599 1441 LINE",
"447 1441 LINE",
"447 1511 LINE SMOOTH",
"447 1569 OFFCURVE",
"471 1597 OFFCURVE",
"539 1597 CURVE SMOOTH",
"557 1597 OFFCURVE",
"577 1596 OFFCURVE",
"599 1593 CURVE",
"599 1760 LINE",
"583 1766 OFFCURVE",
"516 1784 OFFCURVE",
"434 1784 CURVE SMOOTH",
"273 1784 OFFCURVE",
"183 1687 OFFCURVE",
"183 1519 CURVE SMOOTH",
"183 1441 LINE",
"66 1441 LINE",
"66 1250 LINE",
"182 1250 LINE",
"182 0 LINE"
);
}
);
userData = {
com.fontlab.hintData = {
hhints = (
{
position = 0;
width = 21;
},
{
position = 1250;
width = 191;
},
{
position = 1597;
width = 187;
}
);
vhints = (
{
position = 182;
width = 265;
}
);
};
};
width = 660;
}
);
leftKerningGroup = f;
rightKerningGroup = f;
unicode = 0066;
},
{
glyphname = g;
lastChange = "2021-03-12 11:32:42 +0000";
layers = (
{
anchors = (
{
name = bottom;
position = "{429, -647}";
},
{
name = top;
position = "{429, 1500}";
}
);
layerId = master01;
paths = (
{
closed = 1;
nodes = (
"673 -220 OFFCURVE",
"714 -11 OFFCURVE",
"714 97 CURVE SMOOTH",
"714 1500 LINE",
"565 1500 LINE",
"565 1412 LINE",
"536 1489 OFFCURVE",
"473 1517 OFFCURVE",
"406 1518 CURVE SMOOTH",
"203 1522 OFFCURVE",
"128 1299 OFFCURVE",
"128 1013 CURVE SMOOTH",
"128 632 LINE SMOOTH",
"128 345 OFFCURVE",
"172 127 OFFCURVE",
"381 127 CURVE SMOOTH",
"455 127 OFFCURVE",
"522 148 OFFCURVE",
"565 245 CURVE",
"565 80 LINE SMOOTH",
"565 -33 OFFCURVE",
"511 -101 OFFCURVE",
"427 -105 CURVE",
"314 -109 OFFCURVE",
"239 -68 OFFCURVE",
"191 -32 CURVE",
"134 -147 LINE",
"199 -197 OFFCURVE",
"313 -238 OFFCURVE",
"423 -232 CURVE SMOOTH"
);
},
{
closed = 1;
nodes = (
"309 255 OFFCURVE",
"277 364 OFFCURVE",
"277 611 CURVE SMOOTH",
"277 1052 LINE SMOOTH",
"277 1251 OFFCURVE",
"291 1387 OFFCURVE",
"424 1387 CURVE SMOOTH",
"546 1387 OFFCURVE",
"565 1280 OFFCURVE",
"565 1050 CURVE SMOOTH",
"565 614 LINE SMOOTH",
"565 314 OFFCURVE",
"525 255 OFFCURVE",
"436 255 CURVE SMOOTH"
);
}
);
userData = {
com.fontlab.hintData = {
hhints = (
{
position = -232;
width = 127;
},
{
position = 127;
width = 128;
},
{
position = 1387;
width = 131;
},
{
position = 1480;
width = 20;
}
);
vhints = (
{
position = 128;
width = 149;
},
{
position = 565;
width = 149;
}
);
};
};
width = 858;
},
{
anchors = (
{
name = bottom;
position = "{465, -647}";
},
{
name = top;
position = "{465, 1500}";
}
);
layerId = "5843B4DD-419E-4583-B42F-98D06DF0D314";
paths = (
{
closed = 1;
nodes = (
"720 -220 OFFCURVE",
"788 -32 OFFCURVE",
"788 140 CURVE SMOOTH",
"788 1500 LINE",
"583 1500 LINE",
"583 1390 LINE",
"555 1477 OFFCURVE",
"490 1517 OFFCURVE",
"405 1518 CURVE SMOOTH",
"193 1521 OFFCURVE",
"122 1312 OFFCURVE",
"122 1038 CURVE SMOOTH",
"122 608 LINE SMOOTH",
"122 340 OFFCURVE",
"176 140 OFFCURVE",
"387 140 CURVE SMOOTH",
"474 140 OFFCURVE",
"544 165 OFFCURVE",
"583 264 CURVE",
"583 121 LINE SMOOTH",
"583 7 OFFCURVE",
"529 -65 OFFCURVE",
"436 -67 CURVE SMOOTH",
"331 -70 OFFCURVE",
"252 -33 OFFCURVE",
"193 7 CURVE",
"119 -133 LINE",
"198 -196 OFFCURVE",
"309 -233 OFFCURVE",
"446 -229 CURVE SMOOTH"
);
},
{
closed = 1;
nodes = (
"354 303 OFFCURVE",
"328 404 OFFCURVE",
"328 603 CURVE SMOOTH",
"328 1070 LINE SMOOTH",
"328 1233 OFFCURVE",
"341 1347 OFFCURVE",
"456 1347 CURVE SMOOTH",
"560 1347 OFFCURVE",
"583 1250 OFFCURVE",
"583 1068 CURVE SMOOTH",
"583 605 LINE SMOOTH",
"583 359 OFFCURVE",
"546 303 OFFCURVE",
"466 303 CURVE SMOOTH"
);
}
);
userData = {
com.fontlab.hintData = {
hhints = (
{
position = -229;
width = 162;
},
{
position = 140;
width = 163;
},
{
position = 1347;
width = 171;
},
{
position = 1480;
width = 20;
}
);
vhints = (
{
position = 122;
width = 206;
},
{
position = 583;
width = 205;
}
);
};
};
width = 929;
},
{
anchors = (
{
name = bottom;
position = "{495, -647}";
},
{
name = top;
position = "{495, 1500}";
}
);
layerId = "AF5BFB92-B2A0-4267-9185-576C8CF6314E";
paths = (
{
closed = 1;
nodes = (
"768 -220 OFFCURVE",
"865 -53 OFFCURVE",
"865 185 CURVE SMOOTH",
"865 1500 LINE",
"600 1500 LINE",
"600 1367 LINE",
"573 1464 OFFCURVE",
"505 1518 OFFCURVE",
"402 1518 CURVE SMOOTH",
"181 1520 OFFCURVE",
"114 1326 OFFCURVE",
"114 1065 CURVE SMOOTH",
"114 582 LINE SMOOTH",
"114 335 OFFCURVE",
"178 153 OFFCURVE",
"391 153 CURVE SMOOTH",
"492 153 OFFCURVE",
"565 184 OFFCURVE",
"600 284 CURVE",
"600 165 LINE SMOOTH",
"600 49 OFFCURVE",
"545 -26 OFFCURVE",
"444 -27 CURVE",
"346 -29 OFFCURVE",
"264 4 OFFCURVE",
"193 49 CURVE",
"100 -118 LINE",
"195 -195 OFFCURVE",
"303 -228 OFFCURVE",
"469 -225 CURVE SMOOTH"
);
},
{
closed = 1;
nodes = (
"399 354 OFFCURVE",
"381 446 OFFCURVE",
"381 594 CURVE SMOOTH",
"381 1088 LINE SMOOTH",
"381 1213 OFFCURVE",
"392 1304 OFFCURVE",
"489 1304 CURVE SMOOTH",
"573 1304 OFFCURVE",
"600 1219 OFFCURVE",
"600 1087 CURVE SMOOTH",
"600 596 LINE SMOOTH",
"600 408 OFFCURVE",
"567 354 OFFCURVE",
"496 354 CURVE SMOOTH"
);
}
);
userData = {
com.fontlab.hintData = {
hhints = (
{
position = -225;
width = 198;
},
{
position = 153;
width = 201;
},
{
position = 1304;
width = 214;
},
{
position = 1480;
width = 20;
}
);
vhints = (
{
position = 114;
width = 267;
},
{
position = 600;
width = 265;
}
);
};
};
width = 990;
}
);
leftKerningGroup = o;
rightKerningGroup = g;
unicode = 0067;
},
{
glyphname = h;
lastChange = "2021-02-19 15:36:19 +0000";
layers = (
{
anchors = (
{
name = bottom;
position = "{461, 0}";
},
{
name = center;
position = "{314, 1632}";
},
{
name = top;
position = "{236, 1782}";
}
);
layerId = master01;
paths = (
{
closed = 1;
nodes = (
"309 0 LINE",
"309 1191 LINE SMOOTH",
"309 1340 OFFCURVE",
"402 1381 OFFCURVE",
"485 1381 CURVE SMOOTH",
"565 1381 OFFCURVE",
"623 1346 OFFCURVE",
"623 1201 CURVE SMOOTH",
"623 0 LINE",
"773 0 LINE",
"773 1211 LINE SMOOTH",
"773 1425 OFFCURVE",
"681 1519 OFFCURVE",
"553 1519 CURVE SMOOTH",
"436 1519 OFFCURVE",
"335 1438 OFFCURVE",
"309 1353 CURVE",
"309 1783 LINE",
"160 1783 LINE",
"160 0 LINE"
);
}
);
userData = {
com.fontlab.hintData = {
hhints = (
{
position = 0;
width = 21;
},
{
position = 1381;
width = 138;
},
{
position = 1763;
width = 20;
}
);
vhints = (
{
position = 160;
width = 149;
},
{
position = 623;
width = 150;
}
);
};
};
width = 921;
},
{
anchors = (
{
name = bottom;
position = "{485, 0}";
},
{
name = center;
position = "{316, 1639}";
},
{
name = top;
position = "{245, 1779}";
}
);
layerId = "5843B4DD-419E-4583-B42F-98D06DF0D314";
paths = (
{
closed = 1;
nodes = (
"350 0 LINE",
"350 1154 LINE SMOOTH",
"350 1285 OFFCURVE",
"419 1342 OFFCURVE",
"502 1342 CURVE SMOOTH",
"576 1342 OFFCURVE",
"625 1301 OFFCURVE",
"625 1179 CURVE SMOOTH",
"625 0 LINE",
"830 0 LINE",
"830 1196 LINE SMOOTH",
"830 1413 OFFCURVE",
"739 1519 OFFCURVE",
"589 1519 CURVE SMOOTH",
"469 1519 OFFCURVE",
"376 1434 OFFCURVE",
"350 1341 CURVE",
"350 1779 LINE",
"145 1779 LINE",
"145 0 LINE"
);
}
);
userData = {
com.fontlab.hintData = {
hhints = (
{
position = 0;
width = 21;
},
{
position = 1342;
width = 177;
},
{
position = 1759;
width = 20;
}
);
vhints = (
{
position = 145;
width = 205;
},
{
position = 625;
width = 205;
}
);
};
};
width = 969;
},
{
anchors = (
{
name = bottom;
position = "{510, 0}";
},
{
name = center;
position = "{322, 1633}";
},
{
name = top;
position = "{271, 1775}";
}
);
layerId = "AF5BFB92-B2A0-4267-9185-576C8CF6314E";
paths = (
{
closed = 1;
nodes = (
"400 0 LINE",
"400 1115 LINE SMOOTH",
"400 1227 OFFCURVE",
"444 1301 OFFCURVE",
"527 1301 CURVE SMOOTH",
"595 1301 OFFCURVE",
"633 1252 OFFCURVE",
"633 1156 CURVE SMOOTH",
"633 0 LINE",
"897 0 LINE",
"897 1181 LINE SMOOTH",
"897 1399 OFFCURVE",
"807 1518 OFFCURVE",
"633 1518 CURVE SMOOTH",
"510 1518 OFFCURVE",
"426 1430 OFFCURVE",
"400 1328 CURVE",
"400 1775 LINE",
"135 1775 LINE",
"135 0 LINE"
);
}
);
userData = {
com.fontlab.hintData = {
hhints = (
{
position = 0;
width = 21;
},
{
position = 1301;
width = 217;
},
{
position = 1755;
width = 20;
}
);
vhints = (
{
position = 135;
width = 265;
},
{
position = 633;
width = 264;
}
);
};
};
width = 1020;
}
);
unicode = 0068;
},
{
glyphname = hbar;
lastChange = "2021-03-12 11:35:41 +0000";
layers = (
{
background = {
paths = (
{
closed = 1;
nodes = (
"623 1601 LINE",
"623 1682 LINE",
"0 1682 LINE",
"0 1601 LINE"
);
}
);
};
components = (
{
name = h;
},
{
name = strokeshortcomb;
transform = "{1, 0, 0, 1, 30, -10}";
}
);
layerId = master01;
userData = {
com.fontlab.hintData = {
hhints = (
{
position = 0;
width = 21;
},
{
position = 1381;
width = 138;
},
{
position = 1561;
width = 121;
},
{
position = 1763;
width = 20;
}
);
vhints = (
{
position = 160;
width = 149;
},
{
position = 623;
width = 150;
}
);
};
};
width = 921;
},
{
background = {
paths = (
{
closed = 1;
nodes = (
"561 1576 LINE",
"561 1692 LINE",
"0 1692 LINE",
"0 1576 LINE"
);
}
);
};
components = (
{
name = h;
},
{
name = strokeshortcomb;
transform = "{1, 0, 0, 1, 14, -8}";
}
);
layerId = "5843B4DD-419E-4583-B42F-98D06DF0D314";
userData = {
com.fontlab.hintData = {
hhints = (
{
position = 0;
width = 21;
},
{
position = 1342;
width = 177;
},
{
position = 1576;
width = 116;
},
{
position = 1759;
width = 20;
}
);
vhints = (
{
position = 145;
width = 205;
},
{
position = 625;
width = 205;
}
);
};
};
width = 969;
},
{
background = {
paths = (
{
closed = 1;
nodes = (
"663 1593 LINE",
"663 1702 LINE",
"0 1702 LINE",
"0 1593 LINE"
);
}
);
};
components = (
{
name = h;
},
{
name = strokeshortcomb;
transform = "{1, 0, 0, 1, -4, -11}";
}
);
layerId = "AF5BFB92-B2A0-4267-9185-576C8CF6314E";
userData = {
com.fontlab.hintData = {
hhints = (
{
position = 0;
width = 21;
},
{
position = 1301;
width = 217;
},
{
position = 1593;
width = 109;
},
{
position = 1755;
width = 20;
}
);
vhints = (
{
position = 135;
width = 265;
},
{
position = 633;
width = 264;
}
);
};
};
width = 1020;
}
);
unicode = 0127;
},
{
glyphname = dotlessi;
lastChange = "2021-02-19 13:20:56 +0000";
layers = (
{
anchors = (
{
name = bottom;
position = "{237, 0}";
},
{
name = ogonek;
position = "{262, 0}";
},
{
name = top;
position = "{237, 1500}";
}
);
layerId = master01;
paths = (
{
closed = 1;
nodes = (
"312 0 LINE",
"312 1500 LINE",
"162 1500 LINE",
"162 0 LINE"
);
}
);
userData = {
com.fontlab.hintData = {
hhints = (
{
position = 0;
width = 21;
},
{
position = 1480;
width = 20;
}
);
vhints = (
{
position = 162;
width = 150;
}
);
};
};
width = 474;
},
{
anchors = (
{
name = bottom;
position = "{252, 0}";
},
{
name = ogonek;
position = "{285, 0}";
},
{
name = top;
position = "{252, 1500}";
}
);
layerId = "5843B4DD-419E-4583-B42F-98D06DF0D314";
paths = (
{
closed = 1;
nodes = (
"355 0 LINE",
"355 1500 LINE",
"149 1500 LINE",
"149 0 LINE"
);
}
);
userData = {
com.fontlab.hintData = {
hhints = (
{
position = 0;
width = 21;
},
{
position = 1480;
width = 20;
}
);
vhints = (
{
position = 149;
width = 206;
}
);
};
};
width = 504;
},
{
anchors = (
{
name = bottom;
position = "{269, 0}";
},
{
name = ogonek;
position = "{301, 0}";
},
{
name = top;
position = "{269, 1500}";
}
);
layerId = "AF5BFB92-B2A0-4267-9185-576C8CF6314E";
paths = (
{
closed = 1;
nodes = (
"401 0 LINE",
"401 1500 LINE",
"136 1500 LINE",
"136 0 LINE"
);
}
);
userData = {
com.fontlab.hintData = {
hhints = (
{
position = 0;
width = 21;
},
{
position = 1480;
width = 20;
}
);
vhints = (
{
position = 136;
width = 265;
}
);
};
};
width = 537;
}
);
unicode = 0131;
},
{
glyphname = jdotless;
lastChange = "2021-03-12 11:32:59 +0000";
layers = (
{
anchors = (
{
name = bottom;
position = "{240, -647}";
},
{
name = top;
position = "{251, 1500}";
}
);
layerId = master01;
paths = (
{
closed = 1;
nodes = (
"251 -223 OFFCURVE",
"325 -190 OFFCURVE",
"325 -34 CURVE SMOOTH",
"325 1500 LINE",
"176 1500 LINE",
"176 -44 LINE SMOOTH",
"176 -81 OFFCURVE",
"168 -114 OFFCURVE",
"133 -114 CURVE SMOOTH",
"109 -114 OFFCURVE",
"88 -112 OFFCURVE",
"68 -110 CURVE",
"68 -216 LINE",
"88 -219 OFFCURVE",
"133 -223 OFFCURVE",
"176 -223 CURVE SMOOTH"
);
}
);
width = 479;
},
{
anchors = (
{
name = bottom;
position = "{260, -647}";
},
{
name = top;
position = "{274, 1500}";
}
);
layerId = "5843B4DD-419E-4583-B42F-98D06DF0D314";
paths = (
{
closed = 1;
nodes = (
"288 -211 OFFCURVE",
"375 -151 OFFCURVE",
"375 20 CURVE SMOOTH",
"375 1500 LINE",
"170 1500 LINE",
"170 10 LINE SMOOTH",
"170 -27 OFFCURVE",
"159 -59 OFFCURVE",
"120 -59 CURVE SMOOTH",
"97 -59 OFFCURVE",
"75 -58 OFFCURVE",
"62 -56 CURVE",
"62 -200 LINE",
"85 -204 OFFCURVE",
"136 -211 OFFCURVE",
"200 -211 CURVE SMOOTH"
);
}
);
width = 520;
},
{
anchors = (
{
name = bottom;
position = "{298, -273}";
},
{
name = top;
position = "{298, 1500}";
}
);
layerId = "AF5BFB92-B2A0-4267-9185-576C8CF6314E";
paths = (
{
closed = 1;
nodes = (
"351 -197 OFFCURVE",
"433 -109 OFFCURVE",
"433 79 CURVE SMOOTH",
"433 1500 LINE",
"168 1500 LINE",
"168 69 LINE SMOOTH",
"168 32 OFFCURVE",
"153 1 OFFCURVE",
"105 1 CURVE SMOOTH",
"88 1 OFFCURVE",
"74 2 OFFCURVE",
"60 5 CURVE",
"60 -180 LINE",
"93 -189 OFFCURVE",
"146 -197 OFFCURVE",
"221 -197 CURVE SMOOTH"
);
}
);
width = 556;
}
);
leftKerningGroup = j;
rightKerningGroup = j;
unicode = 0237;
},
{
glyphname = k;
lastChange = "2021-03-12 11:33:05 +0000";
layers = (
{
anchors = (
{
name = bottom;
position = "{418, 0}";
},
{
name = top;
position = "{418, 1782}";
}
);
layerId = master01;
paths = (
{
closed = 1;
nodes = (
"309 0 LINE",
"309 742 LINE",
"651 0 LINE",
"807 0 LINE",
"448 756 LINE",
"789 1500 LINE",
"640 1500 LINE",
"309 760 LINE",
"309 1783 LINE",
"160 1783 LINE",
"160 0 LINE"
);
}
);
userData = {
com.fontlab.hintData = {
hhints = (
{
position = 0;
width = 21;
},
{
position = 1480;
width = 20;
},
{
position = 1763;
width = 20;
}
);
vhints = (
{
position = 160;
width = 149;
}
);
};
};
width = 835;
},
{
anchors = (
{
name = bottom;
position = "{448, 0}";
},
{
name = top;
position = "{448, 1779}";
}
);
layerId = "5843B4DD-419E-4583-B42F-98D06DF0D314";
paths = (
{
closed = 1;
nodes = (
"354 0 LINE",
"354 730 LINE",
"662 0 LINE",
"873 0 LINE",
"540 759 LINE",
"856 1500 LINE",
"649 1500 LINE",
"354 787 LINE",
"354 1779 LINE",
"149 1779 LINE",
"149 0 LINE"
);
}
);
userData = {
com.fontlab.hintData = {
hhints = (
{
position = 0;
width = 21;
},
{
position = 1480;
width = 20;
},
{
position = 1759;
width = 20;
}
);
vhints = (
{
position = 149;
width = 205;
}
);
};
};
width = 896;
},
{
anchors = (
{
name = bottom;
position = "{481, 0}";
},
{
name = top;
position = "{481, 1775}";
}
);
layerId = "AF5BFB92-B2A0-4267-9185-576C8CF6314E";
paths = (
{
closed = 1;
nodes = (
"400 0 LINE",
"400 713 LINE",
"672 0 LINE",
"942 0 LINE",
"636 762 LINE",
"925 1500 LINE",
"656 1500 LINE",
"400 818 LINE",
"400 1775 LINE",
"135 1775 LINE",
"135 0 LINE"
);
}
);
userData = {
com.fontlab.hintData = {
hhints = (
{
position = 0;
width = 21;
},
{
position = 1480;
width = 20;
},
{
position = 1755;
width = 20;
}
);
vhints = (
{
position = 135;
width = 265;
}
);
};
};
width = 961;
}
);
rightKerningGroup = k;
unicode = 006B;
},
{
glyphname = kgreenlandic;
lastChange = "2021-03-12 11:33:05 +0000";
layers = (
{
anchors = (
{
name = bottom;
position = "{418, 0}";
},
{
name = top;
position = "{418, 1500}";
}
);
layerId = master01;
paths = (
{
closed = 1;
nodes = (
"309 0 LINE",
"309 742 LINE",
"651 0 LINE",
"807 0 LINE",
"448 756 LINE",
"789 1500 LINE",
"640 1500 LINE",
"309 760 LINE",
"309 1500 LINE",
"160 1500 LINE",
"160 0 LINE"
);
}
);
userData = {
com.fontlab.hintData = {
hhints = (
{
position = 0;
width = 21;
},
{
position = 1480;
width = 20;
}
);
vhints = (
{
position = 160;
width = 149;
}
);
};
};
width = 835;
},
{
anchors = (
{
name = bottom;
position = "{433, 0}";
},
{
name = top;
position = "{433, 1500}";
}
);
layerId = "5843B4DD-419E-4583-B42F-98D06DF0D314";
paths = (
{
closed = 1;
nodes = (
"352 0 LINE",
"352 730 LINE",
"660 0 LINE",
"871 0 LINE",
"538 759 LINE",
"854 1500 LINE",
"647 1500 LINE",
"352 787 LINE",
"352 1500 LINE",
"147 1500 LINE",
"147 0 LINE"
);
}
);
userData = {
com.fontlab.hintData = {
hhints = (
{
position = 0;
width = 21;
},
{
position = 1480;
width = 20;
}
);
vhints = (
{
position = 147;
width = 205;
}
);
};
};
width = 866;
},
{
anchors = (
{
name = bottom;
position = "{469, 0}";
},
{
name = top;
position = "{469, 1500}";
}
);
layerId = "AF5BFB92-B2A0-4267-9185-576C8CF6314E";
paths = (
{
closed = 1;
nodes = (
"397 0 LINE",
"397 713 LINE",
"669 0 LINE",
"939 0 LINE",
"633 762 LINE",
"922 1500 LINE",
"653 1500 LINE",
"397 818 LINE",
"397 1500 LINE",
"132 1500 LINE",
"132 0 LINE"
);
}
);
userData = {
com.fontlab.hintData = {
hhints = (
{
position = 0;
width = 21;
},
{
position = 1480;
width = 20;
}
);
vhints = (
{
position = 132;
width = 265;
}
);
};
};
width = 937;
}
);
rightKerningGroup = k;
unicode = 0138;
},
{
glyphname = l;
lastChange = "2021-03-12 11:48:46 +0000";
layers = (
{
anchors = (
{
name = "#exit";
position = "{198, 1783}";
},
{
name = bottom;
position = "{233, 0}";
},
{
name = center;
position = "{233, 891}";
},
{
name = top;
position = "{233, 1782}";
},
{
name = topright;
position = "{445, 1782}";
}
);
layerId = master01;
paths = (
{
closed = 1;
nodes = (
"312 0 LINE",
"312 1783 LINE",
"162 1783 LINE",
"162 0 LINE"
);
}
);
userData = {
com.fontlab.hintData = {
hhints = (
{
position = 0;
width = 21;
},
{
position = 1763;
width = 20;
}
);
vhints = (
{
position = 162;
width = 150;
}
);
};
};
width = 465;
},
{
anchors = (
{
name = "#exit";
position = "{229, 1779}";
},
{
name = bottom;
position = "{252, 0}";
},
{
name = center;
position = "{252, 890}";
},
{
name = top;
position = "{252, 1779}";
},
{
name = topright;
position = "{484, 1779}";
}
);
layerId = "5843B4DD-419E-4583-B42F-98D06DF0D314";
paths = (
{
closed = 1;
nodes = (
"352 0 LINE",
"352 1779 LINE",
"147 1779 LINE",
"147 0 LINE"
);
}
);
userData = {
com.fontlab.hintData = {
hhints = (
{
position = 0;
width = 21;
},
{
position = 1759;
width = 20;
}
);
vhints = (
{
position = 147;
width = 205;
}
);
};
};
width = 503;
},
{
anchors = (
{
name = "#exit";
position = "{271, 1775}";
},
{
name = bottom;
position = "{266, 0}";
},
{
name = center;
position = "{266, 888}";
},
{
name = top;
position = "{266, 1775}";
},
{
name = topright;
position = "{501, 1775}";
}
);
layerId = "AF5BFB92-B2A0-4267-9185-576C8CF6314E";
paths = (
{
closed = 1;
nodes = (
"396 0 LINE",
"396 1775 LINE",
"132 1775 LINE",
"132 0 LINE"
);
}
);
userData = {
com.fontlab.hintData = {
hhints = (
{
position = 0;
width = 21;
},
{
position = 1755;
width = 20;
}
);
vhints = (
{
position = 132;
width = 264;
}
);
};
};
width = 531;
}
);
unicode = 006C;
},
{
glyphname = lslash;
lastChange = "2021-03-12 11:50:17 +0000";
layers = (
{
anchors = (
{
name = bottom;
position = "{327, 0}";
},
{
name = center;
position = "{327, 891}";
},
{
name = top;
position = "{327, 1782}";
},
{
name = topright;
position = "{539, 1782}";
}
);
layerId = master01;
paths = (
{
closed = 1;
nodes = (
"610 1010 LINE",
"610 1153 LINE",
"99 921 LINE",
"99 778 LINE"
);
},
{
closed = 1;
nodes = (
"406 0 LINE",
"406 1783 LINE",
"256 1783 LINE",
"256 0 LINE"
);
}
);
userData = {
com.fontlab.hintData = {
hhints = (
{
position = 0;
width = 21;
},
{
position = 1763;
width = 20;
}
);
vhints = (
{
position = 99;
width = 511;
},
{
position = 256;
width = 150;
}
);
};
};
width = 709;
},
{
anchors = (
{
name = bottom;
position = "{320, 0}";
},
{
name = center;
position = "{320, 890}";
},
{
name = top;
position = "{320, 1779}";
},
{
name = topright;
position = "{552, 1779}";
}
);
layerId = "5843B4DD-419E-4583-B42F-98D06DF0D314";
paths = (
{
closed = 1;
nodes = (
"601 986 LINE",
"601 1153 LINE",
"75 921 LINE",
"75 754 LINE"
);
},
{
closed = 1;
nodes = (
"420 0 LINE",
"420 1779 LINE",
"215 1779 LINE",
"215 0 LINE"
);
}
);
userData = {
com.fontlab.hintData = {
hhints = (
{
position = 0;
width = 21;
},
{
position = 1759;
width = 20;
}
);
vhints = (
{
position = 75;
width = 526;
},
{
position = 215;
width = 205;
}
);
};
};
width = 676;
},
{
anchors = (
{
name = bottom;
position = "{307, 0}";
},
{
name = center;
position = "{307, 888}";
},
{
name = top;
position = "{307, 1775}";
},
{
name = topright;
position = "{552, 1775}";
}
);
layerId = "AF5BFB92-B2A0-4267-9185-576C8CF6314E";
paths = (
{
closed = 1;
nodes = (
"591 960 LINE",
"591 1153 LINE",
"49 921 LINE",
"49 728 LINE"
);
},
{
closed = 1;
nodes = (
"437 0 LINE",
"437 1775 LINE",
"173 1775 LINE",
"173 0 LINE"
);
}
);
userData = {
com.fontlab.hintData = {
hhints = (
{
position = 0;
width = 21;
},
{
position = 1755;
width = 20;
}
);
vhints = (
{
position = 49;
width = 542;
},
{
position = 173;
width = 264;
}
);
};
};
width = 640;
}
);
unicode = 0142;
},
{
glyphname = m;
lastChange = "2021-02-19 12:30:30 +0000";
layers = (
{
anchors = (
{
name = bottom;
position = "{680, 0}";
},
{
name = top;
position = "{680, 1500}";
}
);
layerId = master01;
paths = (
{
closed = 1;
nodes = (
"309 0 LINE",
"309 1209 LINE SMOOTH",
"309 1324 OFFCURVE",
"370 1381 OFFCURVE",
"475 1381 CURVE SMOOTH",
"554 1381 OFFCURVE",
"611 1348 OFFCURVE",
"611 1226 CURVE SMOOTH",
"611 0 LINE",
"760 0 LINE",
"760 1217 LINE SMOOTH",
"760 1346 OFFCURVE",
"802 1381 OFFCURVE",
"925 1381 CURVE SMOOTH",
"1006 1381 OFFCURVE",
"1062 1345 OFFCURVE",
"1062 1226 CURVE SMOOTH",
"1062 0 LINE",
"1212 0 LINE",
"1212 1217 LINE SMOOTH",
"1212 1429 OFFCURVE",
"1117 1519 OFFCURVE",
"993 1519 CURVE SMOOTH",
"883 1519 OFFCURVE",
"787 1456 OFFCURVE",
"739 1367 CURVE",
"705 1469 OFFCURVE",
"633 1519 OFFCURVE",
"538 1519 CURVE SMOOTH",
"424 1519 OFFCURVE",
"334 1436 OFFCURVE",
"309 1351 CURVE",
"309 1500 LINE",
"160 1500 LINE",
"160 0 LINE"
);
}
);
userData = {
com.fontlab.hintData = {
hhints = (
{
position = 0;
width = 21;
},
{
position = 1381;
width = 138;
},
{
position = 1480;
width = 20;
}
);
vhints = (
{
position = 160;
width = 149;
},
{
position = 611;
width = 149;
},
{
position = 1062;
width = 150;
}
);
};
};
width = 1360;
},
{
anchors = (
{
name = bottom;
position = "{715, 0}";
},
{
name = top;
position = "{715, 1500}";
}
);
layerId = "5843B4DD-419E-4583-B42F-98D06DF0D314";
paths = (
{
closed = 1;
nodes = (
"348 0 LINE",
"348 1168 LINE SMOOTH",
"348 1274 OFFCURVE",
"398 1342 OFFCURVE",
"496 1342 CURVE SMOOTH",
"571 1342 OFFCURVE",
"614 1297 OFFCURVE",
"614 1191 CURVE SMOOTH",
"614 0 LINE",
"820 0 LINE",
"820 1184 LINE SMOOTH",
"820 1303 OFFCURVE",
"863 1342 OFFCURVE",
"966 1342 CURVE SMOOTH",
"1038 1342 OFFCURVE",
"1086 1303 OFFCURVE",
"1086 1190 CURVE SMOOTH",
"1086 0 LINE",
"1291 0 LINE",
"1291 1184 LINE SMOOTH",
"1291 1405 OFFCURVE",
"1207 1519 OFFCURVE",
"1048 1519 CURVE SMOOTH",
"932 1519 OFFCURVE",
"843 1458 OFFCURVE",
"794 1367 CURVE",
"756 1473 OFFCURVE",
"680 1519 OFFCURVE",
"582 1519 CURVE SMOOTH",
"458 1519 OFFCURVE",
"375 1439 OFFCURVE",
"348 1344 CURVE",
"348 1500 LINE",
"143 1500 LINE",
"143 0 LINE"
);
}
);
userData = {
com.fontlab.hintData = {
hhints = (
{
position = 0;
width = 21;
},
{
position = 1342;
width = 177;
},
{
position = 1480;
width = 20;
}
);
vhints = (
{
position = 143;
width = 205;
},
{
position = 614;
width = 206;
},
{
position = 1086;
width = 205;
}
);
};
};
width = 1430;
},
{
anchors = (
{
name = bottom;
position = "{752, 0}";
},
{
name = top;
position = "{752, 1500}";
}
);
layerId = "AF5BFB92-B2A0-4267-9185-576C8CF6314E";
paths = (
{
closed = 1;
nodes = (
"396 0 LINE",
"396 1124 LINE SMOOTH",
"396 1220 OFFCURVE",
"434 1301 OFFCURVE",
"526 1301 CURVE SMOOTH",
"596 1301 OFFCURVE",
"624 1243 OFFCURVE",
"624 1154 CURVE SMOOTH",
"624 0 LINE",
"889 0 LINE",
"889 1138 LINE SMOOTH",
"889 1245 OFFCURVE",
"936 1301 OFFCURVE",
"1016 1301 CURVE SMOOTH",
"1079 1301 OFFCURVE",
"1117 1259 OFFCURVE",
"1117 1152 CURVE SMOOTH",
"1117 0 LINE",
"1381 0 LINE",
"1381 1149 LINE SMOOTH",
"1381 1380 OFFCURVE",
"1308 1518 OFFCURVE",
"1113 1518 CURVE SMOOTH",
"989 1518 OFFCURVE",
"908 1460 OFFCURVE",
"858 1367 CURVE",
"817 1477 OFFCURVE",
"738 1518 OFFCURVE",
"636 1518 CURVE SMOOTH",
"501 1518 OFFCURVE",
"425 1443 OFFCURVE",
"396 1337 CURVE",
"396 1500 LINE",
"131 1500 LINE",
"131 0 LINE"
);
}
);
userData = {
com.fontlab.hintData = {
hhints = (
{
position = 0;
width = 21;
},
{
position = 1301;
width = 217;
},
{
position = 1480;
width = 20;
}
);
vhints = (
{
position = 131;
width = 265;
},
{
position = 624;
width = 265;
},
{
position = 1117;
width = 264;
}
);
};
};
width = 1504;
}
);
unicode = 006D;
},
{
glyphname = n;
lastChange = "2021-02-19 13:22:40 +0000";
layers = (
{
anchors = (
{
name = bottom;
position = "{460, 0}";
},
{
name = top;
position = "{460, 1500}";
}
);
layerId = master01;
paths = (
{
closed = 1;
nodes = (
"309 0 LINE",
"309 1220 LINE SMOOTH",
"309 1354 OFFCURVE",
"395 1387 OFFCURVE",
"478 1387 CURVE SMOOTH",
"558 1387 OFFCURVE",
"623 1346 OFFCURVE",
"623 1223 CURVE SMOOTH",
"623 0 LINE",
"772 0 LINE",
"772 1211 LINE SMOOTH",
"772 1425 OFFCURVE",
"680 1519 OFFCURVE",
"551 1519 CURVE SMOOTH",
"434 1519 OFFCURVE",
"335 1438 OFFCURVE",
"309 1353 CURVE",
"309 1500 LINE",
"160 1500 LINE",
"160 0 LINE"
);
}
);
userData = {
com.fontlab.hintData = {
hhints = (
{
position = 0;
width = 21;
},
{
position = 1387;
width = 132;
},
{
position = 1480;
width = 20;
}
);
vhints = (
{
position = 160;
width = 149;
},
{
position = 623;
width = 149;
}
);
};
};
width = 920;
},
{
anchors = (
{
name = bottom;
position = "{484, 0}";
},
{
name = top;
position = "{484, 1500}";
}
);
layerId = "5843B4DD-419E-4583-B42F-98D06DF0D314";
paths = (
{
closed = 1;
nodes = (
"348 0 LINE",
"348 1175 LINE SMOOTH",
"348 1295 OFFCURVE",
"413 1347 OFFCURVE",
"496 1347 CURVE SMOOTH",
"570 1347 OFFCURVE",
"624 1301 OFFCURVE",
"624 1195 CURVE SMOOTH",
"624 0 LINE",
"829 0 LINE",
"829 1196 LINE SMOOTH",
"829 1413 OFFCURVE",
"740 1519 OFFCURVE",
"590 1519 CURVE SMOOTH",
"469 1519 OFFCURVE",
"374 1434 OFFCURVE",
"348 1341 CURVE",
"348 1500 LINE",
"143 1500 LINE",
"143 0 LINE"
);
}
);
userData = {
com.fontlab.hintData = {
hhints = (
{
position = 0;
width = 21;
},
{
position = 1347;
width = 172;
},
{
position = 1480;
width = 20;
}
);
vhints = (
{
position = 143;
width = 205;
},
{
position = 624;
width = 205;
}
);
};
};
width = 968;
},
{
anchors = (
{
name = bottom;
position = "{510, 0}";
},
{
name = top;
position = "{510, 1500}";
}
);
layerId = "AF5BFB92-B2A0-4267-9185-576C8CF6314E";
paths = (
{
closed = 1;
nodes = (
"396 0 LINE",
"396 1127 LINE SMOOTH",
"396 1232 OFFCURVE",
"439 1304 OFFCURVE",
"522 1304 CURVE SMOOTH",
"590 1304 OFFCURVE",
"632 1252 OFFCURVE",
"632 1165 CURVE SMOOTH",
"632 0 LINE",
"897 0 LINE",
"897 1181 LINE SMOOTH",
"897 1399 OFFCURVE",
"810 1518 OFFCURVE",
"637 1518 CURVE SMOOTH",
"513 1518 OFFCURVE",
"422 1430 OFFCURVE",
"396 1328 CURVE",
"396 1500 LINE",
"131 1500 LINE",
"131 0 LINE"
);
}
);
userData = {
com.fontlab.hintData = {
hhints = (
{
position = 0;
width = 21;
},
{
position = 1304;
width = 214;
},
{
position = 1480;
width = 20;
}
);
vhints = (
{
position = 131;
width = 265;
},
{
position = 632;
width = 265;
}
);
};
};
width = 1020;
}
);
unicode = 006E;
},
{
glyphname = o;
lastChange = "2021-03-12 11:47:00 +0000";
layers = (
{
anchors = (
{
name = bottom;
position = "{423, 0}";
},
{
name = center;
position = "{423, 750}";
},
{
name = ogonek;
position = "{761, 10}";
},
{
name = top;
position = "{423, 1500}";
},
{
name = topright;
position = "{825, 1500}";
}
);
layerId = master01;
paths = (
{
closed = 1;
nodes = (
"705 -18 OFFCURVE",
"717 209 OFFCURVE",
"717 515 CURVE SMOOTH",
"717 1018 LINE SMOOTH",
"717 1301 OFFCURVE",
"696 1518 OFFCURVE",
"426 1518 CURVE SMOOTH",
"157 1518 OFFCURVE",
"128 1300 OFFCURVE",
"128 1018 CURVE SMOOTH",
"128 515 LINE SMOOTH",
"128 204 OFFCURVE",
"149 -18 OFFCURVE",
"426 -18 CURVE SMOOTH"
);
},
{
closed = 1;
nodes = (
"293 113 OFFCURVE",
"277 253 OFFCURVE",
"277 463 CURVE SMOOTH",
"277 1053 LINE SMOOTH",
"277 1250 OFFCURVE",
"291 1387 OFFCURVE",
"426 1387 CURVE SMOOTH",
"551 1387 OFFCURVE",
"568 1250 OFFCURVE",
"568 1053 CURVE SMOOTH",
"568 463 LINE SMOOTH",
"568 253 OFFCURVE",
"550 113 OFFCURVE",
"426 113 CURVE SMOOTH"
);
}
);
userData = {
com.fontlab.hintData = {
hhints = (
{
position = -18;
width = 131;
},
{
position = 1387;
width = 131;
}
);
vhints = (
{
position = 128;
width = 149;
},
{
position = 568;
width = 149;
}
);
};
};
width = 845;
},
{
anchors = (
{
name = bottom;
position = "{457, 0}";
},
{
name = center;
position = "{457, 750}";
},
{
name = ogonek;
position = "{823, 10}";
},
{
name = top;
position = "{457, 1500}";
},
{
name = topright;
position = "{894, 1500}";
}
);
layerId = "5843B4DD-419E-4583-B42F-98D06DF0D314";
paths = (
{
closed = 1;
nodes = (
"744 -18 OFFCURVE",
"790 190 OFFCURVE",
"790 496 CURVE SMOOTH",
"790 1027 LINE SMOOTH",
"790 1310 OFFCURVE",
"732 1518 OFFCURVE",
"459 1518 CURVE SMOOTH",
"187 1518 OFFCURVE",
"124 1309 OFFCURVE",
"124 1027 CURVE SMOOTH",
"124 496 LINE SMOOTH",
"124 185 OFFCURVE",
"176 -18 OFFCURVE",
"459 -18 CURVE SMOOTH"
);
},
{
closed = 1;
nodes = (
"346 153 OFFCURVE",
"330 268 OFFCURVE",
"330 439 CURVE SMOOTH",
"330 1068 LINE SMOOTH",
"330 1235 OFFCURVE",
"346 1347 OFFCURVE",
"459 1347 CURVE SMOOTH",
"565 1347 OFFCURVE",
"584 1235 OFFCURVE",
"584 1068 CURVE SMOOTH",
"584 439 LINE SMOOTH",
"584 268 OFFCURVE",
"566 153 OFFCURVE",
"459 153 CURVE SMOOTH"
);
}
);
userData = {
com.fontlab.hintData = {
hhints = (
{
position = -18;
width = 171;
},
{
position = 1347;
width = 171;
}
);
vhints = (
{
position = 124;
width = 206;
},
{
position = 584;
width = 206;
}
);
};
};
width = 914;
},
{
anchors = (
{
name = bottom;
position = "{485, 0}";
},
{
name = center;
position = "{485, 750}";
},
{
name = ogonek;
position = "{873, 10}";
},
{
name = top;
position = "{485, 1500}";
},
{
name = topright;
position = "{950, 1500}";
}
);
layerId = "AF5BFB92-B2A0-4267-9185-576C8CF6314E";
paths = (
{
closed = 1;
nodes = (
"778 -18 OFFCURVE",
"860 170 OFFCURVE",
"860 476 CURVE SMOOTH",
"860 1037 LINE SMOOTH",
"860 1320 OFFCURVE",
"762 1518 OFFCURVE",
"486 1518 CURVE SMOOTH",
"211 1518 OFFCURVE",
"110 1319 OFFCURVE",
"110 1037 CURVE SMOOTH",
"110 476 LINE SMOOTH",
"110 165 OFFCURVE",
"197 -18 OFFCURVE",
"486 -18 CURVE SMOOTH"
);
},
{
closed = 1;
nodes = (
"395 196 OFFCURVE",
"377 284 OFFCURVE",
"377 413 CURVE SMOOTH",
"377 1084 LINE SMOOTH",
"377 1219 OFFCURVE",
"396 1304 OFFCURVE",
"486 1304 CURVE SMOOTH",
"572 1304 OFFCURVE",
"593 1219 OFFCURVE",
"593 1084 CURVE SMOOTH",
"593 413 LINE SMOOTH",
"593 284 OFFCURVE",
"575 196 OFFCURVE",
"486 196 CURVE SMOOTH"
);
}
);
userData = {
com.fontlab.hintData = {
hhints = (
{
position = -18;
width = 214;
},
{
position = 1304;
width = 214;
}
);
vhints = (
{
position = 110;
width = 267;
},
{
position = 593;
width = 267;
}
);
};
};
width = 970;
}
);
leftKerningGroup = o;
rightKerningGroup = o;
unicode = 006F;
},
{
glyphname = oslash;
lastChange = "2021-03-12 11:33:22 +0000";
layers = (
{
anchors = (
{
name = bottom;
position = "{423, 0}";
},
{
name = center;
position = "{423, 750}";
},
{
name = ogonek;
position = "{761, 10}";
},
{
name = top;
position = "{423, 1500}";
},
{
name = topright;
position = "{825, 1500}";
}
);
layerId = master01;
paths = (
{
closed = 1;
nodes = (
"622 1738 LINE",
"561 1746 LINE",
"223 -215 LINE",
"284 -223 LINE"
);
},
{
closed = 1;
nodes = (
"705 -18 OFFCURVE",
"717 209 OFFCURVE",
"717 515 CURVE SMOOTH",
"717 1018 LINE SMOOTH",
"717 1301 OFFCURVE",
"696 1518 OFFCURVE",
"426 1518 CURVE SMOOTH",
"157 1518 OFFCURVE",
"128 1300 OFFCURVE",
"128 1018 CURVE SMOOTH",
"128 515 LINE SMOOTH",
"128 204 OFFCURVE",
"149 -18 OFFCURVE",
"426 -18 CURVE SMOOTH"
);
},
{
closed = 1;
nodes = (
"293 113 OFFCURVE",
"277 253 OFFCURVE",
"277 463 CURVE SMOOTH",
"277 1053 LINE SMOOTH",
"277 1250 OFFCURVE",
"291 1387 OFFCURVE",
"426 1387 CURVE SMOOTH",
"551 1387 OFFCURVE",
"568 1250 OFFCURVE",
"568 1053 CURVE SMOOTH",
"568 463 LINE SMOOTH",
"568 253 OFFCURVE",
"550 113 OFFCURVE",
"426 113 CURVE SMOOTH"
);
}
);
userData = {
com.fontlab.hintData = {
hhints = (
{
position = -18;
width = 131;
},
{
position = 1387;
width = 131;
}
);
vhints = (
{
position = 128;
width = 149;
},
{
position = 568;
width = 149;
}
);
};
};
width = 845;
},
{
anchors = (
{
name = bottom;
position = "{457, 0}";
},
{
name = center;
position = "{457, 750}";
},
{
name = ogonek;
position = "{823, 10}";
},
{
name = top;
position = "{440, 1500}";
},
{
name = topright;
position = "{894, 1500}";
}
);
layerId = "5843B4DD-419E-4583-B42F-98D06DF0D314";
paths = (
{
closed = 1;
nodes = (
"768 1644 LINE",
"667 1672 LINE",
"158 -145 LINE",
"258 -173 LINE"
);
},
{
closed = 1;
nodes = (
"744 -18 OFFCURVE",
"790 190 OFFCURVE",
"790 496 CURVE SMOOTH",
"790 1027 LINE SMOOTH",
"790 1310 OFFCURVE",
"732 1518 OFFCURVE",
"459 1518 CURVE SMOOTH",
"187 1518 OFFCURVE",
"124 1309 OFFCURVE",
"124 1027 CURVE SMOOTH",
"124 496 LINE SMOOTH",
"124 185 OFFCURVE",
"176 -18 OFFCURVE",
"459 -18 CURVE SMOOTH"
);
},
{
closed = 1;
nodes = (
"346 153 OFFCURVE",
"330 268 OFFCURVE",
"330 439 CURVE SMOOTH",
"330 1068 LINE SMOOTH",
"330 1235 OFFCURVE",
"346 1347 OFFCURVE",
"459 1347 CURVE SMOOTH",
"565 1347 OFFCURVE",
"584 1235 OFFCURVE",
"584 1068 CURVE SMOOTH",
"584 439 LINE SMOOTH",
"584 268 OFFCURVE",
"566 153 OFFCURVE",
"459 153 CURVE SMOOTH"
);
}
);
userData = {
com.fontlab.hintData = {
hhints = (
{
position = -18;
width = 171;
},
{
position = 1347;
width = 171;
}
);
vhints = (
{
position = 124;
width = 206;
},
{
position = 584;
width = 206;
}
);
};
};
width = 879;
},
{
anchors = (
{
name = bottom;
position = "{485, 0}";
},
{
name = center;
position = "{485, 750}";
},
{
name = ogonek;
position = "{873, 10}";
},
{
name = top;
position = "{440, 1500}";
},
{
name = topright;
position = "{950, 1500}";
}
);
layerId = "AF5BFB92-B2A0-4267-9185-576C8CF6314E";
paths = (
{
closed = 1;
nodes = (
"794 1644 LINE",
"693 1672 LINE",
"184 -145 LINE",
"284 -173 LINE"
);
},
{
closed = 1;
nodes = (
"778 -18 OFFCURVE",
"860 170 OFFCURVE",
"860 476 CURVE SMOOTH",
"860 1037 LINE SMOOTH",
"860 1320 OFFCURVE",
"762 1518 OFFCURVE",
"486 1518 CURVE SMOOTH",
"211 1518 OFFCURVE",
"110 1319 OFFCURVE",
"110 1037 CURVE SMOOTH",
"110 476 LINE SMOOTH",
"110 165 OFFCURVE",
"197 -18 OFFCURVE",
"486 -18 CURVE SMOOTH"
);
},
{
closed = 1;
nodes = (
"395 196 OFFCURVE",
"377 284 OFFCURVE",
"377 413 CURVE SMOOTH",
"377 1084 LINE SMOOTH",
"377 1219 OFFCURVE",
"396 1304 OFFCURVE",
"486 1304 CURVE SMOOTH",
"572 1304 OFFCURVE",
"593 1219 OFFCURVE",
"593 1084 CURVE SMOOTH",
"593 413 LINE SMOOTH",
"593 284 OFFCURVE",
"575 196 OFFCURVE",
"486 196 CURVE SMOOTH"
);
}
);
userData = {
com.fontlab.hintData = {
hhints = (
{
position = -18;
width = 214;
},
{
position = 1304;
width = 214;
}
);
vhints = (
{
position = 110;
width = 267;
},
{
position = 593;
width = 267;
}
);
};
};
width = 879;
}
);
leftKerningGroup = o;
rightKerningGroup = o;
unicode = 00F8;
},
{
glyphname = oe;
lastChange = "2021-03-12 11:33:26 +0000";
layers = (
{
anchors = (
{
name = bottom;
position = "{621, 0}";
},
{
name = top;
position = "{621, 1500}";
}
);
layerId = master01;
paths = (
{
closed = 1;
nodes = (
"527 -18 OFFCURVE",
"593 34 OFFCURVE",
"636 106 CURVE",
"680 33 OFFCURVE",
"748 -18 OFFCURVE",
"859 -18 CURVE SMOOTH",
"1134 -18 OFFCURVE",
"1132 202 OFFCURVE",
"1132 505 CURVE SMOOTH",
"1132 556 LINE",
"987 556 LINE",
"987 439 LINE SMOOTH",
"987 231 OFFCURVE",
"980 113 OFFCURVE",
"858 113 CURVE SMOOTH",
"727 113 OFFCURVE",
"716 220 OFFCURVE",
"716 450 CURVE SMOOTH",
"716 754 LINE",
"1137 754 LINE",
"1137 1002 LINE SMOOTH",
"1137 1292 OFFCURVE",
"1133 1518 OFFCURVE",
"864 1518 CURVE SMOOTH",
"757 1518 OFFCURVE",
"688 1467 OFFCURVE",
"643 1396 CURVE",
"601 1467 OFFCURVE",
"532 1518 OFFCURVE",
"425 1518 CURVE SMOOTH",
"156 1518 OFFCURVE",
"128 1300 OFFCURVE",
"128 1018 CURVE SMOOTH",
"128 515 LINE SMOOTH",
"128 204 OFFCURVE",
"148 -18 OFFCURVE",
"425 -18 CURVE SMOOTH"
);
},
{
closed = 1;
nodes = (
"292 113 OFFCURVE",
"277 253 OFFCURVE",
"277 463 CURVE SMOOTH",
"277 1053 LINE SMOOTH",
"277 1250 OFFCURVE",
"291 1388 OFFCURVE",
"425 1388 CURVE SMOOTH",
"550 1388 OFFCURVE",
"567 1250 OFFCURVE",
"567 1053 CURVE SMOOTH",
"567 463 LINE SMOOTH",
"567 253 OFFCURVE",
"550 113 OFFCURVE",
"425 113 CURVE SMOOTH"
);
},
{
closed = 1;
nodes = (
"717 1063 LINE SMOOTH",
"717 1259 OFFCURVE",
"735 1387 OFFCURVE",
"866 1387 CURVE SMOOTH",
"991 1387 OFFCURVE",
"988 1273 OFFCURVE",
"988 1068 CURVE SMOOTH",
"988 874 LINE",
"717 874 LINE"
);
}
);
userData = {
com.fontlab.hintData = {
hhints = (
{
position = -18;
width = 131;
},
{
position = 754;
width = 120;
},
{
position = 1388;
width = 130;
}
);
vhints = (
{
position = 128;
width = 149;
},
{
position = 567;
width = 149;
},
{
position = 988;
width = 149;
}
);
};
};
width = 1241;
},
{
anchors = (
{
name = bottom;
position = "{679, 0}";
},
{
name = top;
position = "{679, 1500}";
}
);
layerId = "5843B4DD-419E-4583-B42F-98D06DF0D314";
paths = (
{
closed = 1;
nodes = (
"566 -18 OFFCURVE",
"639 28 OFFCURVE",
"689 96 CURVE",
"738 27 OFFCURVE",
"810 -18 OFFCURVE",
"919 -18 CURVE SMOOTH",
"1211 -18 OFFCURVE",
"1240 190 OFFCURVE",
"1240 502 CURVE SMOOTH",
"1240 562 LINE",
"1038 562 LINE",
"1038 451 LINE",
"1038 276 OFFCURVE",
"1033 153 OFFCURVE",
"921 153 CURVE SMOOTH",
"804 153 OFFCURVE",
"794 254 OFFCURVE",
"794 444 CURVE SMOOTH",
"794 740 LINE",
"1243 740 LINE",
"1243 1026 LINE SMOOTH",
"1243 1315 OFFCURVE",
"1201 1518 OFFCURVE",
"927 1518 CURVE SMOOTH",
"819 1518 OFFCURVE",
"744 1472 OFFCURVE",
"693 1403 CURVE",
"642 1472 OFFCURVE",
"568 1518 OFFCURVE",
"462 1518 CURVE SMOOTH",
"190 1518 OFFCURVE",
"124 1309 OFFCURVE",
"124 1027 CURVE SMOOTH",
"124 497 LINE SMOOTH",
"124 186 OFFCURVE",
"179 -18 OFFCURVE",
"462 -18 CURVE SMOOTH"
);
},
{
closed = 1;
nodes = (
"349 153 OFFCURVE",
"331 268 OFFCURVE",
"331 439 CURVE SMOOTH",
"331 1068 LINE SMOOTH",
"331 1235 OFFCURVE",
"349 1347 OFFCURVE",
"462 1347 CURVE SMOOTH",
"568 1347 OFFCURVE",
"588 1235 OFFCURVE",
"588 1068 CURVE SMOOTH",
"588 439 LINE SMOOTH",
"588 268 OFFCURVE",
"569 153 OFFCURVE",
"462 153 CURVE SMOOTH"
);
},
{
closed = 1;
nodes = (
"795 1061 LINE SMOOTH",
"795 1228 OFFCURVE",
"808 1349 OFFCURVE",
"927 1349 CURVE SMOOTH",
"1033 1349 OFFCURVE",
"1038 1252 OFFCURVE",
"1038 1073 CURVE SMOOTH",
"1038 889 LINE",
"795 889 LINE"
);
}
);
userData = {
com.fontlab.hintData = {
hhints = (
{
position = -18;
width = 171;
},
{
position = 740;
width = 149;
},
{
position = 1347;
width = 171;
}
);
vhints = (
{
position = 124;
width = 207;
},
{
position = 588;
width = 206;
},
{
position = 1038;
width = 202;
}
);
};
};
width = 1358;
},
{
anchors = (
{
name = bottom;
position = "{726, 0}";
},
{
name = top;
position = "{726, 1500}";
}
);
layerId = "AF5BFB92-B2A0-4267-9185-576C8CF6314E";
paths = (
{
closed = 1;
nodes = (
"599 -18 OFFCURVE",
"678 21 OFFCURVE",
"737 85 CURVE",
"791 21 OFFCURVE",
"867 -18 OFFCURVE",
"973 -18 CURVE SMOOTH",
"1284 -18 OFFCURVE",
"1345 177 OFFCURVE",
"1345 499 CURVE SMOOTH",
"1345 569 LINE",
"1082 569 LINE",
"1082 464 LINE SMOOTH",
"1082 323 OFFCURVE",
"1081 196 OFFCURVE",
"979 196 CURVE SMOOTH",
"877 196 OFFCURVE",
"868 291 OFFCURVE",
"868 437 CURVE SMOOTH",
"868 726 LINE",
"1346 726 LINE",
"1346 1053 LINE SMOOTH",
"1346 1340 OFFCURVE",
"1265 1518 OFFCURVE",
"985 1518 CURVE SMOOTH",
"876 1518 OFFCURVE",
"795 1478 OFFCURVE",
"737 1410 CURVE",
"676 1478 OFFCURVE",
"596 1518 OFFCURVE",
"492 1518 CURVE SMOOTH",
"217 1518 OFFCURVE",
"110 1319 OFFCURVE",
"110 1037 CURVE SMOOTH",
"110 478 LINE SMOOTH",
"110 167 OFFCURVE",
"203 -18 OFFCURVE",
"492 -18 CURVE SMOOTH"
);
},
{
closed = 1;
nodes = (
"400 196 OFFCURVE",
"380 284 OFFCURVE",
"380 413 CURVE SMOOTH",
"380 1084 LINE SMOOTH",
"380 1219 OFFCURVE",
"402 1304 OFFCURVE",
"492 1304 CURVE SMOOTH",
"578 1304 OFFCURVE",
"602 1219 OFFCURVE",
"602 1084 CURVE SMOOTH",
"602 413 LINE SMOOTH",
"602 284 OFFCURVE",
"580 196 OFFCURVE",
"492 196 CURVE SMOOTH"
);
},
{
closed = 1;
nodes = (
"869 1059 LINE SMOOTH",
"869 1195 OFFCURVE",
"877 1309 OFFCURVE",
"983 1309 CURVE SMOOTH",
"1068 1309 OFFCURVE",
"1082 1229 OFFCURVE",
"1082 1079 CURVE SMOOTH",
"1082 906 LINE",
"869 906 LINE"
);
}
);
userData = {
com.fontlab.hintData = {
hhints = (
{
position = -18;
width = 214;
},
{
position = 726;
width = 180;
},
{
position = 1309;
width = 209;
}
);
vhints = (
{
position = 110;
width = 270;
},
{
position = 602;
width = 266;
},
{
position = 1082;
width = 263;
}
);
};
};
width = 1451;
}
);
leftKerningGroup = o;
rightKerningGroup = o;
unicode = 0153;
},
{
glyphname = p;
lastChange = "2021-03-12 11:33:30 +0000";
layers = (
{
anchors = (
{
name = bottom;
position = "{438, 0}";
},
{
name = top;
position = "{438, 1500}";
}
);
layerId = master01;
paths = (
{
closed = 1;
nodes = (
"312 -265 LINE",
"312 108 LINE",
"338 40 OFFCURVE",
"401 -18 OFFCURVE",
"472 -18 CURVE SMOOTH",
"696 -18 OFFCURVE",
"748 194 OFFCURVE",
"748 475 CURVE SMOOTH",
"748 1013 LINE SMOOTH",
"748 1298 OFFCURVE",
"716 1511 OFFCURVE",
"511 1511 CURVE SMOOTH",
"433 1511 OFFCURVE",
"353 1482 OFFCURVE",
"312 1385 CURVE",
"312 1500 LINE",
"163 1500 LINE",
"163 -265 LINE"
);
},
{
closed = 1;
nodes = (
"338 115 OFFCURVE",
"312 222 OFFCURVE",
"312 463 CURVE SMOOTH",
"312 1059 LINE SMOOTH",
"312 1351 OFFCURVE",
"373 1386 OFFCURVE",
"470 1386 CURVE SMOOTH",
"588 1386 OFFCURVE",
"599 1259 OFFCURVE",
"599 1061 CURVE SMOOTH",
"599 468 LINE SMOOTH",
"599 214 OFFCURVE",
"573 116 OFFCURVE",
"464 115 CURVE"
);
}
);
userData = {
com.fontlab.hintData = {
hhints = (
{
position = -265;
width = 21;
},
{
position = -18;
width = 133;
},
{
position = 1386;
width = 125;
}
);
vhints = (
{
position = 163;
width = 149;
},
{
position = 599;
width = 149;
}
);
};
};
width = 876;
},
{
anchors = (
{
name = bottom;
position = "{470, 0}";
},
{
name = top;
position = "{470, 1500}";
}
);
layerId = "5843B4DD-419E-4583-B42F-98D06DF0D314";
paths = (
{
closed = 1;
nodes = (
"352 -274 LINE",
"352 100 LINE",
"384 37 OFFCURVE",
"450 -18 OFFCURVE",
"527 -18 CURVE SMOOTH",
"770 -18 OFFCURVE",
"815 203 OFFCURVE",
"815 487 CURVE SMOOTH",
"815 1030 LINE SMOOTH",
"815 1305 OFFCURVE",
"776 1513 OFFCURVE",
"560 1513 CURVE SMOOTH",
"479 1513 OFFCURVE",
"392 1473 OFFCURVE",
"352 1375 CURVE",
"352 1500 LINE",
"147 1500 LINE",
"147 -274 LINE"
);
},
{
closed = 1;
nodes = (
"375 154 OFFCURVE",
"352 252 OFFCURVE",
"352 451 CURVE SMOOTH",
"352 1066 LINE SMOOTH",
"352 1306 OFFCURVE",
"405 1346 OFFCURVE",
"491 1346 CURVE SMOOTH",
"598 1346 OFFCURVE",
"609 1231 OFFCURVE",
"609 1066 CURVE SMOOTH",
"609 459 LINE SMOOTH",
"609 250 OFFCURVE",
"586 155 OFFCURVE",
"487 154 CURVE"
);
}
);
userData = {
com.fontlab.hintData = {
hhints = (
{
position = -274;
width = 21;
},
{
position = -18;
width = 172;
},
{
position = 1346;
width = 167;
}
);
vhints = (
{
position = 147;
width = 205;
},
{
position = 609;
width = 206;
}
);
};
};
width = 939;
},
{
anchors = (
{
name = bottom;
position = "{499, 0}";
},
{
name = top;
position = "{499, 1500}";
}
);
layerId = "AF5BFB92-B2A0-4267-9185-576C8CF6314E";
paths = (
{
closed = 1;
nodes = (
"397 -285 LINE",
"397 91 LINE",
"435 33 OFFCURVE",
"505 -18 OFFCURVE",
"587 -18 CURVE SMOOTH",
"851 -18 OFFCURVE",
"888 212 OFFCURVE",
"888 501 CURVE SMOOTH",
"888 1048 LINE SMOOTH",
"888 1312 OFFCURVE",
"843 1515 OFFCURVE",
"613 1515 CURVE SMOOTH",
"529 1515 OFFCURVE",
"436 1463 OFFCURVE",
"397 1365 CURVE",
"397 1500 LINE",
"132 1500 LINE",
"132 -285 LINE"
);
},
{
closed = 1;
nodes = (
"417 197 OFFCURVE",
"397 285 OFFCURVE",
"397 439 CURVE SMOOTH",
"397 1073 LINE SMOOTH",
"397 1259 OFFCURVE",
"442 1304 OFFCURVE",
"516 1304 CURVE SMOOTH",
"611 1304 OFFCURVE",
"621 1202 OFFCURVE",
"621 1072 CURVE SMOOTH",
"621 450 LINE SMOOTH",
"621 287 OFFCURVE",
"603 197 OFFCURVE",
"514 197 CURVE SMOOTH"
);
}
);
userData = {
com.fontlab.hintData = {
hhints = (
{
position = -285;
width = 21;
},
{
position = -18;
width = 215;
},
{
position = 1304;
width = 211;
},
{
position = 1480;
width = 20;
}
);
vhints = (
{
position = 132;
width = 265;
},
{
position = 621;
width = 267;
}
);
};
};
width = 998;
}
);
rightKerningGroup = o;
unicode = 0070;
},
{
glyphname = thorn;
lastChange = "2021-03-12 11:33:30 +0000";
layers = (
{
anchors = (
{
name = bottom;
position = "{438, 0}";
},
{
name = top;
position = "{438, 1500}";
}
);
layerId = master01;
paths = (
{
closed = 1;
nodes = (
"310 -265 LINE",
"310 108 LINE",
"336 40 OFFCURVE",
"399 -16 OFFCURVE",
"470 -16 CURVE SMOOTH",
"694 -16 OFFCURVE",
"747 194 OFFCURVE",
"747 475 CURVE SMOOTH",
"747 1013 LINE SMOOTH",
"747 1298 OFFCURVE",
"715 1511 OFFCURVE",
"509 1511 CURVE SMOOTH",
"431 1511 OFFCURVE",
"351 1482 OFFCURVE",
"310 1385 CURVE",
"310 1783 LINE",
"160 1783 LINE",
"160 -265 LINE"
);
},
{
closed = 1;
nodes = (
"336 106 OFFCURVE",
"310 222 OFFCURVE",
"310 463 CURVE SMOOTH",
"310 1059 LINE SMOOTH",
"310 1351 OFFCURVE",
"370 1387 OFFCURVE",
"468 1387 CURVE SMOOTH",
"586 1387 OFFCURVE",
"597 1260 OFFCURVE",
"597 1062 CURVE SMOOTH",
"597 468 LINE SMOOTH",
"597 214 OFFCURVE",
"571 107 OFFCURVE",
"461 106 CURVE"
);
}
);
userData = {
com.fontlab.hintData = {
hhints = (
{
position = -16;
width = 122;
},
{
position = 1387;
width = 124;
}
);
vhints = (
{
position = 160;
width = 150;
},
{
position = 597;
width = 150;
}
);
};
};
width = 875;
},
{
anchors = (
{
name = bottom;
position = "{470, 0}";
},
{
name = top;
position = "{470, 1500}";
}
);
layerId = "5843B4DD-419E-4583-B42F-98D06DF0D314";
paths = (
{
closed = 1;
nodes = (
"353 -274 LINE",
"353 100 LINE",
"385 37 OFFCURVE",
"450 -18 OFFCURVE",
"526 -18 CURVE SMOOTH",
"769 -18 OFFCURVE",
"814 203 OFFCURVE",
"814 487 CURVE SMOOTH",
"814 1030 LINE SMOOTH",
"814 1305 OFFCURVE",
"776 1513 OFFCURVE",
"559 1513 CURVE SMOOTH",
"478 1513 OFFCURVE",
"393 1473 OFFCURVE",
"353 1375 CURVE",
"353 1779 LINE",
"147 1779 LINE",
"147 -274 LINE"
);
},
{
closed = 1;
nodes = (
"375 155 OFFCURVE",
"353 253 OFFCURVE",
"353 452 CURVE SMOOTH",
"353 1065 LINE SMOOTH",
"353 1305 OFFCURVE",
"405 1345 OFFCURVE",
"492 1345 CURVE SMOOTH",
"598 1345 OFFCURVE",
"608 1230 OFFCURVE",
"608 1065 CURVE SMOOTH",
"608 460 LINE SMOOTH",
"608 250 OFFCURVE",
"587 156 OFFCURVE",
"487 155 CURVE"
);
}
);
userData = {
com.fontlab.hintData = {
hhints = (
{
position = -274;
width = 21;
},
{
position = -18;
width = 173;
},
{
position = 1345;
width = 168;
},
{
position = 1759;
width = 20;
}
);
vhints = (
{
position = 147;
width = 206;
},
{
position = 608;
width = 206;
}
);
};
};
width = 939;
},
{
anchors = (
{
name = bottom;
position = "{500, 0}";
},
{
name = top;
position = "{500, 1500}";
}
);
layerId = "AF5BFB92-B2A0-4267-9185-576C8CF6314E";
paths = (
{
closed = 1;
nodes = (
"399 -285 LINE",
"399 91 LINE",
"437 33 OFFCURVE",
"504 -18 OFFCURVE",
"586 -18 CURVE SMOOTH",
"850 -18 OFFCURVE",
"885 212 OFFCURVE",
"885 501 CURVE SMOOTH",
"885 1048 LINE SMOOTH",
"885 1312 OFFCURVE",
"842 1515 OFFCURVE",
"612 1515 CURVE SMOOTH",
"528 1515 OFFCURVE",
"438 1463 OFFCURVE",
"399 1365 CURVE",
"399 1775 LINE",
"133 1775 LINE",
"133 -285 LINE"
);
},
{
closed = 1;
nodes = (
"418 198 OFFCURVE",
"399 286 OFFCURVE",
"399 440 CURVE SMOOTH",
"399 1070 LINE SMOOTH",
"399 1256 OFFCURVE",
"442 1301 OFFCURVE",
"517 1301 CURVE SMOOTH",
"611 1301 OFFCURVE",
"620 1199 OFFCURVE",
"620 1069 CURVE SMOOTH",
"620 451 LINE SMOOTH",
"620 288 OFFCURVE",
"604 198 OFFCURVE",
"515 198 CURVE SMOOTH"
);
}
);
userData = {
com.fontlab.hintData = {
hhints = (
{
position = -285;
width = 21;
},
{
position = -18;
width = 216;
},
{
position = 1301;
width = 214;
},
{
position = 1755;
width = 20;
}
);
vhints = (
{
position = 133;
width = 266;
},
{
position = 620;
width = 265;
}
);
};
};
width = 1000;
}
);
rightKerningGroup = o;
unicode = 00FE;
},
{
glyphname = q;
lastChange = "2021-03-12 11:33:34 +0000";
layers = (
{
anchors = (
{
name = bottom;
position = "{427, 0}";
},
{
name = top;
position = "{427, 1500}";
}
);
layerId = master01;
paths = (
{
closed = 1;
nodes = (
"715 -265 LINE",
"715 1500 LINE",
"565 1500 LINE",
"565 1381 LINE",
"524 1480 OFFCURVE",
"442 1511 OFFCURVE",
"364 1511 CURVE SMOOTH",
"157 1511 OFFCURVE",
"128 1298 OFFCURVE",
"128 1013 CURVE SMOOTH",
"128 479 LINE SMOOTH",
"128 198 OFFCURVE",
"178 -18 OFFCURVE",
"404 -18 CURVE SMOOTH",
"475 -18 OFFCURVE",
"537 39 OFFCURVE",
"565 106 CURVE",
"565 -265 LINE"
);
},
{
closed = 1;
nodes = (
"288 114 OFFCURVE",
"276 241 OFFCURVE",
"276 437 CURVE SMOOTH",
"276 1031 LINE SMOOTH",
"276 1286 OFFCURVE",
"303 1384 OFFCURVE",
"412 1385 CURVE",
"540 1385 OFFCURVE",
"564 1276 OFFCURVE",
"564 1037 CURVE SMOOTH",
"564 441 LINE SMOOTH",
"564 147 OFFCURVE",
"502 114 OFFCURVE",
"406 114 CURVE SMOOTH"
);
}
);
userData = {
com.fontlab.hintData = {
hhints = (
{
position = -265;
width = 21;
},
{
position = -18;
width = 132;
},
{
position = 1385;
width = 126;
}
);
vhints = (
{
position = 128;
width = 148;
},
{
position = 565;
width = 150;
}
);
};
};
width = 853;
},
{
anchors = (
{
name = bottom;
position = "{469, 0}";
},
{
name = top;
position = "{469, 1500}";
}
);
layerId = "5843B4DD-419E-4583-B42F-98D06DF0D314";
paths = (
{
closed = 1;
nodes = (
"790 -274 LINE",
"790 1500 LINE",
"585 1500 LINE",
"585 1383 LINE",
"544 1478 OFFCURVE",
"461 1513 OFFCURVE",
"380 1513 CURVE SMOOTH",
"168 1513 OFFCURVE",
"124 1304 OFFCURVE",
"124 1030 CURVE SMOOTH",
"124 480 LINE SMOOTH",
"124 196 OFFCURVE",
"175 -18 OFFCURVE",
"412 -18 CURVE SMOOTH",
"489 -18 OFFCURVE",
"557 38 OFFCURVE",
"585 104 CURVE",
"585 -274 LINE"
);
},
{
closed = 1;
nodes = (
"338 154 OFFCURVE",
"329 269 OFFCURVE",
"329 437 CURVE SMOOTH",
"329 1044 LINE SMOOTH",
"329 1251 OFFCURVE",
"349 1345 OFFCURVE",
"450 1346 CURVE",
"558 1346 OFFCURVE",
"584 1252 OFFCURVE",
"584 1050 CURVE SMOOTH",
"584 435 LINE SMOOTH",
"584 198 OFFCURVE",
"535 154 OFFCURVE",
"445 154 CURVE SMOOTH"
);
}
);
userData = {
com.fontlab.hintData = {
hhints = (
{
position = -274;
width = 21;
},
{
position = -18;
width = 172;
},
{
position = 1346;
width = 167;
}
);
vhints = (
{
position = 124;
width = 205;
},
{
position = 585;
width = 205;
}
);
};
};
width = 937;
},
{
anchors = (
{
name = bottom;
position = "{497, 0}";
},
{
name = top;
position = "{497, 1500}";
}
);
layerId = "AF5BFB92-B2A0-4267-9185-576C8CF6314E";
paths = (
{
closed = 1;
nodes = (
"862 -285 LINE",
"862 1500 LINE",
"597 1500 LINE",
"597 1386 LINE",
"558 1476 OFFCURVE",
"473 1515 OFFCURVE",
"389 1515 CURVE SMOOTH",
"171 1515 OFFCURVE",
"110 1311 OFFCURVE",
"110 1048 CURVE SMOOTH",
"110 481 LINE SMOOTH",
"110 194 OFFCURVE",
"163 -18 OFFCURVE",
"411 -18 CURVE SMOOTH",
"494 -18 OFFCURVE",
"570 37 OFFCURVE",
"597 102 CURVE",
"597 -285 LINE"
);
},
{
closed = 1;
nodes = (
"384 196 OFFCURVE",
"376 299 OFFCURVE",
"376 436 CURVE SMOOTH",
"376 1058 LINE SMOOTH",
"376 1213 OFFCURVE",
"390 1303 OFFCURVE",
"481 1303 CURVE SMOOTH",
"569 1303 OFFCURVE",
"597 1226 OFFCURVE",
"597 1063 CURVE SMOOTH",
"597 429 LINE SMOOTH",
"597 252 OFFCURVE",
"562 196 OFFCURVE",
"478 196 CURVE SMOOTH"
);
}
);
userData = {
com.fontlab.hintData = {
hhints = (
{
position = -285;
width = 21;
},
{
position = -18;
width = 214;
},
{
position = 1303;
width = 212;
},
{
position = 1480;
width = 20;
}
);
vhints = (
{
position = 110;
width = 266;
},
{
position = 597;
width = 265;
}
);
};
};
width = 994;
}
);
leftKerningGroup = o;
unicode = 0071;
},
{
glyphname = r;
lastChange = "2021-03-12 11:33:44 +0000";
layers = (
{
anchors = (
{
name = bottom;
position = "{245, 0}";
},
{
name = top;
position = "{353, 1500}";
}
);
layerId = master01;
paths = (
{
closed = 1;
nodes = (
"309 0 LINE",
"309 1246 LINE",
"390 1361 OFFCURVE",
"468 1391 OFFCURVE",
"567 1391 CURVE",
"567 1391 OFFCURVE",
"569 1518 OFFCURVE",
"564 1518 CURVE SMOOTH",
"431 1518 OFFCURVE",
"343 1449 OFFCURVE",
"309 1333 CURVE",
"309 1500 LINE",
"160 1500 LINE",
"160 0 LINE"
);
}
);
userData = {
com.fontlab.hintData = {
hhints = (
{
position = 0;
width = 21;
},
{
position = 1391;
width = 127;
},
{
position = 1480;
width = 20;
}
);
vhints = (
{
position = 160;
width = 149;
}
);
};
};
width = 605;
},
{
anchors = (
{
name = bottom;
position = "{262, 0}";
},
{
name = top;
position = "{361, 1500}";
}
);
layerId = "5843B4DD-419E-4583-B42F-98D06DF0D314";
paths = (
{
closed = 1;
nodes = (
"353 0 LINE",
"353 1219 LINE",
"412 1313 OFFCURVE",
"515 1344 OFFCURVE",
"611 1344 CURVE",
"611 1344 OFFCURVE",
"613 1518 OFFCURVE",
"608 1518 CURVE SMOOTH",
"475 1518 OFFCURVE",
"387 1449 OFFCURVE",
"353 1333 CURVE",
"353 1500 LINE",
"147 1500 LINE",
"147 0 LINE"
);
}
);
userData = {
com.fontlab.hintData = {
hhints = (
{
position = 0;
width = 21;
},
{
position = 1344;
width = 174;
},
{
position = 1480;
width = 20;
}
);
vhints = (
{
position = 147;
width = 206;
}
);
};
};
width = 642;
},
{
anchors = (
{
name = bottom;
position = "{274, 0}";
},
{
name = top;
position = "{369, 1500}";
}
);
layerId = "AF5BFB92-B2A0-4267-9185-576C8CF6314E";
paths = (
{
closed = 1;
nodes = (
"399 0 LINE",
"399 1190 LINE",
"434 1263 OFFCURVE",
"564 1294 OFFCURVE",
"657 1294 CURVE",
"657 1294 OFFCURVE",
"659 1518 OFFCURVE",
"654 1518 CURVE SMOOTH",
"521 1518 OFFCURVE",
"433 1449 OFFCURVE",
"399 1333 CURVE",
"399 1500 LINE",
"132 1500 LINE",
"132 0 LINE"
);
}
);
userData = {
com.fontlab.hintData = {
hhints = (
{
position = 0;
width = 21;
},
{
position = 1294;
width = 224;
},
{
position = 1480;
width = 20;
}
);
vhints = (
{
position = 132;
width = 267;
}
);
};
};
width = 697;
}
);
rightKerningGroup = r;
unicode = 0072;
},
{
glyphname = s;
lastChange = "2021-03-12 11:33:53 +0000";
layers = (
{
anchors = (
{
name = bottom;
position = "{372, 0}";
},
{
name = top;
position = "{372, 1500}";
}
);
layerId = master01;
paths = (
{
closed = 1;
nodes = (
"598 -20 OFFCURVE",
"683 121 OFFCURVE",
"683 325 CURVE SMOOTH",
"683 485 OFFCURVE",
"632 623 OFFCURVE",
"491 761 CURVE SMOOTH",
"386 864 LINE SMOOTH",
"262 985 OFFCURVE",
"243 1057 OFFCURVE",
"243 1150 CURVE SMOOTH",
"243 1286 OFFCURVE",
"276 1381 OFFCURVE",
"378 1381 CURVE SMOOTH",
"471 1381 OFFCURVE",
"513 1288 OFFCURVE",
"513 1078 CURVE SMOOTH",
"513 957 LINE",
"653 957 LINE",
"653 1051 LINE SMOOTH",
"653 1407 OFFCURVE",
"543 1518 OFFCURVE",
"375 1518 CURVE SMOOTH",
"207 1518 OFFCURVE",
"93 1410 OFFCURVE",
"93 1186 CURVE SMOOTH",
"93 1035 OFFCURVE",
"140 904 OFFCURVE",
"277 775 CURVE SMOOTH",
"388 670 LINE SMOOTH",
"522 543 OFFCURVE",
"529 446 OFFCURVE",
"529 334 CURVE SMOOTH",
"529 168 OFFCURVE",
"490 116 OFFCURVE",
"393 116 CURVE SMOOTH",
"298 116 OFFCURVE",
"251 230 OFFCURVE",
"251 433 CURVE SMOOTH",
"251 536 LINE",
"102 536 LINE",
"102 407 LINE SMOOTH",
"102 108 OFFCURVE",
"197 -20 OFFCURVE",
"406 -20 CURVE SMOOTH"
);
}
);
userData = {
com.fontlab.hintData = {
hhints = (
{
position = -20;
width = 136;
},
{
position = 1381;
width = 137;
}
);
vhints = (
{
position = 102;
width = 149;
},
{
position = 513;
width = 140;
},
{
position = 529;
width = 154;
}
);
};
};
width = 744;
},
{
anchors = (
{
name = bottom;
position = "{402, 0}";
},
{
name = top;
position = "{402, 1500}";
}
);
layerId = "5843B4DD-419E-4583-B42F-98D06DF0D314";
paths = (
{
closed = 1;
nodes = (
"645 -20 OFFCURVE",
"745 117 OFFCURVE",
"745 344 CURVE SMOOTH",
"745 509 OFFCURVE",
"673 658 OFFCURVE",
"533 788 CURVE SMOOTH",
"425 889 LINE SMOOTH",
"326 981 OFFCURVE",
"286 1081 OFFCURVE",
"288 1177 CURVE",
"292 1302 OFFCURVE",
"331 1342 OFFCURVE",
"413 1342 CURVE SMOOTH",
"497 1342 OFFCURVE",
"525 1250 OFFCURVE",
"525 1082 CURVE SMOOTH",
"525 978 LINE",
"720 978 LINE",
"720 1050 LINE SMOOTH",
"720 1401 OFFCURVE",
"613 1518 OFFCURVE",
"411 1518 CURVE SMOOTH",
"209 1518 OFFCURVE",
"88 1407 OFFCURVE",
"88 1165 CURVE SMOOTH",
"88 1012 OFFCURVE",
"156 875 OFFCURVE",
"283 754 CURVE SMOOTH",
"389 653 LINE SMOOTH",
"493 554 OFFCURVE",
"539 449 OFFCURVE",
"539 343 CURVE SMOOTH",
"539 202 OFFCURVE",
"501 155 OFFCURVE",
"417 155 CURVE SMOOTH",
"333 155 OFFCURVE",
"299 247 OFFCURVE",
"299 415 CURVE SMOOTH",
"299 527 LINE",
"100 527 LINE",
"100 414 LINE SMOOTH",
"100 103 OFFCURVE",
"213 -20 OFFCURVE",
"426 -20 CURVE SMOOTH"
);
}
);
userData = {
com.fontlab.hintData = {
hhints = (
{
position = -20;
width = 175;
},
{
position = 1342;
width = 176;
}
);
vhints = (
{
position = 100;
width = 199;
},
{
position = 525;
width = 195;
},
{
position = 539;
width = 206;
}
);
};
};
width = 804;
},
{
anchors = (
{
name = bottom;
position = "{431, 0}";
},
{
name = top;
position = "{431, 1500}";
}
);
layerId = "AF5BFB92-B2A0-4267-9185-576C8CF6314E";
paths = (
{
closed = 1;
nodes = (
"688.71 -19 OFFCURVE",
"798.71 113 OFFCURVE",
"798.71 365 CURVE SMOOTH",
"798.71 535 OFFCURVE",
"729 679 OFFCURVE",
"579.71 814 CURVE SMOOTH",
"437.71 943 LINE SMOOTH",
"362 1012 OFFCURVE",
"330.71 1088 OFFCURVE",
"331.71 1168 CURVE",
"334.71 1267 OFFCURVE",
"366.71 1301 OFFCURVE",
"436.71 1301 CURVE SMOOTH",
"509.71 1301 OFFCURVE",
"535.71 1232 OFFCURVE",
"535.71 1100 CURVE SMOOTH",
"535.71 1001 LINE",
"772.71 1001 LINE",
"772.71 1083 LINE SMOOTH",
"772.71 1402 OFFCURVE",
"662.71 1518 OFFCURVE",
"434.71 1518 CURVE SMOOTH",
"200.71 1518 OFFCURVE",
"79.71 1404 OFFCURVE",
"79.71 1150 CURVE SMOOTH",
"79.71 993 OFFCURVE",
"141 865 OFFCURVE",
"264.71 753 CURVE SMOOTH",
"399.71 631 LINE SMOOTH",
"496 544 OFFCURVE",
"537.71 453 OFFCURVE",
"537.71 353 CURVE SMOOTH",
"537.71 238 OFFCURVE",
"505.71 197 OFFCURVE",
"435.71 197 CURVE SMOOTH",
"363.71 197 OFFCURVE",
"333.71 266 OFFCURVE",
"333.71 397 CURVE SMOOTH",
"333.71 518 LINE",
"84.71 518 LINE",
"84.71 421 LINE SMOOTH",
"84.71 109 OFFCURVE",
"200.71 -19 OFFCURVE",
"441.71 -19 CURVE SMOOTH"
);
}
);
userData = {
com.fontlab.hintData = {
hhints = (
{
position = -19;
width = 216;
},
{
position = 1301;
width = 217;
}
);
vhints = (
{
position = 85;
width = 249;
},
{
position = 536;
width = 237;
},
{
position = 538;
width = 261;
}
);
};
};
width = 862;
}
);
leftKerningGroup = s;
rightKerningGroup = s;
unicode = 0073;
},
{
glyphname = germandbls;
lastChange = "2021-02-19 13:24:10 +0000";
layers = (
{
anchors = (
{
name = bottom;
position = "{467, 0}";
},
{
name = top;
position = "{467, 1500}";
}
);
layerId = master01;
paths = (
{
closed = 1;
nodes = (
"304 0 LINE",
"304 1500 LINE SMOOTH",
"304 1646 OFFCURVE",
"343 1687 OFFCURVE",
"457 1687 CURVE SMOOTH",
"593 1687 OFFCURVE",
"632 1646 OFFCURVE",
"632 1500 CURVE SMOOTH",
"632 1170 LINE SMOOTH",
"632 1042 OFFCURVE",
"578 997 OFFCURVE",
"427 997 CURVE",
"427 889 LINE",
"628 889 OFFCURVE",
"687 821 OFFCURVE",
"687 656 CURVE SMOOTH",
"687 395 LINE SMOOTH",
"687 155 OFFCURVE",
"660 100 OFFCURVE",
"418 100 CURVE",
"418 0 LINE",
"522 0 LINE SMOOTH",
"822 0 OFFCURVE",
"835 177 OFFCURVE",
"835 476 CURVE SMOOTH",
"835 553 LINE SMOOTH",
"835 819 OFFCURVE",
"782 903 OFFCURVE",
"606 945 CURVE",
"737 988 OFFCURVE",
"775 1047 OFFCURVE",
"775 1220 CURVE SMOOTH",
"775 1417 LINE SMOOTH",
"775 1700 OFFCURVE",
"712 1783 OFFCURVE",
"444 1783 CURVE SMOOTH",
"161 1783 OFFCURVE",
"157 1660 OFFCURVE",
"157 1417 CURVE SMOOTH",
"157 0 LINE"
);
}
);
userData = {
com.fontlab.hintData = {
hhints = (
{
position = 0;
width = 100;
},
{
position = 889;
width = 108;
},
{
position = 1687;
width = 96;
}
);
vhints = (
{
position = 157;
width = 147;
},
{
position = 632;
width = 143;
},
{
position = 687;
width = 148;
}
);
};
};
width = 933;
},
{
anchors = (
{
name = bottom;
position = "{491, 0}";
},
{
name = top;
position = "{491, 1500}";
}
);
layerId = "5843B4DD-419E-4583-B42F-98D06DF0D314";
paths = (
{
closed = 1;
nodes = (
"348 0 LINE",
"348 1470 LINE SMOOTH",
"348 1590 OFFCURVE",
"387 1627 OFFCURVE",
"484 1627 CURVE SMOOTH",
"596 1627 OFFCURVE",
"631 1590 OFFCURVE",
"631 1470 CURVE SMOOTH",
"631 1170 LINE SMOOTH",
"631 1058 OFFCURVE",
"589 1019 OFFCURVE",
"459 1019 CURVE",
"459 851 LINE",
"636 851 OFFCURVE",
"689 806 OFFCURVE",
"689 656 CURVE SMOOTH",
"689 395 LINE SMOOTH",
"689 199 OFFCURVE",
"653 168 OFFCURVE",
"450 168 CURVE",
"450 0 LINE",
"554 0 LINE SMOOTH",
"854 0 OFFCURVE",
"891 177 OFFCURVE",
"891 476 CURVE SMOOTH",
"891 553 LINE SMOOTH",
"891 801 OFFCURVE",
"840 904 OFFCURVE",
"668 945 CURVE",
"792 986 OFFCURVE",
"831 1056 OFFCURVE",
"831 1220 CURVE SMOOTH",
"831 1417 LINE SMOOTH",
"831 1694 OFFCURVE",
"740 1779 OFFCURVE",
"474 1779 CURVE SMOOTH",
"191 1779 OFFCURVE",
"144 1660 OFFCURVE",
"144 1417 CURVE SMOOTH",
"144 0 LINE"
);
}
);
userData = {
com.fontlab.hintData = {
hhints = (
{
position = 0;
width = 168;
},
{
position = 851;
width = 168;
},
{
position = 1627;
width = 152;
}
);
vhints = (
{
position = 144;
width = 204;
},
{
position = 631;
width = 200;
},
{
position = 689;
width = 202;
}
);
};
};
width = 981;
},
{
anchors = (
{
name = bottom;
position = "{516, 0}";
},
{
name = top;
position = "{516, 1500}";
}
);
layerId = "AF5BFB92-B2A0-4267-9185-576C8CF6314E";
paths = (
{
closed = 1;
nodes = (
"400 0 LINE",
"400 1438 LINE SMOOTH",
"400 1530 OFFCURVE",
"439 1562 OFFCURVE",
"517 1562 CURVE SMOOTH",
"604 1562 OFFCURVE",
"635 1530 OFFCURVE",
"635 1438 CURVE SMOOTH",
"635 1170 LINE SMOOTH",
"635 1076 OFFCURVE",
"604 1032 OFFCURVE",
"498 1032 CURVE",
"498 832 LINE",
"648 832 OFFCURVE",
"695 789 OFFCURVE",
"695 656 CURVE SMOOTH",
"695 395 LINE SMOOTH",
"695 246 OFFCURVE",
"649 212 OFFCURVE",
"489 212 CURVE",
"489 0 LINE",
"593 0 LINE SMOOTH",
"893 0 OFFCURVE",
"956 177 OFFCURVE",
"956 476 CURVE SMOOTH",
"956 553 LINE SMOOTH",
"956 781 OFFCURVE",
"907 905 OFFCURVE",
"737 945 CURVE",
"855 983 OFFCURVE",
"896 1066 OFFCURVE",
"896 1220 CURVE SMOOTH",
"896 1417 LINE SMOOTH",
"896 1688 OFFCURVE",
"774 1781 OFFCURVE",
"511 1781 CURVE SMOOTH",
"228 1781 OFFCURVE",
"135 1660 OFFCURVE",
"135 1417 CURVE SMOOTH",
"135 0 LINE"
);
}
);
userData = {
com.fontlab.hintData = {
hhints = (
{
position = 0;
width = 212;
},
{
position = 832;
width = 200;
},
{
position = 1562;
width = 219;
}
);
vhints = (
{
position = 135;
width = 265;
},
{
position = 635;
width = 261;
},
{
position = 695;
width = 261;
}
);
};
};
width = 1032;
}
);
unicode = 00DF;
},
{
glyphname = t;
lastChange = "2021-03-12 12:12:46 +0000";
layers = (
{
anchors = (
{
name = "#exit";
position = "{388, 1783}";
},
{
name = bottom;
position = "{366, 0}";
},
{
name = center;
position = "{293, 750}";
},
{
name = top;
position = "{271, 1760}";
},
{
name = topright;
position = "{565, 1500}";
}
);
layerId = master01;
paths = (
{
closed = 1;
nodes = (
"527 -9 LINE",
"527 118 LINE",
"361 118 OFFCURVE",
"351 129 OFFCURVE",
"351 209 CURVE SMOOTH",
"351 1384 LINE",
"528 1384 LINE",
"528 1500 LINE",
"351 1500 LINE",
"351 1760 LINE",
"201 1760 LINE",
"201 1500 LINE",
"51 1500 LINE",
"51 1384 LINE",
"201 1384 LINE",
"201 217 LINE SMOOTH",
"201 48 OFFCURVE",
"230 -9 OFFCURVE",
"423 -9 CURVE SMOOTH"
);
}
);
userData = {
com.fontlab.hintData = {
hhints = (
{
position = -9;
width = 127;
},
{
position = 1384;
width = 116;
},
{
position = 1740;
width = 20;
}
);
vhints = (
{
position = 201;
width = 150;
}
);
};
};
width = 585;
},
{
anchors = (
{
name = "#exit";
position = "{408, 1783}";
},
{
name = bottom;
position = "{373, 0}";
},
{
name = center;
position = "{298, 750}";
},
{
name = top;
position = "{276, 1760}";
},
{
name = topright;
position = "{576, 1500}";
}
);
layerId = "5843B4DD-419E-4583-B42F-98D06DF0D314";
paths = (
{
closed = 1;
nodes = (
"549 -9 LINE",
"549 154 LINE",
"401 154 OFFCURVE",
"385 165 OFFCURVE",
"385 241 CURVE SMOOTH",
"385 1336 LINE",
"547 1336 LINE",
"547 1488 LINE",
"385 1488 LINE",
"385 1760 LINE",
"180 1760 LINE",
"180 1488 LINE",
"43 1488 LINE",
"43 1336 LINE",
"180 1336 LINE",
"180 223 LINE SMOOTH",
"180 54 OFFCURVE",
"215 -9 OFFCURVE",
"408 -9 CURVE SMOOTH"
);
}
);
userData = {
com.fontlab.hintData = {
hhints = (
{
position = -9;
width = 163;
},
{
position = 1336;
width = 152;
},
{
position = 1740;
width = 20;
}
);
vhints = (
{
position = 180;
width = 205;
}
);
};
};
width = 596;
},
{
anchors = (
{
name = "#exit";
position = "{428, 1783}";
},
{
name = bottom;
position = "{379, 0}";
},
{
name = center;
position = "{319, 750}";
},
{
name = top;
position = "{298, 1760}";
},
{
name = topright;
position = "{618, 1500}";
}
);
layerId = "AF5BFB92-B2A0-4267-9185-576C8CF6314E";
paths = (
{
closed = 1;
nodes = (
"582.147 -10 LINE",
"582.147 192 LINE",
"454.147 192 OFFCURVE",
"431.147 204 OFFCURVE",
"431.147 275 CURVE SMOOTH",
"431.147 1277 LINE",
"577.147 1277 LINE",
"577.147 1469 LINE",
"431.147 1469 LINE",
"431.147 1760 LINE",
"166.147 1760 LINE",
"166.147 1469 LINE",
"44.147 1469 LINE",
"44.147 1277 LINE",
"166.147 1277 LINE",
"166.147 229 LINE SMOOTH",
"166.147 60 OFFCURVE",
"209.147 -10 OFFCURVE",
"402.147 -10 CURVE SMOOTH"
);
}
);
userData = {
com.fontlab.hintData = {
hhints = (
{
position = -10;
width = 202;
},
{
position = 1277;
width = 192;
},
{
position = 1740;
width = 20;
}
);
vhints = (
{
position = 166;
width = 265;
}
);
};
};
width = 638;
}
);
leftKerningGroup = t;
rightKerningGroup = t;
unicode = 0074;
},
{
glyphname = u;
lastChange = "2021-03-12 11:34:20 +0000";
layers = (
{
anchors = (
{
name = bottom;
position = "{457, 0}";
},
{
name = ogonek;
position = "{701, 0}";
},
{
name = top;
position = "{457, 1500}";
},
{
name = topright;
position = "{894, 1500}";
}
);
layerId = master01;
paths = (
{
closed = 1;
nodes = (
"501 -20 OFFCURVE",
"588 65 OFFCURVE",
"612 150 CURVE",
"612 0 LINE",
"761 0 LINE",
"761 1500 LINE",
"610 1500 LINE",
"612 303 LINE SMOOTH",
"612 190 OFFCURVE",
"549 119 OFFCURVE",
"444 119 CURVE SMOOTH",
"354 119 OFFCURVE",
"297 174 OFFCURVE",
"297 292 CURVE SMOOTH",
"297 1500 LINE",
"148 1500 LINE",
"148 285 LINE SMOOTH",
"148 47 OFFCURVE",
"290 -20 OFFCURVE",
"385 -20 CURVE SMOOTH"
);
}
);
userData = {
com.fontlab.hintData = {
hhints = (
{
position = -20;
width = 139;
},
{
position = 0;
width = 21;
},
{
position = 1480;
width = 20;
}
);
vhints = (
{
position = 148;
width = 149;
},
{
position = 612;
width = 149;
}
);
};
};
width = 914;
},
{
anchors = (
{
name = bottom;
position = "{481, 0}";
},
{
name = ogonek;
position = "{730, 0}";
},
{
name = top;
position = "{481, 1500}";
},
{
name = topright;
position = "{942, 1500}";
}
);
layerId = "5843B4DD-419E-4583-B42F-98D06DF0D314";
paths = (
{
closed = 1;
nodes = (
"508 -20 OFFCURVE",
"584 59 OFFCURVE",
"614 153 CURVE",
"614 0 LINE",
"820 0 LINE",
"820 1500 LINE",
"614 1500 LINE",
"614 340 LINE SMOOTH",
"614 235 OFFCURVE",
"568 158 OFFCURVE",
"469 158 CURVE SMOOTH",
"380 158 OFFCURVE",
"340 219 OFFCURVE",
"340 335 CURVE SMOOTH",
"340 1500 LINE",
"135 1500 LINE",
"135 312 LINE SMOOTH",
"135 73 OFFCURVE",
"252 -20 OFFCURVE",
"386 -20 CURVE SMOOTH"
);
}
);
userData = {
com.fontlab.hintData = {
hhints = (
{
position = -20;
width = 178;
},
{
position = 0;
width = 21;
},
{
position = 1480;
width = 20;
}
);
vhints = (
{
position = 135;
width = 205;
},
{
position = 614;
width = 206;
}
);
};
};
width = 962;
},
{
anchors = (
{
name = bottom;
position = "{505, 0}";
},
{
name = ogonek;
position = "{773, 0}";
},
{
name = top;
position = "{505, 1500}";
},
{
name = topright;
position = "{990, 1500}";
}
);
layerId = "AF5BFB92-B2A0-4267-9185-576C8CF6314E";
paths = (
{
closed = 1;
nodes = (
"516 -19 OFFCURVE",
"581 54 OFFCURVE",
"618 156 CURVE",
"618 0 LINE",
"883 0 LINE",
"883 1500 LINE",
"619 1500 LINE",
"618 379 LINE SMOOTH",
"618 284 OFFCURVE",
"590 199 OFFCURVE",
"497 199 CURVE SMOOTH",
"408 199 OFFCURVE",
"388 266 OFFCURVE",
"388 381 CURVE SMOOTH",
"388 1500 LINE",
"122 1500 LINE",
"122 340 LINE SMOOTH",
"122 101 OFFCURVE",
"211 -19 OFFCURVE",
"389 -19 CURVE SMOOTH"
);
}
);
userData = {
com.fontlab.hintData = {
hhints = (
{
position = -19;
width = 218;
},
{
position = 0;
width = 21;
},
{
position = 1480;
width = 20;
}
);
vhints = (
{
position = 122;
width = 266;
},
{
position = 618;
width = 265;
}
);
};
};
width = 1010;
}
);
leftKerningGroup = u;
unicode = 0075;
},
{
glyphname = v;
lastChange = "2021-03-12 12:12:52 +0000";
layers = (
{
anchors = (
{
name = bottom;
position = "{359, 0}";
},
{
name = top;
position = "{359, 1500}";
}
);
layerId = master01;
paths = (
{
closed = 1;
nodes = (
"436 0 LINE",
"660 1500 LINE",
"524 1500 LINE",
"414 691 LINE",
"369 241 LINE",
"363 241 LINE",
"312 690 LINE",
"194 1500 LINE",
"58 1500 LINE",
"287 0 LINE"
);
}
);
userData = {
com.fontlab.hintData = {
hhints = (
{
position = 0;
width = 21;
},
{
position = 1480;
width = 20;
}
);
vhints = (
{
position = 58;
width = 602;
}
);
};
};
width = 718;
},
{
anchors = (
{
name = bottom;
position = "{387, 0}";
},
{
name = top;
position = "{387, 1500}";
}
);
layerId = "5843B4DD-419E-4583-B42F-98D06DF0D314";
paths = (
{
closed = 1;
nodes = (
"507 0 LINE",
"726 1500 LINE",
"539 1500 LINE",
"435 650 LINE",
"400 294 LINE",
"393 294 LINE",
"352 649 LINE",
"235 1500 LINE",
"49 1500 LINE",
"266 0 LINE"
);
}
);
userData = {
com.fontlab.hintData = {
hhints = (
{
position = 0;
width = 21;
},
{
position = 1480;
width = 20;
}
);
vhints = (
{
position = 539;
width = 187;
}
);
};
};
width = 774;
},
{
anchors = (
{
name = bottom;
position = "{426, 0}";
},
{
name = top;
position = "{426, 1500}";
}
);
layerId = "AF5BFB92-B2A0-4267-9185-576C8CF6314E";
paths = (
{
closed = 1;
nodes = (
"588.923 0 LINE",
"805.923 1500 LINE",
"557.923 1500 LINE",
"474.923 703 LINE",
"446.923 343 LINE",
"426.923 343 LINE",
"393.923 702 LINE",
"296.923 1500 LINE",
"46.923 1500 LINE",
"263.923 0 LINE"
);
}
);
userData = {
com.fontlab.hintData = {
hhints = (
{
position = 0;
width = 21;
},
{
position = 1480;
width = 20;
}
);
};
};
width = 852;
}
);
leftKerningGroup = w;
rightKerningGroup = w;
unicode = 0076;
},
{
glyphname = w;
lastChange = "2021-03-12 11:35:05 +0000";
layers = (
{
anchors = (
{
name = bottom;
position = "{540, 0}";
},
{
name = top;
position = "{540, 1500}";
}
);
layerId = master01;
paths = (
{
closed = 1;
nodes = (
"378 0 LINE",
"551 1283 LINE",
"698 0 LINE",
"846 0 LINE",
"1020 1500 LINE",
"888 1500 LINE",
"813 648 LINE",
"793 302 LINE",
"783 302 LINE",
"743 646 LINE",
"606 1500 LINE",
"580 1500 LINE",
"526 1500 LINE",
"479 1500 LINE",
"353 614 LINE",
"323 302 LINE",
"311 302 LINE",
"287 613 LINE",
"197 1500 LINE",
"60 1500 LINE",
"236 0 LINE"
);
}
);
userData = {
com.fontlab.hintData = {
hhints = (
{
position = 0;
width = 21;
},
{
position = 1480;
width = 20;
}
);
vhints = (
{
position = 888;
width = 132;
}
);
};
};
width = 1080;
},
{
anchors = (
{
name = bottom;
position = "{583, 0}";
},
{
name = top;
position = "{583, 1500}";
}
);
layerId = "5843B4DD-419E-4583-B42F-98D06DF0D314";
paths = (
{
closed = 1;
nodes = (
"411 0 LINE",
"591 1174 LINE",
"742 0 LINE",
"931 0 LINE",
"1112 1500 LINE",
"944 1500 LINE",
"866 689 LINE",
"842 378 LINE",
"834 378 LINE",
"793 688 LINE",
"674 1500 LINE",
"641 1500 LINE",
"549 1500 LINE",
"495 1500 LINE",
"376 666 LINE",
"338 378 LINE",
"329 378 LINE",
"306 665 LINE",
"227 1500 LINE",
"55 1500 LINE",
"230 0 LINE"
);
}
);
userData = {
com.fontlab.hintData = {
hhints = (
{
position = 0;
width = 21;
},
{
position = 1480;
width = 20;
}
);
vhints = (
{
position = 55;
width = 172;
},
{
position = 944;
width = 168;
}
);
};
};
width = 1166;
},
{
anchors = (
{
name = bottom;
position = "{629, 0}";
},
{
name = top;
position = "{629, 1500}";
}
);
layerId = "AF5BFB92-B2A0-4267-9185-576C8CF6314E";
paths = (
{
closed = 1;
nodes = (
"473.8 0 LINE",
"635.8 1127 LINE",
"787.8 0 LINE",
"1019.8 0 LINE",
"1209.8 1500 LINE",
"987.8 1500 LINE",
"920.8 879 LINE",
"891.8 545 LINE",
"885.8 545 LINE",
"843.8 880 LINE",
"745.8 1500 LINE",
"688.8 1500 LINE",
"584.8 1500 LINE",
"509.8 1500 LINE",
"420.8 868 LINE",
"387.8 545 LINE",
"381.8 545 LINE",
"347.8 867 LINE",
"271.8 1500 LINE",
"48.8 1500 LINE",
"249.8 0 LINE"
);
}
);
userData = {
com.fontlab.hintData = {
hhints = (
{
position = 0;
width = 21;
},
{
position = 1480;
width = 20;
}
);
};
};
width = 1258;
}
);
leftKerningGroup = w;
rightKerningGroup = w;
unicode = 0077;
},
{
glyphname = x;
lastChange = "2021-02-19 13:29:29 +0000";
layers = (
{
anchors = (
{
name = bottom;
position = "{334, 0}";
},
{
name = top;
position = "{334, 1500}";
}
);
layerId = master01;
paths = (
{
closed = 1;
nodes = (
"165 0 LINE",
"326 574 LINE",
"497 0 LINE",
"636 0 LINE",
"400 779 LINE",
"632 1500 LINE",
"490 1500 LINE",
"341 973 LINE",
"181 1500 LINE",
"51 1500 LINE",
"270 762 LINE",
"33 0 LINE"
);
}
);
userData = {
com.fontlab.hintData = {
hhints = (
{
position = 0;
width = 21;
},
{
position = 1480;
width = 20;
}
);
vhints = (
{
position = 490;
width = 142;
}
);
};
};
width = 668;
},
{
anchors = (
{
name = bottom;
position = "{376, 0}";
},
{
name = top;
position = "{376, 1500}";
}
);
layerId = "5843B4DD-419E-4583-B42F-98D06DF0D314";
paths = (
{
closed = 1;
nodes = (
"216 0 LINE",
"367 510 LINE",
"531 0 LINE",
"722 0 LINE",
"470 766 LINE",
"712 1500 LINE",
"526 1500 LINE",
"386 1021 LINE",
"228 1500 LINE",
"47 1500 LINE",
"282 773 LINE",
"30 0 LINE"
);
}
);
userData = {
com.fontlab.hintData = {
hhints = (
{
position = 0;
width = 21;
},
{
position = 1480;
width = 20;
}
);
};
};
width = 751;
},
{
anchors = (
{
name = bottom;
position = "{420, 0}";
},
{
name = top;
position = "{420, 1500}";
}
);
layerId = "AF5BFB92-B2A0-4267-9185-576C8CF6314E";
paths = (
{
closed = 1;
nodes = (
"271.522 0 LINE",
"410.522 449 LINE",
"567.522 0 LINE",
"813.522 0 LINE",
"544.522 755 LINE",
"798.522 1500 LINE",
"564.522 1500 LINE",
"432.522 1067 LINE",
"278.522 1500 LINE",
"43.522 1500 LINE",
"293.522 783 LINE",
"26.522 0 LINE"
);
}
);
userData = {
com.fontlab.hintData = {
hhints = (
{
position = 0;
width = 21;
},
{
position = 1480;
width = 20;
}
);
};
};
width = 840;
}
);
unicode = 0078;
},
{
glyphname = y;
lastChange = "2021-03-12 12:12:59 +0000";
layers = (
{
anchors = (
{
name = bottom;
position = "{373, 0}";
},
{
name = top;
position = "{373, 1500}";
}
);
layerId = master01;
paths = (
{
closed = 1;
nodes = (
"257 -238 LINE SMOOTH",
"411 -238 OFFCURVE",
"426 -178 OFFCURVE",
"454 3 CURVE SMOOTH",
"693 1500 LINE",
"544 1500 LINE",
"437 707 LINE",
"394 299 LINE",
"381 299 LINE",
"333 707 LINE",
"214 1500 LINE",
"64 1500 LINE",
"314 38 LINE SMOOTH",
"324 -26 OFFCURVE",
"333 -76 OFFCURVE",
"311 -99 CURVE",
"299 -107 OFFCURVE",
"244 -110 OFFCURVE",
"188 -110 CURVE SMOOTH",
"133 -110 LINE",
"133 -238 LINE"
);
}
);
userData = {
com.fontlab.hintData = {
hhints = (
{
position = -238;
width = 128;
},
{
position = 1480;
width = 20;
}
);
vhints = (
{
position = 64;
width = 150;
},
{
position = 544;
width = 149;
}
);
};
};
width = 745;
},
{
anchors = (
{
name = bottom;
position = "{393, 0}";
},
{
name = top;
position = "{393, 1500}";
}
);
layerId = "5843B4DD-419E-4583-B42F-98D06DF0D314";
paths = (
{
closed = 1;
nodes = (
"305 -251 LINE SMOOTH",
"452 -251 OFFCURVE",
"477 -192 OFFCURVE",
"502 -29 CURVE",
"751 1500 LINE",
"553 1500 LINE",
"455 720 LINE",
"416 314 LINE",
"398 314 LINE",
"354 720 LINE",
"246 1500 LINE",
"47 1500 LINE",
"292 53 LINE SMOOTH",
"300 0 OFFCURVE",
"307 -51 OFFCURVE",
"291 -72 CURVE",
"282 -92 OFFCURVE",
"233 -96 OFFCURVE",
"175 -96 CURVE SMOOTH",
"104 -96 LINE",
"104 -251 LINE"
);
}
);
userData = {
com.fontlab.hintData = {
hhints = (
{
position = -251;
width = 155;
},
{
position = 1480;
width = 20;
}
);
vhints = (
{
position = 47;
width = 199;
},
{
position = 553;
width = 198;
}
);
};
};
width = 786;
},
{
anchors = (
{
name = bottom;
position = "{430, 0}";
},
{
name = top;
position = "{430, 1500}";
}
);
layerId = "AF5BFB92-B2A0-4267-9185-576C8CF6314E";
paths = (
{
closed = 1;
nodes = (
"370.581 -265 LINE SMOOTH",
"509.581 -265 OFFCURVE",
"545.581 -207 OFFCURVE",
"567.581 -64 CURVE",
"827.581 1500 LINE",
"576.581 1500 LINE",
"488.581 733 LINE",
"452.581 329 LINE",
"430.581 329 LINE",
"390.581 733 LINE",
"294.581 1500 LINE",
"42.581 1500 LINE",
"282.581 68 LINE SMOOTH",
"288.581 28 OFFCURVE",
"293.581 -25 OFFCURVE",
"283.581 -42 CURVE",
"278.581 -76 OFFCURVE",
"234.581 -82 OFFCURVE",
"175.581 -82 CURVE SMOOTH",
"88.581 -82 LINE",
"88.581 -265 LINE"
);
}
);
userData = {
com.fontlab.hintData = {
hhints = (
{
position = -265;
width = 183;
},
{
position = 1480;
width = 20;
}
);
};
};
width = 859;
}
);
leftKerningGroup = y;
rightKerningGroup = y;
unicode = 0079;
},
{
glyphname = z;
lastChange = "2021-03-12 11:35:14 +0000";
layers = (
{
anchors = (
{
name = bottom;
position = "{311, 0}";
},
{
name = center;
position = "{311, 750}";
},
{
name = top;
position = "{311, 1500}";
}
);
layerId = master01;
paths = (
{
closed = 1;
nodes = (
"548 0 LINE",
"548 130 LINE",
"234 130 LINE",
"568 1407 LINE",
"568 1500 LINE",
"105 1500 LINE",
"105 1371 LINE",
"409 1371 LINE",
"80 108 LINE",
"80 0 LINE"
);
}
);
userData = {
com.fontlab.hintData = {
hhints = (
{
position = 0;
width = 130;
},
{
position = 1371;
width = 129;
}
);
vhints = (
{
position = 80;
width = 488;
}
);
};
};
width = 621;
},
{
anchors = (
{
name = bottom;
position = "{337, 0}";
},
{
name = center;
position = "{337, 750}";
},
{
name = top;
position = "{337, 1500}";
}
);
layerId = "5843B4DD-419E-4583-B42F-98D06DF0D314";
paths = (
{
closed = 1;
nodes = (
"597 0 LINE",
"597 175 LINE",
"283 175 LINE",
"614 1359 LINE",
"614 1500 LINE",
"97 1500 LINE",
"97 1323 LINE",
"402 1323 LINE",
"72 153 LINE",
"72 0 LINE"
);
}
);
userData = {
com.fontlab.hintData = {
hhints = (
{
position = 0;
width = 175;
},
{
position = 1323;
width = 177;
}
);
vhints = (
{
position = 72;
width = 542;
}
);
};
};
width = 673;
},
{
anchors = (
{
name = bottom;
position = "{366, 0}";
},
{
name = center;
position = "{366, 750}";
},
{
name = top;
position = "{366, 1500}";
}
);
layerId = "AF5BFB92-B2A0-4267-9185-576C8CF6314E";
paths = (
{
closed = 1;
nodes = (
"658.333 0 LINE",
"658.333 222 LINE",
"344.333 222 LINE",
"672.333 1309 LINE",
"672.333 1500 LINE",
"98.333 1500 LINE",
"98.333 1273 LINE",
"403.333 1273 LINE",
"73.333 200 LINE",
"73.333 0 LINE"
);
}
);
userData = {
com.fontlab.hintData = {
hhints = (
{
position = 0;
width = 222;
},
{
position = 1273;
width = 227;
}
);
vhints = (
{
position = 73;
width = 599;
}
);
};
};
width = 732;
}
);
leftKerningGroup = z;
rightKerningGroup = z;
unicode = 007A;
},
{
glyphname = f_f;
lastChange = "2021-03-12 11:35:19 +0000";
layers = (
{
layerId = master01;
paths = (
{
closed = 1;
nodes = (
"374 0 LINE",
"374 1329 LINE",
"834 1329 LINE",
"834 0 LINE",
"984 0 LINE",
"984 1329 LINE",
"1183 1329 LINE",
"1183 1442 LINE",
"984 1442 LINE",
"984 1534 LINE SMOOTH",
"984 1606 OFFCURVE",
"991 1657 OFFCURVE",
"1102 1657 CURVE SMOOTH",
"1124 1657 OFFCURVE",
"1151 1655 OFFCURVE",
"1183 1650 CURVE",
"1183 1771 LINE",
"1180 1772 OFFCURVE",
"1120 1789 OFFCURVE",
"1048 1789 CURVE SMOOTH",
"887 1789 OFFCURVE",
"834 1688 OFFCURVE",
"834 1512 CURVE SMOOTH",
"834 1442 LINE",
"374 1442 LINE",
"374 1534 LINE SMOOTH",
"374 1606 OFFCURVE",
"381 1657 OFFCURVE",
"492 1657 CURVE SMOOTH",
"514 1657 OFFCURVE",
"541 1655 OFFCURVE",
"573 1650 CURVE",
"573 1771 LINE",
"570 1772 OFFCURVE",
"510 1789 OFFCURVE",
"438 1789 CURVE SMOOTH",
"277 1789 OFFCURVE",
"224 1688 OFFCURVE",
"224 1512 CURVE SMOOTH",
"224 1442 LINE",
"84 1442 LINE",
"84 1329 LINE",
"224 1329 LINE",
"224 0 LINE"
);
}
);
userData = {
com.fontlab.hintData = {
hhints = (
{
position = 0;
width = 21;
},
{
position = 1329;
width = 113;
},
{
position = 1650;
width = 121;
},
{
position = 1657;
width = 132;
}
);
vhints = (
{
position = 224;
width = 150;
},
{
position = 834;
width = 150;
}
);
};
};
width = 1220;
},
{
layerId = "5843B4DD-419E-4583-B42F-98D06DF0D314";
paths = (
{
closed = 1;
nodes = (
"405 0 LINE",
"405 1291 LINE",
"823 1291 LINE",
"823 0 LINE",
"1028 0 LINE",
"1028 1291 LINE",
"1204 1291 LINE",
"1204 1442 LINE",
"1028 1442 LINE",
"1028 1523 LINE SMOOTH",
"1028 1588 OFFCURVE",
"1043 1628 OFFCURVE",
"1133 1628 CURVE SMOOTH",
"1153 1628 OFFCURVE",
"1177 1626 OFFCURVE",
"1204 1622 CURVE",
"1204 1765 LINE",
"1198 1767 OFFCURVE",
"1134 1786 OFFCURVE",
"1055 1786 CURVE SMOOTH",
"894 1786 OFFCURVE",
"823 1688 OFFCURVE",
"823 1515 CURVE SMOOTH",
"823 1442 LINE",
"405 1442 LINE",
"405 1523 LINE SMOOTH",
"405 1588 OFFCURVE",
"420 1628 OFFCURVE",
"510 1628 CURVE SMOOTH",
"530 1628 OFFCURVE",
"554 1626 OFFCURVE",
"581 1622 CURVE",
"581 1765 LINE",
"575 1767 OFFCURVE",
"511 1786 OFFCURVE",
"432 1786 CURVE SMOOTH",
"271 1786 OFFCURVE",
"200 1688 OFFCURVE",
"200 1515 CURVE SMOOTH",
"200 1442 LINE",
"71 1442 LINE",
"71 1291 LINE",
"200 1291 LINE",
"200 0 LINE"
);
}
);
userData = {
com.fontlab.hintData = {
hhints = (
{
position = 0;
width = 21;
},
{
position = 1291;
width = 151;
},
{
position = 1622;
width = 143;
},
{
position = 1628;
width = 158;
}
);
vhints = (
{
position = 200;
width = 205;
},
{
position = 823;
width = 205;
}
);
};
};
width = 1246;
},
{
layerId = "AF5BFB92-B2A0-4267-9185-576C8CF6314E";
paths = (
{
closed = 1;
nodes = (
"438 0 LINE",
"438 1250 LINE",
"810 1250 LINE",
"810 0 LINE",
"1075 0 LINE",
"1075 1250 LINE",
"1227 1250 LINE",
"1227 1441 LINE",
"1075 1441 LINE",
"1075 1511 LINE SMOOTH",
"1075 1569 OFFCURVE",
"1099 1597 OFFCURVE",
"1167 1597 CURVE SMOOTH",
"1185 1597 OFFCURVE",
"1205 1596 OFFCURVE",
"1227 1593 CURVE",
"1227 1760 LINE",
"1211 1766 OFFCURVE",
"1144 1784 OFFCURVE",
"1062 1784 CURVE SMOOTH",
"901 1784 OFFCURVE",
"811 1687 OFFCURVE",
"811 1519 CURVE SMOOTH",
"811 1441 LINE",
"438 1441 LINE",
"438 1511 LINE SMOOTH",
"438 1569 OFFCURVE",
"462 1597 OFFCURVE",
"530 1597 CURVE SMOOTH",
"548 1597 OFFCURVE",
"568 1596 OFFCURVE",
"590 1593 CURVE",
"590 1760 LINE",
"574 1766 OFFCURVE",
"507 1784 OFFCURVE",
"425 1784 CURVE SMOOTH",
"264 1784 OFFCURVE",
"174 1687 OFFCURVE",
"174 1519 CURVE SMOOTH",
"174 1441 LINE",
"57 1441 LINE",
"57 1250 LINE",
"173 1250 LINE",
"173 0 LINE"
);
}
);
userData = {
com.fontlab.hintData = {
hhints = (
{
position = 0;
width = 21;
},
{
position = 1250;
width = 191;
},
{
position = 1593;
width = 167;
},
{
position = 1597;
width = 187;
}
);
vhints = (
{
position = 173;
width = 265;
},
{
position = 810;
width = 265;
}
);
};
};
width = 1274;
}
);
leftKerningGroup = f;
},
